<svg id="svg_icon" xmlns="http://www.w3.org/2000/svg" width="68.414" height="47.849" viewBox="0 0 68.414 47.849">
  <path id="Tracé_11931" data-name="Tracé 11931" d="M116.03,142.309a5.735,5.735,0,0,1-8.107,0L87.358,121.745a5.738,5.738,0,0,1,0-8.111h0a5.737,5.737,0,0,1,8.109,0L116.031,134.2a5.733,5.733,0,0,1,0,8.107Z" transform="translate(-85.679 -96.139)" fill="#00b48b"/>
  <path id="Tracé_11932" data-name="Tracé 11932" d="M119.714,133.24a5.735,5.735,0,0,1,0-8.107L156.1,88.748a5.733,5.733,0,0,1,8.106,0h0a5.731,5.731,0,0,1,0,8.106L127.821,133.24a5.735,5.735,0,0,1-8.107,0Z" transform="translate(-97.47 -87.069)" fill="#00b48b"/>
  <path id="Tracé_11933" data-name="Tracé 11933" d="M129.814,107.85a6.679,6.679,0,1,1-6.681-6.677A6.68,6.68,0,0,1,129.814,107.85Z" transform="translate(-96.895 -92.209)" fill="#00b48b"/>
</svg>
