<?xml version="1.0" standalone="no"?>
<!DOCTYPE svg PUBLIC "-//W3C//DTD SVG 20010904//EN"
 "http://www.w3.org/TR/2001/REC-SVG-20010904/DTD/svg10.dtd">
<svg version="1.0" xmlns="http://www.w3.org/2000/svg"
 width="512.000000pt" height="512.000000pt" viewBox="0 0 512.000000 512.000000"
 preserveAspectRatio="xMidYMid meet">
<metadata>
Created by potrace 1.11, written by Peter Selinger 2001-2013
</metadata>
<g transform="translate(0.000000,512.000000) scale(0.100000,-0.100000)"
fill="#000000" stroke="none">
<path d="M4320 4128 c-74 -15 -90 -21 -145 -59 -22 -14 -520 -506 -1106 -1093
-587 -586 -1069 -1066 -1072 -1066 -3 0 -253 246 -554 548 -489 488 -623 617
-623 597 0 -3 -10 0 -22 7 -13 6 -27 13 -33 14 -5 2 -23 7 -40 11 -101 29
-248 -12 -337 -95 -43 -40 -98 -129 -102 -165 -1 -12 -5 -28 -9 -33 -3 -6 -5
-46 -3 -90 3 -81 26 -156 59 -194 9 -11 17 -22 17 -25 0 -6 1409 -1414 1438
-1437 12 -10 27 -18 32 -18 6 0 20 -5 33 -12 43 -22 52 -25 75 -23 12 1 22 -1
22 -5 0 -7 82 -4 125 5 17 3 46 13 65 22 19 10 38 17 41 18 7 0 57 35 73 52
287 291 1526 1527 1526 1523 0 -3 5 2 10 10 5 8 207 213 450 456 242 242 440
446 440 453 0 7 5 9 10 6 6 -3 10 1 10 9 0 9 5 16 12 16 6 0 9 3 5 6 -3 4 3
24 13 45 11 21 22 58 24 84 3 25 8 50 11 55 3 6 3 15 -1 22 -4 6 -9 29 -10 49
-4 46 -45 136 -79 173 -14 15 -25 31 -25 37 0 5 -4 9 -9 9 -5 0 -16 6 -23 13
-19 19 -120 67 -154 73 -53 10 -99 10 -144 2z"/>
<path d="M1903 3535 c-29 -7 -55 -10 -58 -7 -3 3 -5 0 -5 -6 0 -7 -3 -11 -7
-10 -20 6 -94 -43 -149 -97 -58 -58 -105 -136 -120 -201 -8 -39 -12 -176 -5
-189 3 -5 7 -19 8 -30 7 -40 60 -141 95 -177 19 -21 33 -40 30 -43 -3 -3 2 -5
12 -5 9 0 19 -7 22 -15 4 -8 10 -12 15 -9 5 3 9 1 9 -4 0 -15 111 -60 173 -70
57 -9 120 -7 167 5 14 3 30 7 37 9 14 3 104 46 118 57 49 38 135 136 139 159
1 7 5 19 10 26 24 39 52 232 33 232 -4 0 -6 4 -3 8 11 18 -40 154 -74 197 -29
38 -103 105 -121 110 -11 4 -19 11 -19 16 0 5 -8 9 -18 9 -10 0 -28 7 -40 16
-12 8 -26 13 -31 9 -5 -3 -12 -1 -16 4 -3 5 -13 10 -23 10 -9 0 -42 2 -72 4
-30 2 -79 -1 -107 -8z"/>
</g>
</svg>
