<svg xmlns="http://www.w3.org/2000/svg" xmlns:xlink="http://www.w3.org/1999/xlink" width="446.493" height="287.61" viewBox="0 0 446.493 287.61">
  <defs>
    <linearGradient id="linear-gradient" x1="0.5" y1="1" x2="0.5" gradientUnits="objectBoundingBox">
      <stop offset="0" stop-color="#c5cadd"/>
      <stop offset="1" stop-color="#e4eff1"/>
    </linearGradient>
  </defs>
  <g id="Groupe_3933" data-name="Groupe 3933" transform="translate(-44 -596.39)">
    <g id="connexion-28" transform="translate(-83.536 501.537)">
      <path id="Tracé_12189" data-name="Tracé 12189" d="M561.29,380.6s23.324-48.894,6.853-143.327c-10.36-59.4-34.932-130.21-92.814-120.239-52.916,4.559-107.835,10.142-163.8-13.4-68.338-22.961-176.971-5.827-155.787,111.052,14.989,82.7-52.846,83.634-18.232,165.917H561.29Z" opacity="0.5" fill="url(#linear-gradient)"/>
    </g>
    <g id="Groupe_3880" data-name="Groupe 3880" transform="translate(-677.13 -1222.777)">
      <g id="attribution-votes-34_2" data-name="attribution-votes-34 2" transform="translate(820.13 1896.14)">
        <path id="Tracé_11869" data-name="Tracé 11869" d="M324.884,272.47a.7.7,0,0,1,.731.651v.223a.7.7,0,0,1-.731.65" transform="translate(-160.797 -113.121)" fill="#0a0618"/>
        <g id="Groupe_3600" data-name="Groupe 3600" transform="translate(0 0)">
          <path id="Tracé_11870" data-name="Tracé 11870" d="M427.468,268.63V103.139a8.652,8.652,0,0,0-8.653-8.652h-5.845v182.8h5.845A8.653,8.653,0,0,0,427.468,268.63Z" transform="translate(-170.019 -94.487)" fill="#32329e"/>
          <path id="Tracé_11871" data-name="Tracé 11871" d="M384.559,277.283h-234.3a8.653,8.653,0,0,1-8.652-8.653V103.139a8.652,8.652,0,0,1,8.652-8.652h234.3a8.652,8.652,0,0,1,8.651,8.652V268.63A8.651,8.651,0,0,1,384.559,277.283Z" transform="translate(-141.609 -94.487)" fill="#2d43b2"/>
          <rect id="Rectangle_717" data-name="Rectangle 717" width="234.297" height="146.758" transform="translate(8.652 8.652)" fill="#e6e6e6"/>
          <path id="Tracé_11872" data-name="Tracé 11872" d="M357.024,186.79c-23.848-57.508-103.778-67.778-131.563-15.366-19.955,37.642-45.158,13.1-74.188,34.765v48.193h234.3V222.127A78.978,78.978,0,0,1,357.024,186.79Z" transform="translate(-142.621 -98.972)" fill="#f4f4f4"/>
          <circle id="Ellipse_221" data-name="Ellipse 221" cx="5.849" cy="5.849" r="5.849" transform="translate(119.952 162.798)" fill="#fff"/>
          <g id="Groupe_3599" data-name="Groupe 3599" transform="translate(9.158 171.991)">
            <circle id="Ellipse_222" data-name="Ellipse 222" cx="1.921" cy="1.921" r="1.921" transform="translate(0 0.001)" fill="#00b48b"/>
            <circle id="Ellipse_223" data-name="Ellipse 223" cx="1.922" cy="1.922" r="1.922" transform="translate(7.778)" fill="#00b48b"/>
            <circle id="Ellipse_224" data-name="Ellipse 224" cx="1.921" cy="1.921" r="1.921" transform="translate(15.557 0.001)" fill="#00b48b"/>
          </g>
        </g>
        <path id="Tracé_11873" data-name="Tracé 11873" d="M320.2,316H303.972V298.659H248.518V316H200.395v7.133h146.34V316Z" transform="translate(-147.764 -115.863)" fill="#2d43b2"/>
        <g id="Groupe_3605" data-name="Groupe 3605" transform="translate(83.8 24.215)">
          <path id="Tracé_11874" data-name="Tracé 11874" d="M353,186.512h-1.712V68.977L353,72.513Z" transform="translate(-263.665 -68.977)" fill="#c2bdc1"/>
          <rect id="Rectangle_718" data-name="Rectangle 718" width="87.623" height="117.535" fill="#fefefe"/>
          <g id="Groupe_3601" data-name="Groupe 3601" transform="translate(11.277 38.328)">
            <line id="Ligne_750" data-name="Ligne 750" x2="60.244" fill="none" stroke="#32329e" stroke-linecap="round" stroke-linejoin="round" stroke-miterlimit="10" stroke-width="0.882"/>
            <line id="Ligne_751" data-name="Ligne 751" x2="60.244" transform="translate(0 5.38)" fill="none" stroke="#32329e" stroke-linecap="round" stroke-linejoin="round" stroke-miterlimit="10" stroke-width="0.882"/>
            <line id="Ligne_752" data-name="Ligne 752" x2="60.244" transform="translate(0 10.76)" fill="none" stroke="#32329e" stroke-linecap="round" stroke-linejoin="round" stroke-miterlimit="10" stroke-width="0.882"/>
            <line id="Ligne_753" data-name="Ligne 753" x2="60.244" transform="translate(0 16.138)" fill="none" stroke="#32329e" stroke-linecap="round" stroke-linejoin="round" stroke-miterlimit="10" stroke-width="0.882"/>
            <line id="Ligne_754" data-name="Ligne 754" x2="35.321" transform="translate(0 21.518)" fill="none" stroke="#32329e" stroke-linecap="round" stroke-linejoin="round" stroke-miterlimit="10" stroke-width="0.882"/>
          </g>
          <g id="Groupe_3602" data-name="Groupe 3602" transform="translate(11.277 10.329)">
            <line id="Ligne_755" data-name="Ligne 755" x2="60.244" fill="none" stroke="#32329e" stroke-linecap="round" stroke-linejoin="round" stroke-miterlimit="10" stroke-width="0.882"/>
            <line id="Ligne_756" data-name="Ligne 756" x2="60.244" transform="translate(0 5.381)" fill="none" stroke="#32329e" stroke-linecap="round" stroke-linejoin="round" stroke-miterlimit="10" stroke-width="0.882"/>
            <line id="Ligne_757" data-name="Ligne 757" x2="60.244" transform="translate(0 10.761)" fill="none" stroke="#32329e" stroke-linecap="round" stroke-linejoin="round" stroke-miterlimit="10" stroke-width="0.882"/>
            <line id="Ligne_758" data-name="Ligne 758" x2="60.244" transform="translate(0 16.139)" fill="none" stroke="#32329e" stroke-linecap="round" stroke-linejoin="round" stroke-miterlimit="10" stroke-width="0.882"/>
            <line id="Ligne_759" data-name="Ligne 759" x2="35.321" transform="translate(0 21.518)" fill="none" stroke="#32329e" stroke-linecap="round" stroke-linejoin="round" stroke-miterlimit="10" stroke-width="0.882"/>
          </g>
          <g id="Groupe_3603" data-name="Groupe 3603" transform="translate(11.277 86.744)">
            <line id="Ligne_760" data-name="Ligne 760" x2="60.244" fill="none" stroke="#32329e" stroke-linecap="round" stroke-linejoin="round" stroke-miterlimit="10" stroke-width="0.882"/>
            <line id="Ligne_761" data-name="Ligne 761" x2="60.244" transform="translate(0 5.38)" fill="none" stroke="#32329e" stroke-linecap="round" stroke-linejoin="round" stroke-miterlimit="10" stroke-width="0.882"/>
            <line id="Ligne_762" data-name="Ligne 762" x2="24.5" transform="translate(0 10.759)" fill="none" stroke="#32329e" stroke-linecap="round" stroke-linejoin="round" stroke-miterlimit="10" stroke-width="0.882"/>
          </g>
          <g id="Groupe_3604" data-name="Groupe 3604" transform="translate(11.277 70.605)">
            <line id="Ligne_763" data-name="Ligne 763" x2="60.244" fill="none" stroke="#32329e" stroke-linecap="round" stroke-linejoin="round" stroke-miterlimit="10" stroke-width="0.882"/>
            <line id="Ligne_764" data-name="Ligne 764" x2="19.862" transform="translate(0 5.38)" fill="none" stroke="#32329e" stroke-linecap="round" stroke-linejoin="round" stroke-miterlimit="10" stroke-width="0.882"/>
          </g>
        </g>
      </g>
    </g>
    <line id="Ligne_772" data-name="Ligne 772" x2="424" transform="translate(53.5 882.5)" fill="none" stroke="#41363a" stroke-miterlimit="10" stroke-width="3"/>
    <g id="Groupe_3903" data-name="Groupe 3903" transform="translate(-1089.34 224.109)">
      <g id="Groupe_3779" data-name="Groupe 3779" transform="translate(1481.034 527.494) rotate(156)">
        <g id="Groupe_3778" data-name="Groupe 3778" transform="translate(0 0)">
          <path id="Tracé_12252" data-name="Tracé 12252" d="M0,3.108,1.7,4.746A10.125,10.125,0,0,0,4.973,11.44s1,.1.61-1.551L5.2,8.244a14.752,14.752,0,0,1,5.16,4.885C12.627,16.588,16.132,9.891,1.745,0Z" transform="translate(0 0)" fill="#f8c2a0"/>
        </g>
      </g>
      <g id="Groupe_3674" data-name="Groupe 3674" transform="translate(1478.132 468.745)">
        <path id="Tracé_12059" data-name="Tracé 12059" d="M2220.433,858.89a8.185,8.185,0,0,0-5.972-.585c-10.145-1.091-13.105,9.744-12.967,13.472s.6,7.732-3.929,12.576c-13.087,13.99,14.322,14.607,14.322,14.607.231-11.178,14.862-7.1,14.221-5.967C2244.863,897.115,2227.973,862.472,2220.433,858.89Z" transform="translate(-2177.505 -857.873)" fill="#c93500"/>
        <path id="Tracé_12061" data-name="Tracé 12061" d="M2156.387,1031.171a28.869,28.869,0,0,1-2.942,4.449c-2.286,2.862-5.809,6.169-10.233,6.821a10.982,10.982,0,0,1-6.08-.987h-.007c-5.373-2.385-9.413-7.871-9.413-7.871a4.416,4.416,0,0,1,.6-4.334s10.85,2.44,11.883,1.923,7.061-17.882,8.5-20.063,6.327-3.315,6.327-3.315Z" transform="translate(-2127.406 -974.197)" fill="#41363a"/>
        <path id="Tracé_12062" data-name="Tracé 12062" d="M2187.25,1112.347c-2.285,2.863-5.809,6.169-10.234,6.822a10.982,10.982,0,0,1-6.079-.987c.21.028,5.577.691,7.716-3.136,2.182-3.9,4.542-10.1,7.783-8.037C2187.834,1107.9,2187.772,1110.117,2187.25,1112.347Z" transform="translate(-2161.21 -1050.925)" fill="#362d30"/>
        <path id="Tracé_12063" data-name="Tracé 12063" d="M2396.585,1631.6s3.311,3.021,2.664,5.168-3.634,3.578-4.037,6.2-2.019,4.055-3.473,4.055h-6.929s-1.07-1.846,1.514-2.4,3.559-3.64,3.4-6.5a50.4,50.4,0,0,1,.241-6.679l5.491-1.273Z" transform="translate(-2327.125 -1457.507)" fill="#41363a"/>
        <path id="Tracé_12064" data-name="Tracé 12064" d="M2247.3,1642.314s1.192,12.8-.262,13.515l-18.6-.038s0-2.146,2.988-2.623,8.236-2.226,9.124-6.122S2247.3,1642.314,2247.3,1642.314Z" transform="translate(-2205.862 -1466.94)" fill="#41363a"/>
        <path id="Tracé_12065" data-name="Tracé 12065" d="M2263.407,1016.14c-3.827-8.585-6.169-11.048-5.722-13.713.333-1.983-1.013-36.973-1.013-36.973-.454-.141-1.364-.267-1.863-.377a4.67,4.67,0,0,1-3.41-2.966,23.8,23.8,0,0,1-1.158-7.895l-.49.1-8.244,1.633s.188,2.594.193,5.039c0,.02,0,.041,0,.061a4.742,4.742,0,0,1-3.422,4.585c-1.042.3-1.948.558-1.948.558a75.593,75.593,0,0,0-3.605,17.522c-.579,8.879,5.5,12.736-.046,30.479C2227.01,1032.312,2265.522,1020.884,2263.407,1016.14Z" transform="translate(-2208.713 -932.592)" fill="#f8c2a0"/>
        <path id="Tracé_12066" data-name="Tracé 12066" d="M2274.166,956.283s.188,2.594.193,5.039c4.614-.13,7.052-4.339,8.051-6.671Z" transform="translate(-2241.373 -932.929)" fill="#e6b899"/>
        <path id="Tracé_12067" data-name="Tracé 12067" d="M2254.636,908.3s10.916.18,10.924-6.619,1.421-11.355-5.548-11.758-8.325,2.191-8.879,4.46S2251.8,908.079,2254.636,908.3Z" transform="translate(-2223.385 -882.633)" fill="#f8c2a0"/>
        <path id="Tracé_12068" data-name="Tracé 12068" d="M0,1.382s2.988,7.977,7.575,9.157,6.576-.049,6.576-.049A12.989,12.989,0,0,1,9.9,2.816S2.254-2.415,0,1.382Z" transform="matrix(0.883, -0.469, 0.469, 0.883, 28.356, 6.644)" fill="#c93500"/>
        <path id="Tracé_12069" data-name="Tracé 12069" d="M2253.186,887.7a6.771,6.771,0,0,0-3.128,2.444,11,11,0,0,0-1.476,6.242s-2.251-5.422.279-8.489C2251.544,884.647,2253.186,887.7,2253.186,887.7Z" transform="translate(-2220.789 -879.929)" fill="#c93500"/>
        <path id="Tracé_12071" data-name="Tracé 12071" d="M2260.1,1019.987a74.173,74.173,0,0,1,0,8.6c-.185,3.109-3.329,7.273-3.775,8.3-1.119,2.583-2.382,3-2.382,3l-9.767,2.394-3.433.84-10.829-3.234s-4.933-13.767-2.952-21.517a59.578,59.578,0,0,1,5.007-13.132s8.837,8.653,20.343-.734Z" transform="translate(-2204.351 -971.646)" fill="#41363a"/>
        <path id="Tracé_12073" data-name="Tracé 12073" d="M2225.021,1172.213s-5.363,16.692-5.707,22.376,10.251,80.735,10.677,83.354c.4,2.468,3.468,4.042,3.468,4.042a4.635,4.635,0,0,0,3.421.263,8.458,8.458,0,0,0,3.674-1.732s4.174-53.527,1.591-72.648a302.89,302.89,0,0,1-2.613-35.655Z" transform="translate(-2198.771 -1101.879)" fill="#00a781"/>
        <path id="Tracé_12074" data-name="Tracé 12074" d="M2273.74,1169.985s8.18,10.976,8.943,18.4,1.2,33.482,2.821,40.716,7.595,21.153,7.595,43.713a4.5,4.5,0,0,1-2.537,1.982,20.943,20.943,0,0,1-2.23.617,3.507,3.507,0,0,1-3.923-1.862c-4.036-8.126-16.891-34.334-17.55-39.774-.467-3.85-4.526-29.33-13.38-44.281-2.126-3.589,1.3-17.864,1.3-17.864Z" transform="translate(-2224.769 -1100.149)" fill="#00b48b"/>
        <path id="Tracé_12076" data-name="Tracé 12076" d="M2239.992,1160.68a11.244,11.244,0,0,0,6.43,1.789c5.109.1,17.768-1.3,17.768-1.3a10.477,10.477,0,0,1,.54,3.231s-15.46,3.9-24.418.569A5.667,5.667,0,0,1,2239.992,1160.68Z" transform="translate(-2214.6 -1092.923)" fill="#362d30"/>
        <g id="Groupe_3673" data-name="Groupe 3673" transform="translate(28.266 68.672)">
          <path id="Tracé_12077" data-name="Tracé 12077" d="M2256.239,1170.051a2.659,2.659,0,1,1,2.331-2.638A2.5,2.5,0,0,1,2256.239,1170.051Zm0-4.5a1.9,1.9,0,1,0,1.558,1.866A1.735,1.735,0,0,0,2256.239,1165.547Z" transform="translate(-2253.907 -1164.774)" fill="#fff"/>
        </g>
        <path id="Tracé_12133" data-name="Tracé 12133" d="M0,0H21V28.75H0Z" transform="translate(31.536 62.887) rotate(-41.047)" fill="#2d43b2"/>
        <path id="Tracé_12078" data-name="Tracé 12078" d="M2315.308,1174.42s-7.872.92-7.848,2.789,1.962,5.707,2.934,5.878,6.406-5.191,6.406-5.191Z" transform="translate(-2268.456 -1104.732)" fill="#f8c2a0"/>
        <path id="Tracé_12079" data-name="Tracé 12079" d="M2329.818,1004.509s7.749.544,10.719,7.764,8.606,19.343,8.606,21.382-3.148,8.326-20.054,11.941c0,0-2.219-2.543-2.113-4,0,0,11.023-8.361,11-9.42-.053-2-1.729-4.649-11-13.918C2324.457,1015.74,2329.818,1004.509,2329.818,1004.509Z" transform="translate(-2281.86 -971.647)" fill="#41363a"/>
      </g>
    </g>
    <g id="Groupe_3905" data-name="Groupe 3905" transform="translate(78.454 704.82)">
      <path id="Tracé_11875" data-name="Tracé 11875" d="M91.376,255.742c.233-3.058.69-7.944,1.006-11.267l29.753-.124c.745,3.665,6.454,28.911,8.242,37.844a28.666,28.666,0,0,1,.818,7.266c-.244,4.147-1.876,8.368-3.023,12.339-1.019,3.538-2.066,7.07-3.1,10.6-1.025,3.492-2.138,7-3.11,10.546H112.2c1.927-7.645,7.9-31.683,7.086-35.061-.919-3.82-12-27.613-12-27.613s-3.152,32.687-3.3,36.287c-.089,2.379-.084,16.339-.026,26.387H93.876c.173-12.057.152-31.462.152-33.513C94.028,286.463,91,260.735,91.376,255.742Z" transform="translate(-68.991 -163.915)" fill="#2d43b2"/>
      <path id="Tracé_11876" data-name="Tracé 11876" d="M108.49,313.732h9.725c-.282,1.2-.542,2.395-.765,3.6a6.933,6.933,0,0,0-.294,2.2.982.982,0,0,0,.113.321c1.2,2.09,12,5.044,12.638,6.986s-21.867,1.872-23.145.939c-.711-.523-.211-4.368.5-8.207C107.665,317.433,108.128,315.3,108.49,313.732Z" transform="translate(-66.204 -151.085)" fill="#41363a"/>
      <path id="Tracé_11877" data-name="Tracé 11877" d="M93.227,319.633a28.829,28.829,0,0,0,.383-3.871c.021-.675.037-1.353.051-2.03h10.174c.024,2.634.049,4.727.075,5.861.008.3.015.539.024.7.091,1.989.627,4.007.429,6.005a2.335,2.335,0,0,1-1.139,1.937,3.032,3.032,0,0,1-1.148.21c-1.662.087-3.326.173-4.992.193-.829.012-1.662.007-2.493-.024-.508-.018-1.852.154-2.172-.335a1.347,1.347,0,0,1-.162-.539,17.436,17.436,0,0,1,.566-6.006C92.976,321.022,93.112,320.326,93.227,319.633Z" transform="translate(-68.839 -151.085)" fill="#41363a"/>
      <path id="Tracé_11878" data-name="Tracé 11878" d="M117.174,318.536a1.057,1.057,0,0,0,.114.327c1.234,2.141,12.3,5.169,12.951,7.158s-22.4,1.916-23.714.961c-.728-.534-.218-4.473.517-8.408Z" transform="translate(-66.249 -150.196)" fill="#41363a"/>
      <path id="Tracé_11879" data-name="Tracé 11879" d="M92.981,318.492l11.318-.04c.008.322.015.571.025.737.1,2.109.666,4.246.455,6.363a2.466,2.466,0,0,1-1.206,2.051,3.288,3.288,0,0,1-1.217.223c-1.76.091-3.522.181-5.286.205-.879.012-1.76.007-2.641-.025-.536-.02-1.962.166-2.3-.356a1.435,1.435,0,0,1-.171-.571,18.494,18.494,0,0,1,.6-6.362C92.718,319.965,92.861,319.228,92.981,318.492Z" transform="translate(-68.895 -150.212)" fill="#41363a"/>
      <g id="Groupe_3606" data-name="Groupe 3606" transform="translate(0 28.992)">
        <path id="Tracé_11880" data-name="Tracé 11880" d="M72.491,228.771c.289,1.2,5.695,7.767,10.437,13.358.967,1.141,1.907,2.242,2.77,3.247a58.6,58.6,0,0,0,5.609-3.253c.2-.129.379-.259.552-.379-.69-1-1.45-2.1-2.208-3.21a87.645,87.645,0,0,1-5.018-7.8.761.761,0,0,1-.076-.258c0-1.027,9.334-9.082,9.553-9.271a0,0,0,0,1,0,0c1.9,4.409,2.141,25.866,2.141,25.866l-.006,0a8.293,8.293,0,0,1-1.513-1.045h0l-4.658,4.416a10.48,10.48,0,0,0,2.249,2.581,20.9,20.9,0,0,0,3.459.788s-.1,1.136-.257,2.9c0,0,13.148,2.946,25.347-.16-1.083-4.3-5.359-9.164-5.659-11.182-.517-3.493-1.079-26.7-1.079-26.7H126.59l.006,0c.154-5.017.207-9.662-.077-10.632-.508-1.734-.574-5.1-9.346-6.479-.935-.146-1.969-.271-3.115-.367-1.529-.132-3.251-.213-5.2-.237-1.424-.019-12.189-.293-15.649,2.5S71.974,226.61,72.491,228.771Z" transform="translate(-72.48 -200.936)" fill="#00b48b"/>
      </g>
      <path id="Tracé_11881" data-name="Tracé 11881" d="M83.635,239.007c2.514,2.93,4.377,5.06,4.377,5.06l4.658-4.416a.25.25,0,0,1-.059-.114c-.006-.1-1.225-1.862-2.814-4.163-.173.121-.357.25-.552.379A58.107,58.107,0,0,1,83.635,239.007Z" transform="translate(-70.417 -165.575)" fill="#945a30"/>
      <path id="Tracé_11882" data-name="Tracé 11882" d="M118.488,252.746l-7.059-27.167-3.212-8.731s-1.493,7.275-1.405,8.648a9.86,9.86,0,0,1-1.6,4.7c-.777,1.289-.993,5.869.693,7.8s1.375,5.382,1.247,7.211a8.105,8.105,0,0,0,1.367,4.8c.865,1.5,1.991,4.467,2.923,4.339C113.291,254.088,118.488,252.746,118.488,252.746Z" transform="translate(-66.536 -169.001)" fill="#00a781"/>
      <path id="Tracé_11883" data-name="Tracé 11883" d="M119.9,251.089a18.736,18.736,0,0,1-5.171,2.215.7.7,0,0,0-.571.733c.123,2.078.81,3.893,1.566,4.289.835.44.4,1.229-.115,1.229h-.018a.707.707,0,0,0-.4,1.263c1.148.9,3.384,1.8,6.688-.575a.7.7,0,0,0,.174-.181l1.7-2.54a.72.72,0,0,0,.069-.661c-.422-1.063-1.712-4.214-2.313-4.8a6.861,6.861,0,0,1-.7-.79A.69.69,0,0,0,119.9,251.089Z" transform="translate(-64.773 -162.687)" fill="#945a30"/>
      <path id="Tracé_11884" data-name="Tracé 11884" d="M107.635,215.9s.562,23.206,1.077,26.7a21.119,21.119,0,0,0,.673,2.654,97.279,97.279,0,0,1,10.022-2.365,1.719,1.719,0,0,1,.777-.116c-.451-5.755-.842-11.865-.749-12.885.1-1.043.457-7.792.655-13.987l0,0H107.635Z" transform="translate(-65.979 -169.177)" fill="#00b48b"/>
      <path id="Tracé_11885" data-name="Tracé 11885" d="M109.112,241.06c.448,1.473,1.521,1.731,2.194,3.578,1.764,4.856,3.436,11.549,3.785,11.7.583.255.584.185,2.977-.48a5.6,5.6,0,0,0,3.321-2.332,79.161,79.161,0,0,1-2.539-10.842c-.141-1.576,1.2-2.286,1.062-4.1a1.7,1.7,0,0,0-.777.116A96.872,96.872,0,0,0,109.112,241.06Z" transform="translate(-65.706 -164.983)" fill="#945a30"/>
      <path id="Tracé_11886" data-name="Tracé 11886" d="M87.329,243.4a10.481,10.481,0,0,0,2.249,2.581,20.909,20.909,0,0,0,3.459.788l.469-6.735-.006,0-1.513-1.045h0Z" transform="translate(-69.734 -164.908)" fill="#945a30"/>
      <path id="Tracé_11887" data-name="Tracé 11887" d="M110.683,181.493a23.388,23.388,0,0,1,2.254,4.666c1.393,3.8,2.093,8.755-.93,11.975a5.764,5.764,0,0,1-2.381,1.5A108.909,108.909,0,0,0,110.683,181.493Z" transform="translate(-65.61 -175.539)" fill="#945a30"/>
      <path id="Tracé_11888" data-name="Tracé 11888" d="M82.848,221.978a14.912,14.912,0,0,1-4.682-3.833c-.045-.059-.09-.12-.136-.187l0,0c-.045-.065-.09-.135-.136-.206,0,0,0,0,0-.006-.046-.073-.092-.149-.136-.229,0,0,0,0,0,0-.045-.079-.091-.163-.137-.251h0a9.109,9.109,0,0,1-.519-1.219h0A11.327,11.327,0,0,1,79.235,205.1c4.4-5.513,12.635-7.9,14.128-11.086a68.447,68.447,0,0,0,2.94-8.3c.007-.01.007-.014.007-.014a12.976,12.976,0,0,1,1.129-3.044,11.721,11.721,0,0,1,3.35-4.1,11.417,11.417,0,0,1,13.678.384h0s.006.006.009.009c.14.109.275.224.408.339l.071.062c.124.111.25.225.37.34l.021.02c.123.119.244.242.364.366.025.027.053.056.079.083q.176.186.346.378c.236.275.463.553.673.842,0,.016.033,1.229.034,1.275.009.265,0-.148,0,.971h0c0,.2,0,.406,0,.625,0,.073,0,.149,0,.225,0,.373-.009.774-.02,1.2q0,.133-.007.27c-.011.344-.021.7-.034,1.074a.087.087,0,0,0,0,.019c-.007.182-.017.365-.025.552-.04.884-.1,1.828-.174,2.811-.017.2-.032.4-.051.606a.35.35,0,0,0,0,.049c-.02.2-.038.407-.057.611-.014.13-.026.261-.039.392-.021.2-.043.4-.066.607-.04.362-.083.725-.13,1.092-.025.2-.053.406-.081.61-.053.372-.108.744-.168,1.118-.031.2-.064.395-.1.592-.043.245-.085.491-.132.734a30.715,30.715,0,0,1-2.162,7.245c-.659,1.409-1.367,2.916-2.141,4.447-.281.556-.569,1.117-.867,1.676-.076.14-.152.28-.225.42-.228.419-.462.838-.7,1.253-.078.14-.16.279-.242.417-.161.277-.323.55-.489.826s-.334.546-.507.816c-3.426,5.408-7.9,10.012-14.069,10.356-.462.026-.914.04-1.354.044" transform="translate(-70.686 -176.468)" fill="#41363a"/>
      <path id="Tracé_11889" data-name="Tracé 11889" d="M108.171,241.724a12.15,12.15,0,0,0,1.943,4.515,2.211,2.211,0,0,0,.911-.047,72.089,72.089,0,0,0,9.495-2.443c1.787-.611,3.043-1.193,2.91-1.562-.36-1-1.711-3.467-3.343-3.607a1.7,1.7,0,0,0-.777.116,97.265,97.265,0,0,0-10.022,2.365C108.6,241.308,108.175,241.537,108.171,241.724Z" transform="translate(-65.88 -164.983)" fill="#00b48b"/>
      <path id="Tracé_11890" data-name="Tracé 11890" d="M80.4,237.241a9.161,9.161,0,0,0,2.3,2.928,1.718,1.718,0,0,0,.659-.218c.244-.108.545-.25.884-.421a58.6,58.6,0,0,0,5.609-3.253c.2-.129.379-.259.552-.379.88-.63,1.423-1.139,1.283-1.344-.457-.666-1.925-2.2-3.148-1.981a1.229,1.229,0,0,0-.342.115,1.054,1.054,0,0,0-.2.124s-4.428,2.126-6.519,3.471c-.134.084-.261.172-.376.25C80.633,236.851,80.363,237.1,80.4,237.241Z" transform="translate(-71.016 -166.097)" fill="#00b48b"/>
      <path id="Tracé_11891" data-name="Tracé 11891" d="M118.85,310.682l-.96,3.614h-9.725l.924-3.614Z" transform="translate(-65.88 -151.649)" fill="#945a30"/>
      <path id="Tracé_11892" data-name="Tracé 11892" d="M103.6,314.3l-.024-3.614H93.491l-.063,3.614Z" transform="translate(-68.606 -151.649)" fill="#945a30"/>
    </g>
  </g>
</svg>
