<svg xmlns="http://www.w3.org/2000/svg" xmlns:xlink="http://www.w3.org/1999/xlink" width="750.885" height="409.159" viewBox="0 0 750.885 409.159">
  <defs>
    <linearGradient id="linear-gradient" x1="0.5" y1="1" x2="0.5" gradientUnits="objectBoundingBox">
      <stop offset="0" stop-color="#c5cadd"/>
      <stop offset="1" stop-color="#e4eff1"/>
    </linearGradient>
  </defs>
  <g id="Groupe_3929" data-name="Groupe 3929" transform="translate(-997 -337.29)">
    <path id="Tracé_11811" data-name="Tracé 11811" d="M748.157,463.72s54.993-59.5,27.811-174.428C758.87,217,689.137,144.7,593.617,156.83c-88.431,11.234-86.508-11.059-163.875-54.086C264.247,10.711,21.571,54.791,78.868,261.8,106.592,361.978-8.344,363.583,48.779,463.72Z" transform="translate(964.371 280.229)" opacity="0.5" fill="url(#linear-gradient)"/>
    <g id="Groupe_3672" data-name="Groupe 3672" transform="translate(1209.551 443.409)">
      <path id="Tracé_12039" data-name="Tracé 12039" d="M505.777,1680.554s-.706-5.5-2.34-8.767S491.4,1670.6,491.4,1670.6s-2.08,1.783-2.526,10.1Z" transform="translate(-472.132 -1379.07)" fill="#2d43b2"/>
      <path id="Tracé_12040" data-name="Tracé 12040" d="M649.638,1665.883c-2.444-1.492-1.053-12.621-1.053-12.621s11.389-9.111,12.955-2.136,10.82,10.108,16.087,10.962c3.636.59,4.762,2.6,5.111,3.795h-33.1Z" transform="translate(-580.553 -1364.472)" fill="#2d43b2"/>
      <path id="Tracé_12041" data-name="Tracé 12041" d="M543.211,1268.575a52.522,52.522,0,0,1,.836,6.152c1.059,20.652,17.384,67.87,20.3,68.971,4.518,1.705,11.633-1.919,15.355-3.105a3.192,3.192,0,0,0,2.24-3.627c-8.085-37.166-11.056-90.684-12.137-122.369a143.744,143.744,0,0,0-3.286-26.984s-39.816-10.624-40.052,2.816C526.262,1202.321,539.661,1248.958,543.211,1268.575Z" transform="translate(-497.717 -1048.111)" fill="#362d30"/>
      <path id="Tracé_12042" data-name="Tracé 12042" d="M543.211,1268.575l26.6-53.977a143.743,143.743,0,0,0-3.286-26.984s-39.816-10.624-40.052,2.815C526.262,1202.321,539.661,1248.958,543.211,1268.575Z" transform="translate(-497.717 -1048.112)" fill="#362d30"/>
      <path id="Tracé_12043" data-name="Tracé 12043" d="M511.461,1194.727l-21.048,152.554s-9.244,2.229-16.433.446c0,0-6.162-81.135-5.649-100.75s-4.423-52.487,1.126-56.112S511.461,1194.727,511.461,1194.727Z" transform="translate(-457.108 -1052.362)" fill="#41363a"/>
      <path id="Tracé_12044" data-name="Tracé 12044" d="M462.267,998.209a2.922,2.922,0,0,0,2.108,3.018c2.936.852,6.321,1.445,12.85,2.8a124.641,124.641,0,0,0,24.519,2.464c16.123.1,22.228-5.454,22.228-5.454.694.013-.367-3.362-1.323-19.406-.324-5.435-.637-12.324-.862-21.031-.2-7.834-.341-17.142-.354-28.184-.017-13.282-20.576-27.573-20.956-27.573l0,.006c0,1.913-3.014,5.442-7.656,5.746-5.51.36-12.27-2.382-12.27-5.555,0-.032-9.961,15.934-13.5,32.948-.45,2.157-.8,4.432-1.074,6.826C465.133,952.029,465.944,946.881,462.267,998.209Z" transform="translate(-454.019 -858.386)" fill="#00b48b"/>
      <path id="Tracé_12045" data-name="Tracé 12045" d="M581.891,904.844s19.118-.162,23.719,6.291,14.689,41.165,9.424,52.716S599.919,959.073,594.452,952,581.891,904.844,581.891,904.844Z" transform="translate(-535.433 -858.388)" fill="#00b48b"/>
      <path id="Tracé_12046" data-name="Tracé 12046" d="M539.558,871.426l-.011,1.976s.538,6.181-7.072,7.083-13.277-1.136-13.07-5.905a69.164,69.164,0,0,0,1.389-10.559,21.513,21.513,0,0,0-.271-3.7l14.747-.295,4.343.71Z" transform="translate(-492.905 -827.888)" fill="#ffc891"/>
      <path id="Tracé_12047" data-name="Tracé 12047" d="M542.009,860.608l-.056,8.787a14.773,14.773,0,0,1-5.316.964,16.96,16.96,0,0,1-13.448-7.051,14.6,14.6,0,0,0-.271-3.042l14.747-.242Z" transform="translate(-495.3 -827.887)" fill="#fb7"/>
      <path id="Tracé_12048" data-name="Tracé 12048" d="M514.25,804.113c1.711,9.209,13.593,8.906,18.728,8.327,1.445-.161,2.354-.345,2.354-.345,1.63-.435,2.539-3,2.961-6.363a51.307,51.307,0,0,0,.244-8.136c-.168-4.549-.865-9.172-1.589-10.781-1.691-3.758-4.878-7.823-16.844-4.891S512.054,792.315,514.25,804.113Z" transform="translate(-487.761 -774.054)" fill="#ffc891"/>
      <path id="Tracé_12049" data-name="Tracé 12049" d="M636.512,985.824s4.221,16.329,4.1,21.224a8.71,8.71,0,0,0-4.1.923C633.212,1009.694,636.512,985.824,636.512,985.824Z" transform="translate(-574.607 -913.498)" fill="#00a781"/>
      <path id="Tracé_12050" data-name="Tracé 12050" d="M529.514,763.421a39.588,39.588,0,0,1-11.479-3.106c-5.042-2.192-11.4.222-13.469,1.31a3.072,3.072,0,0,1,.5-1.242,2.773,2.773,0,0,0-1.064,1.577c-.1.07-.138.119-.113.135a3.555,3.555,0,0,0-1.726.111s.472-.067.641.237a.28.28,0,0,0,.076.084c-7.865,3.8-8.592,16.231-6.061,19.107,3.045,3.46,7.556,11.16,7.556,11.16A11.926,11.926,0,0,0,504.3,788c-.554-3.045,2.076-3.045,5.4-4.429s.554-5.26,3.46-7.613,13.565-.969,13.427-2.768C530.539,771.748,529.514,763.826,529.514,763.421Z" transform="translate(-476.655 -759.425)" fill="#362d30"/>
      <path id="Tracé_12051" data-name="Tracé 12051" d="M511.838,1080.075c3.122,12.534,36.878,19.012,44.551,20.328-.324-5.435-.637-12.324-.862-21.031Z" transform="translate(-487.76 -977.161)" fill="#00a781"/>
      <path id="Tracé_12052" data-name="Tracé 12052" d="M506.493,1066.188c-.322,0-7.5-1.072-8.791-1.715s-7.17-9-3.317-11.149,14.2,6.432,14.2,6.432Z" transform="translate(-475.004 -959.2)" fill="#ffc891"/>
      <path id="Tracé_12053" data-name="Tracé 12053" d="M572.871,1070.134s-27.779,1.507-46.421-2.484a8.013,8.013,0,0,1,5.389-7.778s29.055-6.158,36.035-4.443S572.871,1070.134,572.871,1070.134Z" transform="translate(-497.698 -960.662)" fill="#00b48b"/>
      <path id="Tracé_12054" data-name="Tracé 12054" d="M447.845,946.478c5.765,6.951,13.3,12.626,21.61,13.956l0,0a15.489,15.489,0,0,0,2.056-9.277,18.566,18.566,0,0,0-3.025-8.516,18.878,18.878,0,0,1-1.634-3.293c-4.537-11.576-3.861-33.887-3.861-33.887s-19.266,2.018-25.27,10.594C434.046,921.3,438.735,935.488,447.845,946.478Z" transform="translate(-436.466 -858.806)" fill="#00b48b"/>
      <path id="Tracé_12055" data-name="Tracé 12055" d="M577.98,865.295c1.445-.161,2.354-.345,2.354-.345,1.63-.435,2.538-3,2.961-6.363a8.048,8.048,0,0,0-5.038,4.119A5.909,5.909,0,0,0,577.98,865.295Z" transform="translate(-532.763 -826.908)" fill="#fb7"/>
      <path id="Tracé_12056" data-name="Tracé 12056" d="M587.8,871.389s6.654-10.98,1.479-11.458a7.826,7.826,0,0,0-8,4.311c-.747,1.286.2,7.089.2,7.089Z" transform="translate(-534.82 -827.793)" fill="#ffc891"/>
      <path id="Tracé_12057" data-name="Tracé 12057" d="M522.856,940.11a14.329,14.329,0,0,0,1.134,3.813,18.257,18.257,0,0,0,4.237,5.836l0,0c17.281-7.8,20.778-34.586,21.363-49.3.236-5.915,0-9.882,0-9.882-7.8-2.582-9.987,1.9-9.987,1.9s-9.2,21.888-13.979,36.194C523.8,934.143,522.622,938.508,522.856,940.11Z" transform="translate(-495.238 -848.131)" fill="#00b48b"/>
      <path id="Tracé_12058" data-name="Tracé 12058" d="M472.086,958.559c5.765,6.951,13.3,12.626,21.61,13.956l0,0c17.281-7.8,20.778-34.586,21.363-49.3,0,0-8.178,29.658-19.307,40.025a12.14,12.14,0,0,1-6.3,3.443s-14.035-3.967-16.979-7.7A1.6,1.6,0,0,0,472.086,958.559Z" transform="translate(-460.707 -870.887)" fill="#00a781"/>
    </g>
    <g id="Groupe_3902" data-name="Groupe 3902">
      <g id="Groupe_3779" data-name="Groupe 3779" transform="translate(1488.919 554.598) rotate(156)">
        <g id="Groupe_3778" data-name="Groupe 3778" transform="translate(0 0)">
          <path id="Tracé_12252" data-name="Tracé 12252" d="M0,4.542,2.477,6.935a14.8,14.8,0,0,0,4.79,9.783s1.457.139.891-2.267l-.565-2.4a21.558,21.558,0,0,1,7.54,7.138C18.451,24.241,23.574,14.454,2.55,0Z" transform="translate(0 0)" fill="#f8c2a0"/>
        </g>
      </g>
      <g id="Groupe_3674" data-name="Groupe 3674" transform="translate(1469.479 468.745)">
        <path id="Tracé_12059" data-name="Tracé 12059" d="M2232.616,859.3a11.963,11.963,0,0,0-8.727-.855c-14.825-1.594-19.15,14.239-18.949,19.687s.88,11.3-5.741,18.377c-19.124,20.444,20.928,21.346,20.928,21.346.338-16.334,21.719-10.374,20.782-8.719C2268.316,915.161,2243.634,864.537,2232.616,859.3Z" transform="translate(-2154.685 -857.815)" fill="#c93500"/>
        <path id="Tracé_12061" data-name="Tracé 12061" d="M2169.756,1041.956a42.131,42.131,0,0,1-4.3,6.5c-3.34,4.183-8.489,9.015-14.954,9.968a16.047,16.047,0,0,1-8.884-1.442l-.01,0c-7.852-3.486-13.756-11.5-13.756-11.5a6.455,6.455,0,0,1,.881-6.334s15.855,3.566,17.365,2.811,10.319-26.131,12.415-29.319,9.246-4.845,9.246-4.845Z" transform="translate(-2112.207 -958.698)" fill="#41363a"/>
        <path id="Tracé_12062" data-name="Tracé 12062" d="M2194.776,1115c-3.34,4.183-8.489,9.015-14.954,9.969a16.051,16.051,0,0,1-8.884-1.442c.307.04,8.149,1.009,11.275-4.583,3.188-5.705,6.636-14.765,11.373-11.745C2195.629,1108.5,2195.538,1111.741,2194.776,1115Z" transform="translate(-2141.524 -1025.241)" fill="#362d30"/>
        <path id="Tracé_12063" data-name="Tracé 12063" d="M2402.118,1632.26s4.838,4.415,3.894,7.552-5.31,5.229-5.9,9.063-2.95,5.925-5.074,5.925h-10.126s-1.564-2.7,2.212-3.512,5.2-5.319,4.964-9.5a73.671,73.671,0,0,1,.353-9.76l8.024-1.859Z" transform="translate(-2285.415 -1377.854)" fill="#41363a"/>
        <path id="Tracé_12064" data-name="Tracé 12064" d="M2256,1642.314s1.741,18.7-.383,19.75l-27.182-.056s0-3.137,4.366-3.834,12.037-3.253,13.334-8.947S2256,1642.314,2256,1642.314Z" transform="translate(-2180.249 -1386.034)" fill="#41363a"/>
        <path id="Tracé_12065" data-name="Tracé 12065" d="M2277.846,1044.708c-5.594-12.545-9.016-16.145-8.363-20.039.486-2.9-1.48-54.031-1.48-54.031-.664-.206-1.994-.39-2.721-.551a6.826,6.826,0,0,1-4.984-4.335,34.79,34.79,0,0,1-1.691-11.537l-.717.141-12.048,2.386s.274,3.792.282,7.364c0,.03,0,.059,0,.089a6.93,6.93,0,0,1-5,6.7c-1.522.44-2.846.815-2.846.815a110.45,110.45,0,0,0-5.269,25.606c-.845,12.975,8.045,18.612-.067,44.541C2224.659,1068.339,2280.936,1051.64,2277.846,1044.708Z" transform="translate(-2182.721 -922.616)" fill="#f8c2a0"/>
        <path id="Tracé_12066" data-name="Tracé 12066" d="M2274.166,957.036s.274,3.792.282,7.363c6.742-.19,10.306-6.34,11.766-9.749Z" transform="translate(-2211.046 -922.908)" fill="#e6b899"/>
        <path id="Tracé_12067" data-name="Tracé 12067" d="M2256.313,916.8s15.952.263,15.963-9.673,2.077-16.594-8.107-17.182-12.167,3.2-12.976,6.517S2252.165,916.473,2256.313,916.8Z" transform="translate(-2195.446 -879.288)" fill="#f8c2a0"/>
        <path id="Tracé_12068" data-name="Tracé 12068" d="M0,2.019S4.367,13.676,11.07,15.4s9.61-.072,9.61-.072A18.982,18.982,0,0,1,14.471,4.114S3.294-3.529,0,2.019Z" transform="matrix(0.883, -0.469, 0.469, 0.883, 56.637, 9.708)" fill="#c93500"/>
        <path id="Tracé_12069" data-name="Tracé 12069" d="M2255.735,888.3s-3.238,1.211-4.572,3.573a16.066,16.066,0,0,0-2.156,9.122s-3.29-7.923.407-12.405C2253.336,883.838,2255.735,888.3,2255.735,888.3Z" transform="translate(-2193.194 -876.944)" fill="#c93500"/>
        <path id="Tracé_12071" data-name="Tracé 12071" d="M2275.6,1027.129a108.27,108.27,0,0,1,0,12.564c-.27,4.542-4.865,10.627-5.517,12.132-1.635,3.775-3.48,4.389-3.48,4.389l-14.272,3.5-5.018,1.228-15.825-4.727s-7.208-20.118-4.314-31.443a87.073,87.073,0,0,1,7.316-19.19s12.914,12.644,29.727-1.072Z" transform="translate(-2178.938 -956.487)" fill="#41363a"/>
        <path id="Tracé_12073" data-name="Tracé 12073" d="M2227.657,1172.213s-7.837,24.393-8.341,32.7,14.98,117.981,15.6,121.807c.588,3.607,5.066,5.907,5.066,5.907a6.777,6.777,0,0,0,5,.385c4.079-1.151,5.369-2.531,5.369-2.531s6.1-78.22,2.325-106.162a442.681,442.681,0,0,1-3.819-52.1h-21.2Z" transform="translate(-2174.099 -1069.432)" fill="#00a781"/>
        <path id="Tracé_12074" data-name="Tracé 12074" d="M2283.407,1169.985s11.954,16.039,13.069,26.882,1.748,48.928,4.123,59.5,11.1,30.911,11.1,63.88a6.576,6.576,0,0,1-3.707,2.9,30.681,30.681,0,0,1-3.26.9,5.124,5.124,0,0,1-5.731-2.72c-5.9-11.874-24.684-50.173-25.648-58.122-.681-5.626-6.613-42.861-19.552-64.71-3.106-5.245,1.906-26.105,1.906-26.105Z" transform="translate(-2196.646 -1067.932)" fill="#00b48b"/>
        <path id="Tracé_12076" data-name="Tracé 12076" d="M2240.133,1160.68s3.147,2.489,9.4,2.615c7.465.15,25.964-1.9,25.964-1.9a15.3,15.3,0,0,1,.789,4.721s-22.593,5.7-35.683.832A8.276,8.276,0,0,1,2240.133,1160.68Z" transform="translate(-2187.826 -1061.665)" fill="#362d30"/>
        <g id="Groupe_3673" data-name="Groupe 3673" transform="translate(56.505 100.352)">
          <path id="Tracé_12077" data-name="Tracé 12077" d="M2257.314,1172.485a3.885,3.885,0,1,1,3.407-3.855A3.656,3.656,0,0,1,2257.314,1172.485Zm0-6.582a2.771,2.771,0,1,0,2.278,2.726A2.535,2.535,0,0,0,2257.314,1165.9Z" transform="translate(-2253.908 -1164.774)" fill="#fff"/>
        </g>
        <path id="Tracé_12133" data-name="Tracé 12133" d="M0,0H30.692V42.013H0Z" transform="translate(61.283 91.899) rotate(-41.047)" fill="#2d43b2"/>
        <path id="Tracé_12078" data-name="Tracé 12078" d="M2318.928,1174.42s-11.5,1.345-11.468,4.076,2.867,8.34,4.288,8.589,9.362-7.586,9.362-7.586Z" transform="translate(-2235.262 -1072.583)" fill="#f8c2a0"/>
        <path id="Tracé_12079" data-name="Tracé 12079" d="M2331.44,1004.509s11.323.794,15.663,11.345,12.576,28.266,12.576,31.247-4.6,12.168-29.305,17.449c0,0-3.243-3.717-3.088-5.842,0,0,16.109-12.218,16.068-13.766-.079-2.928-2.528-6.794-16.068-20.338C2323.6,1020.921,2331.44,1004.509,2331.44,1004.509Z" transform="translate(-2246.159 -956.487)" fill="#41363a"/>
      </g>
    </g>
    <g id="Groupe_3678" data-name="Groupe 3678" transform="translate(1292.647 585.575)">
      <g id="Groupe_3675" data-name="Groupe 3675" transform="translate(34.161 77.084)">
        <path id="Tracé_12080" data-name="Tracé 12080" d="M1620.666,1533.366h-.116a1.226,1.226,0,0,1-1.225-1.253l1.857-80.492,5.47-.638-4.665,81.136A1.323,1.323,0,0,1,1620.666,1533.366Z" transform="translate(-1619.325 -1450.983)" fill="#c5d6db"/>
      </g>
      <g id="Groupe_3676" data-name="Groupe 3676" transform="translate(2.283 77.084)">
        <path id="Tracé_12081" data-name="Tracé 12081" d="M1522.911,1533.366h-.117a1.225,1.225,0,0,1-1.225-1.253l1.857-80.492,5.47-.638-4.665,81.136A1.323,1.323,0,0,1,1522.911,1533.366Z" transform="translate(-1521.569 -1450.983)" fill="#c5d6db"/>
      </g>
      <g id="Groupe_3677" data-name="Groupe 3677" transform="translate(85.605 77.084)">
        <path id="Tracé_12082" data-name="Tracé 12082" d="M1783.067,1533.366h.116a1.225,1.225,0,0,0,1.225-1.253l-1.857-80.492-5.47-.638,4.665,81.136A1.323,1.323,0,0,0,1783.067,1533.366Z" transform="translate(-1777.081 -1450.983)" fill="#c5d6db"/>
      </g>
      <path id="Tracé_12083" data-name="Tracé 12083" d="M1514.567,1287.329v-55.157a17.573,17.573,0,0,1,17.573-17.573h39.739a17.573,17.573,0,0,1,17.573,17.573v57.264Z" transform="translate(-1514.568 -1214.599)" fill="#c5d6db"/>
      <path id="Tracé_12084" data-name="Tracé 12084" d="M1596.572,1446.34h-76.728a5.276,5.276,0,0,1-5.277-5.276v-3.431h82.005Z" transform="translate(-1514.568 -1364.902)" fill="#c5d6db"/>
      <path id="Tracé_12085" data-name="Tracé 12085" d="M1666.214,1446.34h-58.048a3.9,3.9,0,0,1-3.9-3.9v-.9a3.9,3.9,0,0,1,3.9-3.9h58.048a3.9,3.9,0,0,1,3.9,3.9v.9A3.9,3.9,0,0,1,1666.214,1446.34Z" transform="translate(-1575.015 -1364.902)" fill="#c5d6db"/>
    </g>
    <g id="Groupe_3682" data-name="Groupe 3682" transform="translate(1287.396 504.789)">
      <path id="Tracé_12086" data-name="Tracé 12086" d="M1699.2,1392.131c-5.693,9.909-12.853,13.733-12.853,13.733h-29.789S1703.547,1384.573,1699.2,1392.131Z" transform="translate(-1605.007 -1252.359)" fill="#273b8b"/>
      <g id="Groupe_3679" data-name="Groupe 3679" transform="translate(0 0)">
        <path id="Tracé_12087" data-name="Tracé 12087" d="M1715.7,1579.515a2.754,2.754,0,0,0-.491,2.946.028.028,0,0,0,.007.015c.711,1.963,3.058,4.156,5.784,6.345.348.281.658.537.928.774.071.062.142.124.209.187s.108.1.16.145c2.543,2.344,1.585,2.881,6.153,7.636,5.208,5.419,8.795,5.517,9.814,5.023.863-.421-.89-3.295-2.833-6.526-.094-.155-.186-.313-.283-.47-.259-.429-.516-.865-.773-1.3-2.277-3.888-1.692-5.712-1.152-11.5.438-4.7,7.315-26.268,7.315-26.268l-9.981-1.719s-3.006,17.173-6.318,19.818c-1.771,1.409-3.754,1.427-5.455,2.472-.12.073-.239.147-.354.224A13.113,13.113,0,0,0,1715.7,1579.515Z" transform="translate(-1644.384 -1363.079)" fill="#ffb27d"/>
        <path id="Tracé_12088" data-name="Tracé 12088" d="M1715.7,1625.578a2.754,2.754,0,0,0-.491,2.946.027.027,0,0,0,.007.015c.87,1.961,3.158,4.142,5.794,6.325.345.286.648.549.919.794.071.062.142.124.209.187s.108.1.16.145c2.543,2.344,1.585,2.881,6.153,7.637,5.208,5.419,8.795,5.517,9.814,5.023.863-.421-.89-3.295-2.833-6.526a22.191,22.191,0,0,1-9.284-6.841c-3.136-4-5.228-9.144-7.363-12.123q-.181.109-.354.224A13.116,13.116,0,0,0,1715.7,1625.578Z" transform="translate(-1644.384 -1409.143)" fill="#41363a"/>
        <path id="Tracé_12089" data-name="Tracé 12089" d="M1947.476,1567c.616,3.081,5.008,2.567,9.914,1.368s3.741.226,10.723-.547,9.1-3.376,9.312-4.415c.191-.921-3.26-1.246-6.961-1.673-.465-.052-.932-.11-1.4-.167-4.178-.524-7.238-3.22-11.034-5.435-3.595-2.1-8.96-10.644-8.96-10.644l-9.577.759s5.026,7.633,6.969,10.951c1.143,1.952,1.082,4.533.94,6.526A12.3,12.3,0,0,0,1947.476,1567Z" transform="translate(-1795.675 -1356.802)" fill="#ffb27d"/>
        <path id="Tracé_12090" data-name="Tracé 12090" d="M1973.586,1601.946c4.907-1.2,3.741.227,10.724-.547s9.1-3.376,9.312-4.415c.191-.921-3.26-1.246-6.961-1.673l-.034.071a19.688,19.688,0,0,1-10,3.109c-4.738.115-9.756-1.243-13.027-1.189a12.3,12.3,0,0,0,.073,3.276C1964.287,1603.659,1968.679,1603.145,1973.586,1601.946Z" transform="translate(-1811.87 -1390.376)" fill="#41363a"/>
        <path id="Tracé_12091" data-name="Tracé 12091" d="M1783.533,1391.954l-8.952,24.09-11.688,31.454a18.943,18.943,0,0,1-6.209-.567,26.926,26.926,0,0,1-6.005-2.923s3.245-33.773,9.3-53.16c1.551-4.976,3.29-9,5.209-11.267C1774.573,1368.489,1783.533,1391.954,1783.533,1391.954Z" transform="translate(-1668.433 -1242.987)" fill="#273b8b"/>
        <path id="Tracé_12092" data-name="Tracé 12092" d="M1644.567,1296.415c-5.865-1.892-22.593.537-39.4,3.827l-3.518-5.8-36.3-2.834s-11.977,26.56-5.42,43.484a6.137,6.137,0,0,0,6.143,4.135s.528,0,.53,0,21.6-.012,28.617-.012c18.05,0,38.2-12.408,40.807-12.929,4.266-.853,10.24,16.64,10.24,16.64l40.106,39.68s5.509.055,7.784-.8a7.666,7.666,0,0,0,3.342-2.11S1657.794,1300.682,1644.567,1296.415Z" transform="translate(-1538.569 -1185.707)" fill="#2d43b2"/>
        <path id="Tracé_12093" data-name="Tracé 12093" d="M1560.395,969.908c-4.649-2.441-11.724-2.772-12.874-2.926-13.754-1.848-22.032,18.137-22.518,24.193-.9,11.162-6.8,12.864-15.114,19.854-16.665,14.016-11.778,30.3-2.665,36.355,5.467,3.631,15.1,0,15.1,0,.136.1,26.357-14.657,39.281-21.774C1580.986,1022.855,1572.243,976.129,1560.395,969.908Z" transform="translate(-1498.74 -966.861)" fill="#41363a"/>
        <path id="Tracé_12094" data-name="Tracé 12094" d="M1621.5,1086.443c.057.037-6.359,2.227-10.649.327-4.036-1.784-7.093-8.424-7.033-8.427,1.836-.085,3.852-1.69,5.4-12.222l.782.281,13.145,4.73s-.952,4.218-1.569,8.234C1621.057,1082.736,1620.778,1085.966,1621.5,1086.443Z" transform="translate(-1569.459 -1033.752)" fill="#ffb27d"/>
        <path id="Tracé_12095" data-name="Tracé 12095" d="M1635.929,1071.71s-.952,4.218-1.568,8.234c-7.55-1.359-10.513-8.881-11.576-12.963Z" transform="translate(-1582.244 -1034.332)" fill="#ed975d"/>
        <path id="Tracé_12096" data-name="Tracé 12096" d="M1635.166,1028.945s-17.985-2.414-16.309-13.591.483-19.016,12.037-17.947,13.14,5.667,13.488,9.534S1639.887,1029.285,1635.166,1028.945Z" transform="translate(-1579.523 -987.38)" fill="#ffb27d"/>
        <path id="Tracé_12097" data-name="Tracé 12097" d="M1633.062,998.774s-11.513,9.922-19.344,10.721-10.8-1.714-10.8-1.714a30.584,30.584,0,0,0,7.394-10.018,5.505,5.505,0,0,1,4.539-3.246C1620.447,994.035,1631.047,993.815,1633.062,998.774Z" transform="translate(-1568.859 -985.339)" fill="#41363a"/>
        <path id="Tracé_12098" data-name="Tracé 12098" d="M1673.278,1000.887s3.852,3.724,5.064,6.486c1.171,2.666,1.522,9.041.59,11.573,0,0,6-11.668,2.6-17.338C1677.933,995.6,1673.278,1000.887,1673.278,1000.887Z" transform="translate(-1616.272 -988.342)" fill="#41363a"/>
        <path id="Tracé_12099" data-name="Tracé 12099" d="M1604.742,1137.32c-.543,36.406-.149,28.8-4.131,32.253-.96.832-3.657,1.328-7.208,1.562-11.163.741-30.787-1.1-31.533-3.161-2.575-7.138-.757-9.356-2.906-20.284-.224-1.162-.5-2.42-.826-3.791-1.791-7.506-3.534-10.06,2.82-22.119,5.763-10.923,11.75-19.789,12.288-19.469,15.2,9.026,16.431,1.439,16.431,1.439S1605.009,1119.562,1604.742,1137.32Z" transform="translate(-1537.562 -1058.135)" fill="#fff"/>
        <path id="Tracé_12100" data-name="Tracé 12100" d="M1774.581,1445.482l-11.688,31.454a18.938,18.938,0,0,1-6.209-.567,26.922,26.922,0,0,1-6.005-2.923s3.245-33.773,9.3-53.16Z" transform="translate(-1668.433 -1272.426)" fill="#2d43b2"/>
        <path id="Tracé_12101" data-name="Tracé 12101" d="M1658.284,1106.734s15.645,2.653,17.481,9.388,12.648,46.334,12.648,46.334-7.953,1.429-11.627-2.245S1664,1126.124,1664,1126.124Z" transform="translate(-1606.168 -1061.122)" fill="#fff"/>
        <path id="Tracé_12102" data-name="Tracé 12102" d="M1598.539,1233.6c-11.163.741-30.787-1.1-31.533-3.161-2.575-7.138-.757-9.356-2.906-20.285l5.385-15.161s-.89,16.883,4.089,21.324,20.386,8.572,22.806,12.283A13.574,13.574,0,0,1,1598.539,1233.6Z" transform="translate(-1542.697 -1120.597)" fill="#f7f7f7"/>
        <path id="Tracé_12103" data-name="Tracé 12103" d="M1630.486,1288.284s12.326-2.745,14.315-1.65,6.85,5.077,7.458,6.464-4.428-1.052-6.066-1.491c-1.061-.285-3.853.686-5.236,1.146-5.818,1.939-9.382.942-9.382.942Z" transform="translate(-1587.435 -1183.006)" fill="#ffb27d"/>
        <path id="Tracé_12104" data-name="Tracé 12104" d="M1534.141,1102.3s-14.788.911-19.907,8.051c-7.206,10.051-21.5,52.885-13.309,58.6,9.227,6.434,41.991,1.683,41.991,1.683s1.091-5.1-.427-7.562-26.17-6.448-27.308-7.586,14.223-22.187,14.223-25.6S1534.141,1102.3,1534.141,1102.3Z" transform="translate(-1498.465 -1058.136)" fill="#fff"/>
        <path id="Tracé_12105" data-name="Tracé 12105" d="M1671.344,1296.482s2.583,3.332,3.429,3.729a2.527,2.527,0,0,0,1.393.3l-1.74-3.132Z" transform="translate(-1613.381 -1189.424)" fill="#ffb27d"/>
        <path id="Tracé_12106" data-name="Tracé 12106" d="M1669.709,1287.082l7.509,3.646a1.335,1.335,0,0,1-1.243.48,17.906,17.906,0,0,1-3.257-.895Z" transform="translate(-1612.343 -1183.455)" fill="#ffb27d"/>
      </g>
      <g id="Groupe_3681" data-name="Groupe 3681" transform="translate(43.052 75.68)">
        <g id="Groupe_3680" data-name="Groupe 3680">
          <path id="Tracé_12107" data-name="Tracé 12107" d="M1680.74,1238.64h53.071l15.965-39.7h-52.989Z" transform="translate(-1664.352 -1198.94)" fill="#00b48b"/>
          <path id="Tracé_12108" data-name="Tracé 12108" d="M1700.567,1315.939h-70.081v1.547h69.459Z" transform="translate(-1630.486 -1277.786)" fill="#00b48b"/>
        </g>
        <path id="Tracé_12109" data-name="Tracé 12109" d="M1791.748,1254.59a1.839,1.839,0,0,0-1.8-2.527,3.622,3.622,0,0,0-3.252,2.527,1.839,1.839,0,0,0,1.8,2.527A3.623,3.623,0,0,0,1791.748,1254.59Z" transform="translate(-1735.686 -1234.74)" fill="#fff"/>
      </g>
    </g>
    <g id="Groupe_3687" data-name="Groupe 3687" transform="translate(1106.888 497.261)">
      <path id="Tracé_12110" data-name="Tracé 12110" d="M919.988,1280.213h-.154a3.236,3.236,0,0,1-3.235-3.236v-68.3a3.236,3.236,0,0,1,3.235-3.235h.154a3.235,3.235,0,0,1,3.236,3.235v68.3A3.236,3.236,0,0,1,919.988,1280.213Z" transform="translate(-906.599 -1115.829)" fill="#c5d6db"/>
      <g id="Groupe_3683" data-name="Groupe 3683" transform="translate(12.068 162.149)">
        <path id="Tracé_12111" data-name="Tracé 12111" d="M924.816,1535.644h-.106a1.2,1.2,0,0,1-1.109-1.288l1.682-82.717,4.955-.656-4.226,83.379A1.276,1.276,0,0,1,924.816,1535.644Z" transform="translate(-923.601 -1450.983)" fill="#c5d6db"/>
      </g>
      <g id="Groupe_3684" data-name="Groupe 3684" transform="translate(87.55 162.149)">
        <path id="Tracé_12112" data-name="Tracé 12112" d="M1184.535,1535.644h.106a1.2,1.2,0,0,0,1.109-1.288l-1.682-82.717-4.956-.656,4.226,83.379A1.276,1.276,0,0,0,1184.535,1535.644Z" transform="translate(-1179.112 -1450.983)" fill="#c5d6db"/>
      </g>
      <path id="Tracé_12113" data-name="Tracé 12113" d="M999.218,1437.632H916.6v3.109a4.78,4.78,0,0,0,4.78,4.78h77.838a3.534,3.534,0,0,0,3.535-3.534v-.819A3.535,3.535,0,0,0,999.218,1437.632Z" transform="translate(-906.599 -1279.427)" fill="#c5d6db"/>
      <path id="Tracé_12114" data-name="Tracé 12114" d="M1335.656,1641.336s-1.333,16.559,1.632,16.779c.394.029,15.039.029,15.039.029l18.695-.108s-.123-4.5-5.587-5.456-16.281-5.551-19.591-12.773C1342.363,1632.208,1335.656,1641.336,1335.656,1641.336Z" transform="translate(-1201.897 -1411.333)" fill="#273b8b"/>
      <path id="Tracé_12115" data-name="Tracé 12115" d="M988.676,1348.357s.622,16.274,3.491,21.73h66.119s15.886,1.645,17.335,2.716c1.827,1.352-6.364,14.761,24.34,67.165l15.039-.384s-15.726-84.989-18.521-87.139c-4.18-3.218-53.094-14.416-61.467-14.661S988.676,1348.357,988.676,1348.357Z" transform="translate(-967.384 -1209.073)" fill="#00b48b"/>
      <path id="Tracé_12116" data-name="Tracé 12116" d="M1048.449,1014.383c4.659,2.885,4.921,8.633,4.921,8.633-11.362,2.939-27.895-9.675-27.895-9.675s7.314-4.914,10.023-15.713q.206-.817.372-1.675a34.088,34.088,0,0,0,.615-5.913l5.22,4.676,8.679,7.776a74.559,74.559,0,0,1-1.282,8.776Q1048.819,1012.721,1048.449,1014.383Z" transform="translate(-993.311 -964.059)" fill="#945a30"/>
      <path id="Tracé_12117" data-name="Tracé 12117" d="M1013.509,1113.055c-.388,2.535.4,4.575.775,6.461a7.27,7.27,0,0,1,.171,2.113c-.621,7.013,1.879,7.9,1.1,10.166a55.273,55.273,0,0,1-7.561,3.416c-2.127.8-4.676,1.666-7.61,2.476l-.464.126a111.721,111.721,0,0,1-26.671,3.635c-6.444-.172-7.744-16.506-5.354-37.079,3.724-32.05,8.759-47.589,22.03-58.817.836-.707.272,1.7,4.732,3.85A20.871,20.871,0,0,0,1007.6,1051l3.035,3.111c6.028,9.52,6.66,20.821,6.147,30.241A277.016,277.016,0,0,1,1013.509,1113.055Z" transform="translate(-951.953 -1003.084)" fill="#fff"/>
      <path id="Tracé_12118" data-name="Tracé 12118" d="M1074.792,1013.644s.462-.486-.624,5.064c-9.614-2.781-12.745-7.679-14.029-10.926-.365-.917,3.574-1.406,5.974-1.914Z" transform="translate(-1017.719 -975.211)" fill="#804f2b"/>
      <path id="Tracé_12119" data-name="Tracé 12119" d="M22.479,31.948S3.2,34.708,1.67,22.678-3.385,2.9,8.856.632s15.222,2.014,16.711,5.9S27.453,30.92,22.479,31.948Z" transform="translate(41.97 4.942) rotate(8)" fill="#945a30"/>
      <g id="Groupe_3685" data-name="Groupe 3685" transform="translate(91.955 87.129)">
        <rect id="Rectangle_829" data-name="Rectangle 829" width="1.486" height="38.921" transform="translate(40.806 37.59) rotate(-162.632)" fill="#fff"/>
        <rect id="Rectangle_830" data-name="Rectangle 830" width="40.843" height="2.443" transform="translate(40.839 37.589) rotate(-179.404)" fill="#fff"/>
      </g>
      <path id="Tracé_12120" data-name="Tracé 12120" d="M1.314,8.891C1.159,8.711.8,8.564,0,8.514A3.244,3.244,0,0,1,1.5,8.1c.176-1.112.784-3.079,2.7-3.543A2.4,2.4,0,0,0,3.026,6.285C5.264,4.022,8.531-.976,21.7.168,39.047,1.675,34.74,16.122,32.483,17.429s-7.887-2.37-12.078-2.071-5.034,6.344-6.461,7.163-.857-.645-2.772-1.528-2.124,2.3-1.584,4.375-2.124,4.786-2.124,4.786l-2.646-2.9C2.172,24.364-.248,12.169.986,9.584,1.095,9.355,1.2,9.124,1.314,8.891Z" transform="translate(37.351 -3.802) rotate(8)" fill="#151212"/>
      <path id="Tracé_12121" data-name="Tracé 12121" d="M1063.377,1220.445a55.362,55.362,0,0,1-7.561,3.416c-21.164-15.44-21.048-51.991-21.164-52.616l26.581,23.406.877,13.515a7.281,7.281,0,0,1,.171,2.113C1061.659,1217.291,1064.159,1218.182,1063.377,1220.445Z" transform="translate(-999.777 -1091.733)" fill="#f7f7f7"/>
      <g id="Groupe_3686" data-name="Groupe 3686" transform="translate(101.915 105.166)">
        <path id="Tracé_12122" data-name="Tracé 12122" d="M1261.591,1271.645a8.281,8.281,0,0,0,4.411-.715c2.265-1.063,10.079-4.419,11.546-3.96s6.259,3.165,7.387,3.678,3.123,3.151,3.123,3.151c-.828.835-3.738-1.081-5.038-1.044s-10.9,5.282-13.758,5.4a54.96,54.96,0,0,1-7.3-.471Z" transform="translate(-1261.591 -1266.644)" fill="#945a30"/>
        <path id="Tracé_12123" data-name="Tracé 12123" d="M1308.306,1280.6c.026.156,3.511,4.041,6.168,2.809l-2.911-2.875Z" transform="translate(-1290.901 -1275.181)" fill="#945a30"/>
        <path id="Tracé_12124" data-name="Tracé 12124" d="M1273.43,1270.454a50.133,50.133,0,0,0,4.162-4.286s.624.286.65.813a6.981,6.981,0,0,1-.818,2.5Z" transform="translate(-1269.019 -1266.168)" fill="#945a30"/>
      </g>
      <path id="Tracé_12125" data-name="Tracé 12125" d="M1049.867,1087.274c-13.623-8.3-29.7,6.2-22.942,20.646,7.839,16.752,20.889,37.184,31.258,38.391,7.391.86,28.513,3.568,37.459,1.9,0,0,4.334.213,1.984-6.766,0,0-28.9-8.056-33.706-14.3-2.573-3.349-6.958-10.128-13.736-39.672C1050.155,1087.348,1049.973,1087.338,1049.867,1087.274Z" transform="translate(-993.209 -1030.86)" fill="#fff"/>
    </g>
    <g id="Groupe_3691" data-name="Groupe 3691" transform="translate(1180.348 620.741)">
      <g id="Groupe_3688" data-name="Groupe 3688" transform="translate(375.917 10.491)">
        <path id="Tracé_12126" data-name="Tracé 12126" d="M2331.242,1468.422h.162a1.692,1.692,0,0,0,1.692-1.731l-2.565-111.2-7.557-.881,6.445,112.086A1.828,1.828,0,0,0,2331.242,1468.422Z" transform="translate(-2322.973 -1354.613)" fill="#41363a"/>
      </g>
      <g id="Groupe_3690" data-name="Groupe 3690" transform="translate(0 0)">
        <g id="Groupe_3689" data-name="Groupe 3689" transform="translate(10.774 10.491)">
          <path id="Tracé_12127" data-name="Tracé 12127" d="M1205.089,1468.422h-.161a1.692,1.692,0,0,1-1.692-1.731l2.566-111.2,7.557-.881-6.445,112.086A1.828,1.828,0,0,1,1205.089,1468.422Z" transform="translate(-1203.236 -1354.613)" fill="#41363a"/>
        </g>
        <path id="Tracé_12128" data-name="Tracé 12128" d="M1560.966,1335.859H1175.277a5.082,5.082,0,0,1-5.082-5.082v-3.254a5.083,5.083,0,0,1,5.082-5.083h385.689a5.083,5.083,0,0,1,5.082,5.083v3.254A5.082,5.082,0,0,1,1560.966,1335.859Z" transform="translate(-1170.195 -1322.441)" fill="#41363a"/>
      </g>
    </g>
    <g id="Groupe_3693" data-name="Groupe 3693" transform="translate(1444.798 581.042)">
      <g id="Groupe_3692" data-name="Groupe 3692" transform="translate(0 0)">
        <path id="Tracé_12129" data-name="Tracé 12129" d="M2050.185,1240.4h-53.072l-15.965-39.7h52.99Z" transform="translate(-1981.149 -1200.699)" fill="#273b8b"/>
        <path id="Tracé_12130" data-name="Tracé 12130" d="M2028.2,1317.7h70.081v1.547h-69.459Z" transform="translate(-2012.856 -1279.546)" fill="#273b8b"/>
      </g>
      <path id="Tracé_12131" data-name="Tracé 12131" d="M2070.977,1256.348a1.839,1.839,0,0,1,1.8-2.527,3.622,3.622,0,0,1,3.252,2.527,1.839,1.839,0,0,1-1.8,2.527A3.622,3.622,0,0,1,2070.977,1256.348Z" transform="translate(-2041.616 -1236.498)" fill="#fff"/>
    </g>
    <line id="Ligne_749" data-name="Ligne 749" x2="700.264" transform="translate(1013.15 744.949)" fill="none" stroke="#41363a" stroke-miterlimit="10" stroke-width="3"/>
  </g>
</svg>
