<svg xmlns="http://www.w3.org/2000/svg" xmlns:xlink="http://www.w3.org/1999/xlink" width="446.493" height="287.054" viewBox="0 0 446.493 287.054">
  <defs>
    <linearGradient id="linear-gradient" x1="0.5" y1="1" x2="0.5" gradientUnits="objectBoundingBox">
      <stop offset="0" stop-color="#c5cadd"/>
      <stop offset="1" stop-color="#e4eff1"/>
    </linearGradient>
  </defs>
  <g id="Groupe_3931" data-name="Groupe 3931" transform="translate(-42.083 -596.39)">
    <g id="connexion-28" transform="translate(-85.453 501.537)">
      <path id="Tracé_12189" data-name="Tracé 12189" d="M561.29,380.6s23.324-48.894,6.853-143.327c-10.36-59.4-34.932-130.21-92.814-120.239-52.916,4.559-107.835,10.142-163.8-13.4-68.338-22.961-176.971-5.827-155.787,111.052,14.989,82.7-52.846,83.634-18.232,165.917H561.29Z" opacity="0.5" fill="url(#linear-gradient)"/>
    </g>
    <line id="Ligne_772" data-name="Ligne 772" x2="424" transform="translate(51.5 881.943)" fill="none" stroke="#41363a" stroke-miterlimit="10" stroke-width="3"/>
    <g id="Groupe_3715" data-name="Groupe 3715" transform="translate(104.122 708.751)">
      <path id="Tracé_11935" data-name="Tracé 11935" d="M188.027,402.589s-23.466.469-24.156-.487c-.456-.634.39-4.188,1.012-6.509H176.35a7.534,7.534,0,0,0,3.514,2.324c2.317.567,7.512.118,7.915,1.892A8.167,8.167,0,0,1,188.027,402.589Z" transform="translate(-117.175 -229.185)" fill="#2d43b2"/>
      <path id="Tracé_11936" data-name="Tracé 11936" d="M176.524,395.283H165.056c.313-1.179.573-2.041.573-2.041l10.044.523a.439.439,0,0,0,0,.271A4.022,4.022,0,0,0,176.524,395.283Z" transform="translate(-117.137 -228.874)" fill="#f8c2a0"/>
      <path id="Tracé_11937" data-name="Tracé 11937" d="M176.524,395.283H165.056c.313-1.179.573-2.041.573-2.041l10.044.523a.439.439,0,0,0,0,.271A4.022,4.022,0,0,0,176.524,395.283Z" transform="translate(-117.137 -228.874)" fill="#fff"/>
      <path id="Tracé_11938" data-name="Tracé 11938" d="M148.5,401.912s-23.465.469-24.155-.487c-.457-.634.39-4.188,1.01-6.509h11.47a7.526,7.526,0,0,0,3.514,2.324c2.317.567,7.51.118,7.915,1.892A8.1,8.1,0,0,1,148.5,401.912Z" transform="translate(-109.487 -229.095)" fill="#2d43b2"/>
      <path id="Tracé_11939" data-name="Tracé 11939" d="M137,394.605h-11.47c.315-1.179.575-2.041.575-2.041l10.044.523a.439.439,0,0,0,0,.271A4.039,4.039,0,0,0,137,394.605Z" transform="translate(-109.54 -228.784)" fill="#fff"/>
      <path id="Tracé_11985" data-name="Tracé 11985" d="M147.575,224.862l1.083-2.441h9.375l.836,2.272Z" transform="translate(-113.774 -195.837)" fill="#fff"/>
      <path id="Tracé_11989" data-name="Tracé 11989" d="M119.55,231.634l0,.005c-.017.051-.036.064-.041.066v0l-5.5,2.481s-3.895-3.082-4.922-4.643-2.44-4.474-1.949-5.2,3.1,2.675,3.9,2.78a17.226,17.226,0,0,0,2.717-.106s-1.049-2.334-.535-2.654,5.607,3.743,6.076,5.478A3.922,3.922,0,0,1,119.55,231.634Z" transform="translate(-107.037 -198.005)" fill="#ffbb8b"/>
      <path id="Tracé_11986" data-name="Tracé 11986" d="M171.982,293.41c-.1.155-.115,29.837,0,33.146s-.685,21-.973,23.736-2.151,29.118-2.793,29.674c-.475.411-.752.354-.829.5l-9.585-.5a2.869,2.869,0,0,1-1.027-1.286,169.552,169.552,0,0,1-.668-17.63c.212-5.393,1.666-14.893,1.239-19.429s-2.141-28.073-3-30.414c-2.8,7.646-8.561,22.825-10.044,29.329s-1.6,15.922-2.909,20.486-5.078,18.687-5.876,18.858a1.1,1.1,0,0,0-.633.312H124.762c-.115-.513-1.512-.8-1.314-1.625s2.427-11.326,3.166-14.921,5.137-28.246,5.708-32.582,6.875-41.826,6.875-43.025c0-.04,0-.083,0-.133Z" transform="translate(-109.752 -215.575)" fill="#41363a"/>
      <path id="Tracé_11987" data-name="Tracé 11987" d="M121.407,232.832l.041-.066C121.431,232.816,121.412,232.83,121.407,232.832Z" transform="translate(-108.588 -197.726)" fill="#f8c2a0"/>
      <path id="Tracé_12003" data-name="Tracé 12003" d="M209.979,228.941l-4.99-2c.037-.054.063-.087.063-.087a4.174,4.174,0,0,1,.4-1.876c.126-.166.6-.667,1.2-1.289,1.305-1.372,3.2-3.335,3.38-3.615.219-.37,1.322-.314,1.288.43a.559.559,0,0,1-.044.134c-.274.671-.729,1.383-.846,1.844v.009a.575.575,0,0,0-.022.227c.012.149.115.251.343.266.829.062,3.121.029,3.841-.447.017-.008.032-.024.056-.039.444-.351.844-1.971,1.43-2.807a.626.626,0,0,1,.649-.213c1.1.314-.493,5.7-1.915,6.228s-4.632,2.471-4.814,2.982a.329.329,0,0,0-.022.13v.042C209.972,228.886,209.979,228.911,209.979,228.941Z" transform="translate(-124.311 -190.322)" fill="#ffbb8b"/>
      <path id="Tracé_11988" data-name="Tracé 11988" d="M194.577,237.677l-.073.178c-.02.051-.046.113-.076.185-.014.035-.03.072-.048.108-.107.26-.261.622-.451,1.067-.03.067-.061.136-.091.21-.009.02-.022.044-.03.068-1.695,3.887-5.922,12.966-10,16.878a5.415,5.415,0,0,1-3.493,1.849c-5.964-.029-11.754-5.591-11.754-5.591s.686,12.873.964,15.7,2.312,8.465,1.191,10.1h0s-20.529,1.251-34.211,0a102.384,102.384,0,0,1,2.269-12.514c-.215-2.354-2.269-18.66-2.269-18.66s-8.557,14.937-14.209,14.937-7.1-13.31-7.231-16.648c-.1-2.633-.046-8.143-.016-10.354.009-.589.016-.945.016-.945l5.5-2.481a.918.918,0,0,1,.6.235.932.932,0,0,1,.305.566c.078.524.19,1.278.331,2.155.581,3.64,1.627,9.38,2.426,9.438,1.166.089,6.276-18.087,13.693-18.972a108.018,108.018,0,0,1,15.72-.456s8.59.087,11.156,1.94,13.4,19.13,14.636,19.13c1.056,0,7.421-8.428,9.312-10.968.305-.407.491-.662.527-.708a.009.009,0,0,0,0,0s0,0,0,0l4.688,1.973a1.671,1.671,0,0,1,.317.242,1.149,1.149,0,0,1,.3,1.351Z" transform="translate(-108.652 -198.414)" fill="#fff"/>
      <g id="Groupe_3629" data-name="Groupe 3629" transform="translate(30.332 0)">
        <g id="Groupe_3627" data-name="Groupe 3627" transform="translate(0.104 5.017)">
          <path id="Tracé_11995" data-name="Tracé 11995" d="M158.3,217.439v5.382c-.244.574-1.093.83-2.2.87-.122,0-.247,0-.378,0h0c-3.089-.017-7.712-1.495-7.175-2.457a2.374,2.374,0,0,0,.137-.29c.678-1.707,1.134-6.544,1.158-6.583Z" transform="translate(-144.245 -198.849)" fill="#f8c2a0"/>
          <path id="Tracé_11996" data-name="Tracé 11996" d="M147.592,208.631a11.489,11.489,0,0,0,.607,2.576c.265.545.528,1.089.83,1.614a8.28,8.28,0,0,0,6.624,4.486,5.4,5.4,0,0,0,3.637-.639,6.623,6.623,0,0,0,2.461-3.637,22.829,22.829,0,0,0,1-5.288,88.766,88.766,0,0,0,.539-8.916l-13.583-.658Z" transform="translate(-144.123 -196.709)" fill="#ffbb8b"/>
          <path id="Tracé_11997" data-name="Tracé 11997" d="M163.146,199.424a8.259,8.259,0,0,0-.451-1.993,8.659,8.659,0,0,0-.407-.944,8.085,8.085,0,0,1,.361,1.725c.1.988-1.021,1.392-1.789,1.6a7.466,7.466,0,0,1-3.546.161,15.576,15.576,0,0,1-2.9-1.16,12.2,12.2,0,0,0-2.69-.9,4.045,4.045,0,0,0-2.657.107,2.288,2.288,0,0,0-.857,1.621,27.6,27.6,0,0,0-.4,3.4c0,.044-.005.088-.009.13a2.885,2.885,0,0,0-1.168-.239,2.714,2.714,0,0,0-2.573,1.679A4.044,4.044,0,0,1,143.6,204a4.223,4.223,0,0,0,.4,1.044c.018.034.041.069.059.1s.041.064.061.1.039.064.061.095.041.064.062.093.051.073.08.109l.095.122c.032.036.061.073.091.107s.046.051.069.078l.089.093c.025.022.048.046.071.069.041.041.085.082.127.119.022.018.046.038.066.056.048.041.095.079.142.116l.068.051c.041.031.085.061.126.09.022.016.046.031.068.045.059.042.124.079.185.116l.02.01c.064.039.13.072.2.107l.064.032.156.071c.023.01.046.018.068.029.073.029.149.057.226.082,1.1.376,2.105.623,2.036.235a12.393,12.393,0,0,1,.018-2.918q.023-.379.054-.758a24.982,24.982,0,0,1,.347-2.644,2.3,2.3,0,0,1,.861-1.62,4.031,4.031,0,0,1,2.656-.106,12.168,12.168,0,0,1,2.688.9,15.484,15.484,0,0,0,2.905,1.16,7.445,7.445,0,0,0,3.546-.16C162.125,200.816,163.24,200.415,163.146,199.424Z" transform="translate(-143.595 -196.486)" fill="#020711" opacity="0.25"/>
          <ellipse id="Ellipse_231" data-name="Ellipse 231" cx="2.722" cy="2.49" rx="2.722" ry="2.49" transform="translate(0.825 7.412)" fill="#f8c2a0"/>
        </g>
        <g id="Groupe_3628" data-name="Groupe 3628">
          <path id="Tracé_11998" data-name="Tracé 11998" d="M163.13,198.659a8.262,8.262,0,0,0-.451-1.993,9.381,9.381,0,0,0-9.607-5.943c-3.256.193-7.428,1.72-8.66,5.034a19.549,19.549,0,0,0-.937,6.514,4.067,4.067,0,0,0,2.756,3.9c.122.045.244.084.363.121a13.008,13.008,0,0,0,.822,5.572,14.843,14.843,0,0,0,6.37,5.075c3.107,1.088,6.941-.68,7.355-1.13a1.3,1.3,0,0,0,.082-1.156h0s.034-3.849-.414-4.972a.009.009,0,0,0,0,0,2.7,2.7,0,0,0-.955-1.206,2.578,2.578,0,0,0-1.344-.351c-.154,0-.307,0-.456,0a3.812,3.812,0,0,0-1.417.27,2.622,2.622,0,0,0-1.056.88h0a6.194,6.194,0,0,0-1.5,3.955,6.321,6.321,0,0,1-2.675-1.639,10.153,10.153,0,0,1-1.812-3.639c-.363-.994-.673-2.013-.949-3.038a10.316,10.316,0,0,1-.279-1.428c-.018-.129-.03-.259-.044-.391a25.905,25.905,0,0,1,.373-3,2.3,2.3,0,0,1,.861-1.62,4.031,4.031,0,0,1,2.656-.106,12.164,12.164,0,0,1,2.688.9,15.483,15.483,0,0,0,2.905,1.16,7.446,7.446,0,0,0,3.546-.16C162.109,200.052,163.225,199.651,163.13,198.659Zm-7.761,12.665c.063-.531.181-1.638.863-1.666a33.922,33.922,0,0,1,3.77-.023c.188.014.371.023.446.2a1.715,1.715,0,0,1,.064.379,12.933,12.933,0,0,1,.194,1.692,1.73,1.73,0,0,1-.29,1.385,1.882,1.882,0,0,1-.779.425,5.565,5.565,0,0,1-2.111.2c-.076-.008-.149-.012-.222-.02-.329-.034-.653-.088-.976-.149-.194-.037-.929-.076-.948-.3C155.323,212.724,155.369,212.034,155.369,211.324Z" transform="translate(-143.475 -190.705)" fill="#c93500"/>
        </g>
      </g>
    </g>
    <path id="Tracé_12155" data-name="Tracé 12155" d="M228.831,151.454c.689-17.036-13.588-24.6-28.189-24.6s-30.488,3.785-31.863,26.435c-.886,14.573,6.884,23.541,29.25,23.541,7.547,0,13.408-1.191,17.9-3.312l11.183,9.936-5.5-13.733C226.483,165.189,228.535,158.8,228.831,151.454Z" transform="translate(-81.75 520.351)" fill="#fff"/>
    <g id="Groupe_3716" data-name="Groupe 3716" transform="translate(214.206 658.26)">
      <g id="Groupe_3624" data-name="Groupe 3624" transform="translate(83.688 208.286)">
        <path id="Tracé_11940" data-name="Tracé 11940" d="M275.549,399.36c.144,1.932,2.868,1.955,5.964,1.6s2.273.423,6.606.485,5.827-1.373,6.037-1.993c.189-.55-1.9-1.012-4.132-1.556-.282-.067-.565-.137-.845-.207-2.519-.642-4.185-2.525-6.339-4.17-2.04-1.558-4.671-7.2-4.671-7.2l-5.921-.267s2.494,5.056,3.429,7.236a7.162,7.162,0,0,1,.078,4.066A7.587,7.587,0,0,0,275.549,399.36Z" transform="translate(-272.249 -386.048)" fill="#945a30"/>
        <path id="Tracé_11941" data-name="Tracé 11941" d="M278.223,402.4c3.1-.359,2.273.423,6.606.485s5.827-1.373,6.037-1.993c.189-.55-1.9-1.012-4.132-1.556l-.027.042a12.152,12.152,0,0,1-6.357,1.138c-2.91-.29-5.879-1.5-7.884-1.722a7.585,7.585,0,0,0-.206,2.011C272.4,402.742,275.127,402.765,278.223,402.4Z" transform="translate(-268.958 -387.497)" fill="#41363a"/>
      </g>
      <path id="Tracé_11947" data-name="Tracé 11947" d="M332.282,378.58a1.94,1.94,0,0,1-1.757,2.529l-3.092.144-3.27.1a2.627,2.627,0,0,1-2.116-.968,91.87,91.87,0,0,1-15.517-29.379q-.2-.653-.436-1.319c-3.217-9.386-9.888-21.165-13.4-31.827-.561-1.7-1.063-3.3-1.513-4.811q-.218-.725-.421-1.428a113.069,113.069,0,0,1-4.032-21.229l25.39.2A558.989,558.989,0,0,0,332.282,378.58Z" transform="translate(-237.517 -166.893)" fill="#273b8b"/>
      <g id="Groupe_3625" data-name="Groupe 3625" transform="translate(48.834 204.727)">
        <path id="Tracé_11942" data-name="Tracé 11942" d="M318.388,399.3c.14,1.935,2.867,1.959,5.963,1.6s2.273.427,6.606.492,5.829-1.366,6.038-1.984c.189-.549-1.9-1.015-4.131-1.561-.282-.068-.563-.137-.845-.21-2.517-.642-4.183-2.53-6.333-4.175-2.041-1.562,0-10.8,0-10.8l-6.509-.635s.31,7.78.307,11.315a20.084,20.084,0,0,1-.883,3.948A7.485,7.485,0,0,0,318.388,399.3Z" transform="translate(-318.376 -382.033)" fill="#945a30"/>
        <path id="Tracé_11943" data-name="Tracé 11943" d="M324.35,402.862c3.1-.355,2.273.427,6.606.492s5.829-1.366,6.038-1.984c.189-.55-1.9-1.015-4.131-1.561l-.026.04a12.137,12.137,0,0,1-6.361,1.134c-2.908-.3-5.876-1.511-7.881-1.731a7.459,7.459,0,0,0-.209,2.009C318.528,403.2,321.255,403.22,324.35,402.862Z" transform="translate(-318.377 -383.99)" fill="#41363a"/>
      </g>
      <path id="Tracé_11944" data-name="Tracé 11944" d="M350.266,219.745c1.12-4.611-.505-6.757-1.97-7.9a6.987,6.987,0,0,0-2.3-3.38,8.293,8.293,0,0,0-4.494-.858,2.107,2.107,0,0,1,.948-.45,6.964,6.964,0,0,0-2.486.646c-10.7-4.122-12.382,11.632-12.157,15.293s0,14.329,0,14.329l-1.843,22.76c-.27-2.958,13.375-18.564,20.494-23.241,1.735-2.551,1.793-2.126,1.838-2.482-.3,3.575-.351.647-.9,1.776C350.643,233.252,351.125,226.079,350.266,219.745Z" transform="translate(-281.76 -147.703)" fill="#41363a"/>
      <path id="Tracé_11945" data-name="Tracé 11945" d="M332.915,239.679c.037.015-3.479,1.82-6.123,1.1-2.488-.668-4.113-3.856-4.08-3.862,1.053-.207,1.357-1.637,1.335-7.782l.476.092,8.009,1.567s-.184,2.49-.189,4.835C332.339,237.6,332.459,239.469,332.915,239.679Z" transform="translate(-269.327 -149.992)" fill="#945a30"/>
      <path id="Tracé_11946" data-name="Tracé 11946" d="M331.05,230.809s-.182,2.49-.187,4.835c-4.427-.126-6.766-4.164-7.725-6.4Z" transform="translate(-268.043 -149.812)" fill="#885129"/>
      <path id="Tracé_11948" data-name="Tracé 11948" d="M337.5,269.945c-.062,12.082,1.773,17.266,1.773,17.266a34.117,34.117,0,0,1-23.79,1.456c-.152-.047-3.549-19.96-3.226-21.761a38.358,38.358,0,0,0,.314-10.122,81.076,81.076,0,0,0-3.132-15.9,82.518,82.518,0,0,0,10.481-3.584c.843,1.049,3.419,2.147,5.654,2.1,2.574-.058,3.407-1.159,3.275-2.361,2.742,1.525,4.93,2.967,4.93,2.967,2.33,4.048,7.058,7.982,7.4,14.192C341.269,255.729,337.508,269.606,337.5,269.945Z" transform="translate(-265.442 -152.172)" fill="#fff"/>
      <path id="Tracé_11949" data-name="Tracé 11949" d="M342.456,272.992c-1.11,1.57-3.237,11.118-8.531,12.317,2.727-6.8,4.8-9.788,5.122-11.879a51.694,51.694,0,0,0,.314-11.759c1.773-3.106,3.1-5.235,3.1-5.235.14-.5,2.817-8.779,3.674-1.382S343.7,271.235,342.456,272.992Z" transform="translate(-291.944 -154.965)" fill="#6c88bf"/>
      <path id="Tracé_11950" data-name="Tracé 11950" d="M328.136,231.25s-10.473.171-10.484-6.352S316.29,214,322.978,213.616s7.988,2.1,8.521,4.279S330.86,231.037,328.136,231.25Z" transform="translate(-263.693 -147.47)" fill="#945a30"/>
      <path id="Tracé_11951" data-name="Tracé 11951" d="M336.123,213.328s-3,7.98-7.608,9.16-6.606-.05-6.606-.05a12.978,12.978,0,0,0,4.267-7.676S333.859,209.53,336.123,213.328Z" transform="translate(-271.824 -147.922)" fill="#41363a"/>
      <path id="Tracé_11952" data-name="Tracé 11952" d="M0,1.085S2.2,2.573,2.732,4.018s.776,4.419,1.8,4.319c0,0,2.216-4.524-.275-7.084C1.615-1.464,0,1.085,0,1.085Z" transform="matrix(0.848, -0.53, 0.53, 0.848, 59.85, 66.939)" fill="#41363a"/>
      <path id="Tracé_11953" data-name="Tracé 11953" d="M303.354,283.625l4.946,15.081-2.821,1.13-8.18-13.324Z" transform="translate(-223.818 -159.754)" fill="#945a30"/>
      <path id="Tracé_11954" data-name="Tracé 11954" d="M301.493,239.389s5.832,2.314,7.522,5.924,4.243,27.814,5.263,30.3,1.782,4.452,1.782,4.452-2.939,2.478-5.9,2.661S301.493,239.389,301.493,239.389Z" transform="translate(-234.876 -153.17)" fill="#00b48b"/>
      <path id="Tracé_11955" data-name="Tracé 11955" d="M302.375,237.043s6.059,14.97,6.237,18,.713,49.543.713,49.543-.356,2.138,3.741,1.245a51.657,51.657,0,0,0,6.8-1.926s-5.556-28.547-4.486-38.526-8.2-26.255-8.2-26.255Z" transform="translate(-240.262 -153.047)" fill="#00b48b"/>
      <path id="Tracé_11956" data-name="Tracé 11956" d="M345.649,346.572c.059,7.712-.314,24.9-1.271,33.307a1.538,1.538,0,0,1-1.541,1.351h-2.649c-1.117,0-1.953-.009-2.507-.017a1.013,1.013,0,0,1-.983-.807c-2.633-13.139-4.521-24.053-5.9-33.486-1.153-7.893-2.18-14.662-2.969-20.49-.794-5.862-1.348-10.771-1.544-14.92q-.046-.98-.067-1.905t-.009-1.808l21.936-2.1C347.866,319.987,345.612,341.833,345.649,346.572Z" transform="translate(-286.954 -167.098)" fill="#2d43b2"/>
      <path id="Tracé_11957" data-name="Tracé 11957" d="M345.391,303.729s-1.546,5.584-6.892,4.871-12.947-3.92-12.947-3.92,2.282-7.219,5.124-16.7c3.44-11.481,7.7-26.283,9.7-35.619a57.818,57.818,0,0,0,1.089-6.368l4.435-8.6s6.615,14.842,6.971,18.585S345.391,303.729,345.391,303.729Z" transform="translate(-290.87 -154.306)" fill="#00b48b"/>
      <path id="Tracé_11958" data-name="Tracé 11958" d="M326.064,255.414l5.854-18.027a90.454,90.454,0,0,0-11.105,4.07s-2.318,2.992-3.753,9.891c0,0-1.517,16.565,1.869,22.623,0,0,10.691,2.137,27.8-3.744v-3.92s-18.711.979-22.541,1.424Z" transform="translate(-277.306 -152.505)" fill="#945a30"/>
      <path id="Tracé_11959" data-name="Tracé 11959" d="M348.749,265.732c-.238,6.059-1.664,17.821-14.376,24.116-.033.017-.067.034-.1.048,3.44-11.481,7.7-26.283,9.7-35.619C346.31,257.766,348.878,262.4,348.749,265.732Z" transform="translate(-294.605 -155.489)" fill="#00a781"/>
      <path id="Tracé_11960" data-name="Tracé 11960" d="M348.488,237.387s-10.851.765-13.465,6.585-3.447,25.188-.12,30.891c0,0,4.579,1.3,12.681-.209l.3-.058s2.585-6.328.27-7.575c0,0-6.831.358-6.121-1.9S348.488,237.387,348.488,237.387Z" transform="translate(-293.587 -152.552)" fill="#00b48b"/>
      <path id="Tracé_11963" data-name="Tracé 11963" d="M294.485,300.174s4.519,2.5,5.113,4.4.185,5.885-.532,5.824-1.787-4.279-2.381-4.576-1.426-1.188-1.426-.535.594,1.842.3,2.021-1.248-1.663-1.9-2.021-.928-3.3-1.564-4.084S294.485,300.174,294.485,300.174Z" transform="translate(-211.168 -162.357)" fill="#945a30"/>
      <path id="Tracé_11964" data-name="Tracé 11964" d="M306.839,269.741s4.041-2.488,5.736-2.105,6.014,3.51,3.936,4.187-3.76-.032-4.56.46-1.388,1.391-5.113,1.378S306.839,269.741,306.839,269.741Z" transform="translate(-239.052 -155.947)" fill="#945a30"/>
      <path id="Tracé_12005" data-name="Tracé 12005" d="M57.593,24.99C58.253,7.686,44.574,0,30.588,0S1.381,3.842.065,26.848c-.85,14.8,6.594,23.91,28.021,23.91,7.228,0,12.844-1.207,17.146-3.363l10.713,10.09L50.68,43.535C55.344,38.939,57.308,32.456,57.593,24.99Z" transform="matrix(0.999, 0.052, -0.052, 0.999, 3.009, -9.781)" fill="#fff"/>
    </g>
    <g id="Groupe_3717" data-name="Groupe 3717" transform="translate(326.137 649.147)">
      <path id="Tracé_11965" data-name="Tracé 11965" d="M370.171,402.09c1.539-.937.663-7.946.663-7.946s-7.171-5.738-8.158-1.343-6.813,6.363-10.131,6.9c-2.288.37-3,1.637-3.216,2.388h20.84Z" transform="translate(-318.269 -169.571)" fill="#00b48b"/>
      <path id="Tracé_11966" data-name="Tracé 11966" d="M405.992,402.09c1.539-.937.663-7.946.663-7.946s-7.169-5.738-8.156-1.343-6.813,6.363-10.132,6.9c-2.288.37-3,1.637-3.216,2.388h20.84Z" transform="translate(-321.907 -169.571)" fill="#00b48b"/>
      <path id="Tracé_11967" data-name="Tracé 11967" d="M386.071,342.451a33.6,33.6,0,0,0-.527,3.872c-.668,13-10.948,42.738-12.784,43.431-2.847,1.073-7.327-1.209-9.669-1.956a2.013,2.013,0,0,1-1.412-2.282c5.09-23.4,6.961-57.1,7.643-77.055a90.391,90.391,0,0,1,2.07-16.991s25.07-6.69,25.22,1.773C396.744,300.73,388.307,330.1,386.071,342.451Z" transform="translate(-319.364 -160.9)" fill="#362d30"/>
      <path id="Tracé_11969" data-name="Tracé 11969" d="M382.241,293.388l13.253,96.062s5.821,1.4,10.346.282c0,0,3.882-51.09,3.559-63.442s2.785-33.05-.709-35.332S382.241,293.388,382.241,293.388Z" transform="translate(-321.112 -161.016)" fill="#41363a"/>
      <path id="Tracé_11970" data-name="Tracé 11970" d="M407.784,286.472a1.835,1.835,0,0,1-1.3,1.9c-1.806.537-3.888.909-7.9,1.762a74.881,74.881,0,0,1-15.078,1.551c-9.915.066-15.752-4.392-15.752-4.392-.428.007,1.9-10.954,1.9-10.954a118.367,118.367,0,0,0,1.531-13.551c.124-4.933.209-10.794.218-17.746.009-8.365,12.652-17.364,12.886-17.364l0,.005c0,1.2,1.854,3.427,4.708,3.618,3.39.226,7.546-1.5,7.546-3.5,0-.019,6.126,10.035,8.3,20.747C405.944,253.941,405.5,253.8,407.784,286.472Z" transform="translate(-318.536 -147.634)" fill="#2d43b2"/>
      <path id="Tracé_11971" data-name="Tracé 11971" d="M385.318,227.681s-14.024-.1-17.4,3.96-10.776,25.92-6.916,33.195,11.089-3.011,15.1-7.465S385.318,227.681,385.318,227.681Z" transform="translate(-318.431 -146.458)" fill="#2d43b2"/>
      <path id="Tracé_11972" data-name="Tracé 11972" d="M387.535,225.006l.007,1.244s-.34,3.892,4.454,4.461,8.349-.728,8.218-3.731a43.363,43.363,0,0,1-.865-6.637,13.9,13.9,0,0,1,.172-2.331l-9.285-.185-2.734.447Z" transform="translate(-321.559 -143.91)" fill="#f8c2a0"/>
      <path id="Tracé_11973" data-name="Tracé 11973" d="M387.5,218.275l.034,6.731a7.86,7.86,0,0,0,3.348.739c4.268,0,7.026-3.131,8.467-5.4a13.889,13.889,0,0,1,.172-2.331l-9.285-.185Z" transform="translate(-321.559 -143.733)" fill="#e6b899"/>
      <path id="Tracé_11974" data-name="Tracé 11974" d="M399.992,215.043c-1.076,5.8-8.56,5.608-11.793,5.245-.91-.1-1.482-.218-1.482-.218-1.026-.275-1.6-1.891-1.862-4.007-.531-4.19.137-10.34.846-11.911,1.063-2.367,3.07-4.928,10.6-3.079S401.375,207.614,399.992,215.043Z" transform="translate(-321.317 -141.553)" fill="#f8c2a0"/>
      <path id="Tracé_11975" data-name="Tracé 11975" d="M373.211,248.375s-2.558,7.634-2.485,10.714a5.115,5.115,0,0,1,2.485.582C375.214,260.754,373.211,248.375,373.211,248.375Z" transform="translate(-320.135 -148.382)" fill="#273b8b"/>
      <path id="Tracé_11976" data-name="Tracé 11976" d="M383.262,198.231a24.877,24.877,0,0,0,7.228-1.957c3.175-1.38,7.18.14,8.482.825a1.9,1.9,0,0,0-.318-.782,1.752,1.752,0,0,1,.67.994c.06.045.088.074.071.085a2.215,2.215,0,0,1,1.087.07s-.3-.043-.4.147a.164.164,0,0,1-.05.053c4.955,2.393,5.412,10.22,3.816,12.031a62.919,62.919,0,0,0-4.812,7.11,8.994,8.994,0,0,1,.105-3.1c.35-1.919-1.307-1.919-3.4-2.789s-.347-3.312-2.179-4.794-8.54-.609-8.452-1.742C382.616,203.475,383.262,198.485,383.262,198.231Z" transform="translate(-321.192 -140.88)" fill="#2f1909"/>
      <path id="Tracé_11977" data-name="Tracé 11977" d="M400.49,266.361c-1.966,5.645-23.019,8.561-27.853,9.155.2-2.449.2-5.55.341-9.473Z" transform="translate(-320.297 -150.918)" fill="#273b8b"/>
      <path id="Tracé_11978" data-name="Tracé 11978" d="M397.852,268.558a37.216,37.216,0,0,0,5.536-1.08c.81-.4,4.515-5.67,2.087-7.021s-8.939,4.051-8.939,4.051Z" transform="translate(-322.325 -150.01)" fill="#f8c2a0"/>
      <path id="Tracé_11979" data-name="Tracé 11979" d="M365.021,270.316s19,.962,30.069-1.592a5.194,5.194,0,0,0-3.2-4.975s-17.257-3.941-21.4-2.844S365.021,270.316,365.021,270.316Z" transform="translate(-319.483 -149.589)" fill="#2d43b2"/>
      <path id="Tracé_11980" data-name="Tracé 11980" d="M410.425,253.644c-3.63,4.377-8.375,7.951-13.607,8.788h0a9.758,9.758,0,0,1-1.294-5.842,11.679,11.679,0,0,1,1.905-5.362,11.743,11.743,0,0,0,1.028-2.075c2.856-7.289,2.432-21.337,2.432-21.337s12.131,1.271,15.912,6.67C419.113,237.793,416.162,246.725,410.425,253.644Z" transform="translate(-322.236 -146.258)" fill="#2d43b2"/>
      <path id="Tracé_11981" data-name="Tracé 11981" d="M388.216,221.737c-.91-.1-1.482-.218-1.482-.218-1.026-.275-1.6-1.891-1.862-4.007a5.075,5.075,0,0,1,3.171,2.594A3.722,3.722,0,0,1,388.216,221.737Z" transform="translate(-321.335 -143.562)" fill="#e6b899"/>
      <path id="Tracé_11982" data-name="Tracé 11982" d="M382.986,225.039s-4.19-6.913-.932-7.214a4.929,4.929,0,0,1,5.037,2.713c.47.811-.124,4.465-.124,4.465Z" transform="translate(-320.991 -143.706)" fill="#f8c2a0"/>
      <path id="Tracé_11983" data-name="Tracé 11983" d="M399.069,256.063a9,9,0,0,1-.715,2.4,11.466,11.466,0,0,1-2.667,3.675h0c-10.88-4.911-13.082-21.778-13.452-31.045-.148-3.725,0-6.223,0-6.223,4.91-1.624,6.29,1.2,6.29,1.2s5.795,13.783,8.8,22.79C398.475,252.305,399.217,255.055,399.069,256.063Z" transform="translate(-321.106 -145.863)" fill="#2d43b2"/>
      <path id="Tracé_11984" data-name="Tracé 11984" d="M409.3,253.975c-3.63,4.377-8.375,7.951-13.607,8.788h0c-10.88-4.911-13.082-21.777-13.452-31.045,0,0,5.148,18.675,12.158,25.2a7.653,7.653,0,0,0,3.963,2.168s8.838-2.5,10.692-4.85A1.026,1.026,0,0,1,409.3,253.975Z" transform="translate(-321.112 -146.701)" fill="#273b8b"/>
      <path id="Tracé_12006" data-name="Tracé 12006" d="M368.93,156.526c.679-17.069-13.442-24.651-27.882-24.651s-30.155,3.79-31.514,26.484c-.879,14.6,6.808,23.586,28.93,23.586,7.462,0,13.26-1.191,17.7-3.318l11.06,9.953-5.435-13.761C366.608,170.286,368.635,163.89,368.93,156.526Z" transform="translate(-309.468 -145.343)" fill="#fff"/>
    </g>
    <path id="old-age-man" d="M63.614,6.131a3.065,3.065,0,1,0-3.065-3.065A3.069,3.069,0,0,0,63.614,6.131Zm0-4.66a1.6,1.6,0,1,1-1.6,1.6A1.6,1.6,0,0,1,63.614,1.47ZM62.559,29.2q0,.01,0,.019a.735.735,0,0,1-.735.735H59.838a.735.735,0,0,1,0-1.47h1.251V21.865a.735.735,0,0,1,1.47,0V29.2Zm-.652-16.668V18.3h3.414V12.537a.735.735,0,1,1,1.47,0v6.5a.735.735,0,0,1-.735.735H61.172a.735.735,0,0,1-.735-.735v-6.5a.735.735,0,1,1,1.47,0Zm14.572,2.285a2.264,2.264,0,0,0-3.812.292l-2.121-3.708C69.4,9.411,67.714,7.122,64.739,7.122H62.488c-3.145,0-4.121,2.555-4.581,4.477l-1.74,7.266a.735.735,0,0,0,1.43.342l1.74-7.266c.406-1.7.987-2.677,1.892-3.1l1.709,3.984a.732.732,0,0,0,.165.239h0a.73.73,0,0,0,.174.124h0c.022.011.044.021.067.03h0a.731.731,0,0,0,.266.05h0a.733.733,0,0,0,.289-.059h.013a.731.731,0,0,0,.222-.155h0a.731.731,0,0,0,.137-.2h0l.013-.03,1.724-4.018c1.176.421,2.2,1.481,3.255,3.33l2.949,5.155L70.525,29.12a.735.735,0,1,0,1.455.208l1.711-11.946a.738.738,0,0,0,.034-.24l.154-1.075a.8.8,0,0,1,1.576.226.735.735,0,0,0,1.455.208A2.253,2.253,0,0,0,76.479,14.822Zm-12.865-4.15-.892-2.08h1.784Zm4.511,18.552a.735.735,0,0,1-.735.735H65.4a.735.735,0,0,1-.735-.735V21.865a.735.735,0,1,1,1.47,0v6.624H67.39A.735.735,0,0,1,68.125,29.224Z" transform="translate(291.004 645.541)" fill="#c9dae5"/>
    <path id="dollar" d="M8.379,18.844a1.19,1.19,0,0,0-2.379,0,5.955,5.955,0,0,0,5.948,5.948v1.19a1.19,1.19,0,0,0,2.379,0v-1.19a5.948,5.948,0,1,0,0-11.9V5.758A3.569,3.569,0,0,1,17.9,9.327a1.19,1.19,0,0,0,2.379,0,5.955,5.955,0,0,0-5.948-5.948V2.19a1.19,1.19,0,0,0-2.379,0v1.19a5.948,5.948,0,0,0,0,11.9v7.138A3.569,3.569,0,0,1,8.379,18.844Zm5.948-3.569a3.569,3.569,0,1,1,0,7.138ZM8.379,9.327a3.569,3.569,0,0,1,3.569-3.569V12.9A3.569,3.569,0,0,1,8.379,9.327Z" transform="translate(230.266 661.508)" fill="#c9dae5" stroke="#fff" stroke-width="0.6"/>
    <g id="Groupe_3359" data-name="Groupe 3359" transform="translate(-1349.087 265.903)">
      <path id="Tracé_36" data-name="Tracé 36" d="M13.292,25.795a.847.847,0,0,1-.607-.252l-6.6-6.6a10.192,10.192,0,1,1,14.407,0l-6.6,6.6a.847.847,0,0,1-.607.252Zm0-22.526A8.475,8.475,0,0,0,7.3,17.733l5.989,5.989,5.989-5.989A8.475,8.475,0,0,0,13.292,3.269Z" transform="translate(1452.109 392.457)" fill="#c9dae5" stroke="#fff" stroke-width="0.2"/>
      <path id="Tracé_37" data-name="Tracé 37" d="M12.545,14.839a4.295,4.295,0,1,1,4.295-4.295,4.295,4.295,0,0,1-4.295,4.295Zm0-6.871a2.577,2.577,0,1,0,2.577,2.577A2.577,2.577,0,0,0,12.545,7.968Z" transform="translate(1452.857 393.14)" fill="#c9dae5" stroke="#fff" stroke-width="0.2"/>
    </g>
  </g>
</svg>
