<svg xmlns="http://www.w3.org/2000/svg" xmlns:xlink="http://www.w3.org/1999/xlink" width="411.202" height="301.654" viewBox="0 0 411.202 301.654">
  <defs>
    <linearGradient id="linear-gradient" x1="0.5" y1="1" x2="0.5" gradientUnits="objectBoundingBox">
      <stop offset="0" stop-color="#c5cadd"/>
      <stop offset="1" stop-color="#e4eff1"/>
    </linearGradient>
  </defs>
  <g id="Groupe_3925" data-name="Groupe 3925" transform="translate(-1357.365 -1781.198)">
    <g id="Groupe_3676" data-name="Groupe 3676" transform="translate(1313.566 1813.966)">
      <path id="Tracé_11868" data-name="Tracé 11868" d="M356.556,123.431c-29.564-44.15-45.2-80.543-124.661-72.225-98.629,23.92-94.126,40.568-136.384,104.453S40.7,225.772,48.611,322.32c.954,11.633,3.762,21.307,8.088,29.347H433.366c13.959-13.956,22.733-36.316,24.093-72.078C461.011,186.111,386.12,167.584,356.556,123.431Z" transform="translate(-2.581 -82.781)" opacity="0.5" fill="url(#linear-gradient)"/>
    </g>
    <path id="Tracé_12041" data-name="Tracé 12041" d="M324.884,272.47a.724.724,0,0,1,.758.675v.231a.724.724,0,0,1-.758.674" transform="translate(1246.002 1758.945)" fill="#0a0618"/>
    <g id="Groupe_3678" data-name="Groupe 3678" transform="translate(1400.697 1866.14)">
      <path id="Tracé_11870" data-name="Tracé 11870" d="M428.007,275.107V103.461a8.974,8.974,0,0,0-8.975-8.974h-6.063V284.081h6.063A8.975,8.975,0,0,0,428.007,275.107Z" transform="translate(-160.984 -94.487)" fill="#32329e"/>
      <path id="Tracé_11871" data-name="Tracé 11871" d="M393.594,284.081H150.583a8.975,8.975,0,0,1-8.974-8.975V103.461a8.974,8.974,0,0,1,8.974-8.974h243.01a8.974,8.974,0,0,1,8.973,8.974V275.107A8.973,8.973,0,0,1,393.594,284.081Z" transform="translate(-141.609 -94.487)" fill="#2d43b2"/>
      <rect id="Rectangle_717" data-name="Rectangle 717" width="243.01" height="152.215" transform="translate(8.974 8.974)" fill="#e6e6e6"/>
      <path id="Tracé_11872" data-name="Tracé 11872" d="M364.676,188.63c-24.735-59.647-107.638-70.3-136.455-15.938-20.7,39.042-46.838,13.59-76.947,36.058v49.986h243.01V225.281A81.915,81.915,0,0,1,364.676,188.63Z" transform="translate(-142.299 -97.546)" fill="#f4f4f4"/>
      <circle id="Ellipse_221" data-name="Ellipse 221" cx="6.067" cy="6.067" r="6.067" transform="translate(124.413 168.852)" fill="#fff"/>
      <g id="Groupe_3599" data-name="Groupe 3599" transform="translate(9.499 178.387)">
        <circle id="Ellipse_222" data-name="Ellipse 222" cx="1.993" cy="1.993" r="1.993" transform="translate(0 0.001)" fill="#00b48b"/>
        <circle id="Ellipse_223" data-name="Ellipse 223" cx="1.994" cy="1.994" r="1.994" transform="translate(8.068)" fill="#00b48b"/>
        <circle id="Ellipse_224" data-name="Ellipse 224" cx="1.993" cy="1.993" r="1.993" transform="translate(16.135 0.001)" fill="#00b48b"/>
      </g>
    </g>
    <path id="Tracé_12042" data-name="Tracé 12042" d="M324.66,316.647H307.824V298.659H250.307v17.988H200.4v7.4H352.178v-7.4Z" transform="translate(1254.891 1757.075)" fill="#2d43b2"/>
    <g id="loading-35_2" data-name="loading-35 2" transform="translate(1463.086 1896.307)">
      <g id="Groupe_3613" data-name="Groupe 3613" transform="translate(22.984 8.196)">
        <path id="Tracé_11919" data-name="Tracé 11919" d="M177.378,36.724a7.714,7.714,0,1,1,6.689-3.858A7.716,7.716,0,0,1,177.378,36.724Z" transform="translate(-109.225 -15.897)" fill="#00b48b" opacity="0"/>
        <path id="Tracé_11920" data-name="Tracé 11920" d="M128.5,23.624a7.714,7.714,0,1,1,7.713-7.714A7.722,7.722,0,0,1,128.5,23.624Z" transform="translate(-80.484 -8.196)" fill="#00b48b"/>
        <path id="Tracé_11921" data-name="Tracé 11921" d="M213.187,72.522a7.746,7.746,0,0,1-6.687-3.859,7.716,7.716,0,0,1,6.673-11.572,7.715,7.715,0,0,1,.014,15.431Z" transform="translate(-130.269 -36.943)" fill="#00b48b" opacity="0.1"/>
        <path id="Tracé_11922" data-name="Tracé 11922" d="M226.291,121.418a7.713,7.713,0,1,1,7.717-7.713,7.72,7.72,0,0,1-7.717,7.713Z" transform="translate(-137.982 -65.693)" fill="#00b48b" opacity="0.2"/>
        <path id="Tracé_11923" data-name="Tracé 11923" d="M213.172,170.314a7.713,7.713,0,1,1,6.687-3.858A7.73,7.73,0,0,1,213.172,170.314Z" transform="translate(-130.269 -94.439)" fill="#00b48b" opacity="0.3"/>
        <path id="Tracé_11924" data-name="Tracé 11924" d="M177.4,206.11a7.715,7.715,0,1,1,6.671-11.573A7.716,7.716,0,0,1,177.4,206.11Z" transform="translate(-109.231 -115.484)" fill="#00b48b" opacity="0.4"/>
        <path id="Tracé_11925" data-name="Tracé 11925" d="M128.493,219.212a7.714,7.714,0,1,1,7.712-7.714,7.724,7.724,0,0,1-7.712,7.714Z" transform="translate(-80.481 -123.189)" fill="#00b48b" opacity="0.5"/>
        <path id="Tracé_11926" data-name="Tracé 11926" d="M79.587,206.11a7.715,7.715,0,1,1,6.69-3.859A7.695,7.695,0,0,1,79.587,206.11Z" transform="translate(-51.734 -115.484)" fill="#00b48b" opacity="0.58"/>
        <path id="Tracé_11927" data-name="Tracé 11927" d="M43.811,170.311a7.717,7.717,0,1,1,3.85-1.037A7.743,7.743,0,0,1,43.811,170.311Z" transform="translate(-30.69 -94.436)" fill="#00b48b" opacity="0.65"/>
        <path id="Tracé_11928" data-name="Tracé 11928" d="M30.7,121.417a7.714,7.714,0,1,1,7.712-7.715,7.724,7.724,0,0,1-7.712,7.715Z" transform="translate(-22.984 -65.692)" fill="#00b48b" opacity="0.72"/>
        <path id="Tracé_11929" data-name="Tracé 11929" d="M43.793,72.519a7.714,7.714,0,1,1,6.689-3.857A7.709,7.709,0,0,1,43.793,72.519Z" transform="translate(-30.69 -36.943)" fill="#00b48b" opacity="0.8"/>
        <path id="Tracé_11930" data-name="Tracé 11930" d="M79.607,36.723A7.715,7.715,0,1,1,86.28,25.151a7.715,7.715,0,0,1-6.673,11.572Z" transform="translate(-51.736 -15.896)" fill="#00b48b" opacity="0.88"/>
      </g>
      <g id="Groupe_3614" data-name="Groupe 3614" transform="translate(53.174 43.743)">
        <path id="Tracé_11931" data-name="Tracé 11931" d="M101.492,127.77a2.988,2.988,0,0,1-4.224,0L86.554,117.056a2.99,2.99,0,0,1,0-4.226h0a2.989,2.989,0,0,1,4.225,0l10.714,10.715a2.987,2.987,0,0,1,0,4.224Z" transform="translate(-85.679 -103.715)" fill="#00b48b"/>
        <path id="Tracé_11932" data-name="Tracé 11932" d="M118.91,111.124a2.988,2.988,0,0,1,0-4.224l18.957-18.957a2.987,2.987,0,0,1,4.223,0h0a2.986,2.986,0,0,1,0,4.223l-18.957,18.957a2.988,2.988,0,0,1-4.224,0Z" transform="translate(-107.321 -87.069)" fill="#00b48b"/>
        <path id="Tracé_11933" data-name="Tracé 11933" d="M123.415,104.652a3.48,3.48,0,1,1-3.481-3.479A3.48,3.48,0,0,1,123.415,104.652Z" transform="translate(-106.264 -96.503)" fill="#00b48b"/>
      </g>
    </g>
    <g id="Groupe_3731" data-name="Groupe 3731" transform="translate(1654.029 1904.502)">
      <path id="Tracé_12197" data-name="Tracé 12197" d="M549.633,271.786a9.432,9.432,0,0,1-4.457,8.772c-5.166,3.223-.535-10.871-.535-10.871Z" transform="translate(-492.522 -261.985)" fill="#f7f7f7"/>
      <path id="Tracé_12198" data-name="Tracé 12198" d="M499.243,300.347l.05.092c.05.088.1.18.137.271.015.031.024.065.037.1a9.218,9.218,0,0,0,1.335.019l.3-.063c.257-.065.5-.152.754-.237.067-.037.188-.1.42-.213a32.083,32.083,0,0,0,2.817-1.883c-.018-.052-.051-.115-.062-.16a4.386,4.386,0,0,0-.153-.506l0,0c-.076-.213-.165-.436-.272-.67-1.072-2.378-3.593-5.733-4.981-6.333-1.636-.709-.845,1.719-.241,2.649s.4.958-1.346.465-2.862-.165-3.795-1.148-1.716-2.512-2.24-2.21,0,3.607,1.119,5.3S498.749,299.494,499.243,300.347Z" transform="translate(-493.516 -263.621)" fill="#f8c2a0"/>
      <path id="Tracé_12199" data-name="Tracé 12199" d="M498.546,299.348c.342.73.474,1.536.744,2.292.077.212.157.425.239.637.321.853.663,1.7.982,2.549.8,2.068,1.594,4.139,2.548,6.138a28.574,28.574,0,0,0,4.061,6.6,10.649,10.649,0,0,0,3.063,2.473,7.042,7.042,0,0,0,2.48.73,8.253,8.253,0,0,0,1.826-.009,12.324,12.324,0,0,0,9.01-6.18c.055-.1.108-.211.159-.315.01-.027.023-.05.032-.074a5.751,5.751,0,0,0-.018,1.747c-.015,1.519-.045,3.03-.084,4.551a53.617,53.617,0,0,1-.776,10.227,26.55,26.55,0,0,1-1.76,4.744,6.824,6.824,0,0,0-.679,4.157,14.191,14.191,0,0,0,1.047,2.252l.047.118c.014.039.028.08.04.121a2.684,2.684,0,0,1,.089.319c0,.023.008.048.014.071s.012.067.016.1l0,.016c0,.031.007.063.008.1,0,.053.008.106.012.162l1.981.018,28.739.275h1.848c0-.011-.006-.021-.008-.033-.036-.205-.075-.4-.109-.584-.16-.84-.275-1.45-.33-1.737a.8.8,0,0,1-.055-.151.991.991,0,0,1-.036-.308l.048-.349a1.511,1.511,0,0,1,.075-.209,1.23,1.23,0,0,1,.9-.911c.2-.044.412-.075.616-.125.025-.007.048-.016.07-.023.067-.048.185-.093.237-.132a1.318,1.318,0,0,1,1.014-.132,1.337,1.337,0,0,1,.366.168,1.3,1.3,0,0,1,.233.187.193.193,0,0,1,.034.036c.3-.263.639-.565,1.008-.9l0,0c.437-.39.914-.832,1.428-1.309.018-.014.031-.031.049-.046,6.247-5.8,17.512-17.138,16.8-20.533a13.261,13.261,0,0,0-1.537-3.483c-.976-1.769-2.054-3.481-3.169-5.164a127.255,127.255,0,0,0-8.288-11.242,45.047,45.047,0,0,0-3.664-4.03c-.095-.09-.19-.179-.289-.266l-.208-.181a.059.059,0,0,0-.014-.01c-.04-.036-.083-.07-.125-.1-.067-.057-.137-.11-.206-.167-.04-.032-.083-.064-.125-.1-.078-.061-.161-.123-.244-.185s-.186-.137-.282-.2c-.021-.016-.039-.029-.057-.04-.083-.058-.168-.113-.25-.169-.018-.013-.034-.023-.054-.036-.081-.054-.164-.105-.246-.157s-.183-.109-.274-.166c-.072-.043-.147-.086-.221-.125-.044-.025-.089-.049-.132-.076s-.09-.048-.134-.073c-.479-.254-.974-.484-1.479-.692a18.5,18.5,0,0,0-2.216-.744q-.633-.17-1.277-.307c-.212-.044-.422-.085-.632-.124-.092-.018-.179-.033-.269-.047-.227-.039-.456-.079-.685-.108-.079-.013-.158-.024-.239-.035-.137-.021-.273-.039-.406-.057-.216-.026-.435-.05-.651-.074l-.21-.021c-.2-.021-.389-.038-.586-.054h-.012c-.148-.015-.3-.025-.447-.037-.111-.007-.221-.016-.333-.022l-.067,0-.2-.012c-.041,0-.083-.006-.123-.008l-.073,0c-.05,0-.1-.006-.15-.006-.185-.012-.372-.019-.558-.027-.053,0-.1,0-.15,0-.079,0-.16-.007-.241-.009h-.017a.01.01,0,0,0-.007,0c-.088,0-.176-.006-.264-.006-.034,0-.069,0-.1,0h-.016c-.1,0-.185,0-.277-.008h-.169c-.321,0-.641-.009-.958-.009-.89,0-1.765.018-2.611.04h-.006c-.365.01-.734.016-1.1.023h-.006c-.554.01-1.113.021-1.665.043h-.006c-.279.009-.554.023-.83.037s-.556.04-.833.066l-.1.009c-.067.006-.139.012-.206.02v1.165a.043.043,0,0,0-.008-.009,10.151,10.151,0,0,1-.645-1.092s-.006,0-.006,0c-.069.006-.141.015-.21.023l-.2.021c-.042.007-.087.013-.131.018l-.061.007-.209.027c-.272.034-.546.068-.815.108-.589.084-1.178.18-1.765.28l-.027.006-.007,0c-.605.108-1.211.224-1.811.35a31.118,31.118,0,0,0-4.523,1.284c-2.4.9-3.749,3.387-5.155,5.413-2.877,4.15-5.347,8.59-7.949,12.918l0,0c-.18-.176-6.1-6-8.712-9.318a6.918,6.918,0,0,1-1.209-1.906,4.089,4.089,0,0,0-.134-.445l-.006,0Zm66.219,17.823.028.021s-7.36,12.662-9.982,15.215h0c-.071.07-.138.131-.2.185a.991.991,0,0,1-.45.256h-.032a8.368,8.368,0,0,1-.888-.038,1.835,1.835,0,0,1-.2-.032.575.575,0,0,1-.27-.1c-.051-.041-.026-.076-.026-.076l2.732-21.9Z" transform="translate(-491.893 -262.241)" fill="#2d43b2"/>
      <path id="Tracé_12200" data-name="Tracé 12200" d="M536.752,288a9.813,9.813,0,0,0,.652,1.1v-1.165C537.187,287.951,536.968,287.975,536.752,288Z" transform="translate(-492.437 -262.245)" fill="#273b8b"/>
      <path id="Tracé_12201" data-name="Tracé 12201" d="M537.414,283.8v5.828c.213.622.955.9,1.919.943.106,0,.218.006.329,0h0c2.7-.02,6.737-1.619,6.266-2.661a2.516,2.516,0,0,1-.118-.315,52.829,52.829,0,0,1-1.012-7.128Z" transform="translate(-492.446 -262.139)" fill="#f8c2a0"/>
      <path id="Tracé_12202" data-name="Tracé 12202" d="M544.981,282.354c-.11.218-.224.433-.347.646a7.441,7.441,0,0,1-1.808,2.193,7.524,7.524,0,0,1-3.458,1.372,4.786,4.786,0,0,1-1.956-.1V283.8l7.385-3.33C544.8,280.44,544.869,281.251,544.981,282.354Z" transform="translate(-492.446 -262.138)" fill="#e6b899"/>
      <path id="Tracé_12203" data-name="Tracé 12203" d="M560.481,337.372l-5.066-4.4s-.834,2.093-2.382,2.355-4.874.665-5.587,1.69-.19.856.714.355a3.738,3.738,0,0,1,1.926-.4s-1.926,1.093-2.047,2.21c-.063.618.514,1.285,1.046,1.759a7.161,7.161,0,0,0,3.418,1.947c.9.112,3.16-1.529,3.965-2.195Z" transform="translate(-492.584 -262.886)" fill="#f8c2a0"/>
      <path id="Tracé_12204" data-name="Tracé 12204" d="M539.695,290.676a10.572,10.572,0,0,0,1.534,2.8s6.333-1.393,7.537-4.819a3.91,3.91,0,0,0,.2-.807c-1.051-.089-2.1-.133-3.141-.149C545.625,287.87,542.3,290.6,539.695,290.676Z" transform="translate(-492.479 -262.241)" fill="#273b8b"/>
      <path id="Tracé_12205" data-name="Tracé 12205" d="M533.278,288.49c.748,1.534,2.581,4.995,3.9,4.989,1.188-1.5,2.428-2.8,2.428-2.8h0a.821.821,0,0,1-.329,0c-.391-.071-1.093-.379-1.919-1.579a9.831,9.831,0,0,1-.653-1.1q-.818.09-1.63.2C534.474,288.289,533.874,288.385,533.278,288.49Z" transform="translate(-492.387 -262.246)" fill="#273b8b"/>
      <path id="Tracé_12206" data-name="Tracé 12206" d="M560.711,337.41l-5.866-4.982-2.805,1.882,6.473,5.62Z" transform="translate(-492.654 -262.878)" fill="#fff"/>
      <path id="Tracé_12207" data-name="Tracé 12207" d="M504.06,295.656l-6.507,4.109.958,3.24,7.3-4.5Z" transform="translate(-491.879 -262.355)" fill="#fff"/>
      <path id="Tracé_12208" data-name="Tracé 12208" d="M521.972,343.634c0,.549,0,1.1,0,1.638,0,1.89,0,3.779.013,5.668q0,8.684.032,17.359c.031,10.5.16,21.231.584,31.815q.327,8.118.9,16.218.291,4.059.67,8.1c.148,1.64-.219,6.27,1.04,7.428a3.054,3.054,0,0,0,.7.5h0l.34.118h9.686v-.006c-.029-.144,1.426-.663,1.212-1.519s-1.426-35.394-.76-46.337a189.939,189.939,0,0,1,2.468-20.665c-.19,1.21,1.664,4.371,2.122,5.615q1.2,3.29,2.347,6.6c1.5,4.4,2.888,8.829,4.079,13.318a136.516,136.516,0,0,1,2.937,13.637c.624,3.87.657,8.108,2,11.815,1.14,3.141,4.64,16.557,5.422,17.167.092.07.105.2.058.373h10.653a1.937,1.937,0,0,0,.889-1.121c.252-.855-3.962-19.152-5.006-25.048s-6.28-37.392-6.28-40.72c0-2.611-2.468-16-3.537-21.672-.049-.267-.1-.514-.139-.747H521.92A2.551,2.551,0,0,1,521.972,343.634Z" transform="translate(-492.226 -263.031)" fill="#41363a"/>
      <path id="Tracé_12209" data-name="Tracé 12209" d="M514.153,441.577c4.065,0,22.51.532,23.024,0,.377-.384-.516-4.327-1.024-6.459-.181-.745-.313-1.27-.329-1.34h-9.686a3.084,3.084,0,0,1-.466,1.34,4.152,4.152,0,0,1-2.978,1.832C519.359,437.565,514.3,438.676,514.153,441.577Z" transform="translate(-492.115 -264.32)" fill="#41363a"/>
      <path id="Tracé_12210" data-name="Tracé 12210" d="M546.241,277.378a10.62,10.62,0,0,1-.551,2.346c-.241.5-.483.993-.759,1.47a7.533,7.533,0,0,1-6.031,4.085,4.925,4.925,0,0,1-3.311-.58,6.025,6.025,0,0,1-2.24-3.313,20.793,20.793,0,0,1-.914-4.814,80.588,80.588,0,0,1-.491-8.119l12.365-.6Z" transform="translate(-492.368 -261.959)" fill="#f8c2a0"/>
      <path id="Tracé_12211" data-name="Tracé 12211" d="M549.277,273.66c.026-.079.049-.156.07-.236.014-.051.033-.1.045-.147,0,.009-.013.014-.017.021a3.571,3.571,0,0,0,.111-.9,17.7,17.7,0,0,0-.853-5.928c-1.121-3.017-4.919-4.409-7.884-4.583a8.637,8.637,0,0,0-8.383,4.571l.006-.021-.026.062a7.777,7.777,0,0,0-.344.8,7.644,7.644,0,0,0-.412,1.816c-.087.9.93,1.267,1.628,1.454a6.786,6.786,0,0,0,3.229.145,14.176,14.176,0,0,0,2.644-1.056,11.025,11.025,0,0,1,2.449-.819,3.657,3.657,0,0,1,2.418.1,2.081,2.081,0,0,1,.784,1.476c.069.359.122.721.172,1.083.012.078.021.152.029.232.046.357.085.716.113,1.076.02.233.037.468.052.7a11.168,11.168,0,0,1,.016,2.66c-.061.35.855.128,1.856-.214.069-.024.137-.05.2-.079a.242.242,0,0,0,.061-.027c.048-.02.1-.039.144-.062l.06-.029c.018-.009.035-.02.052-.028s.033-.018.048-.027.054-.027.078-.04l.021-.012c.058-.034.113-.069.168-.1l.061-.042a1.179,1.179,0,0,0,.114-.083.007.007,0,0,0,0,0l.033-.025.027-.019c.042-.034.085-.069.127-.1.021-.018.041-.036.061-.053l.116-.107.064-.064.011-.011.027-.029a.64.64,0,0,1,.044-.046c.021-.023.041-.045.063-.068s.054-.065.081-.1.06-.071.089-.111.042-.057.063-.087a.133.133,0,0,1,.018-.024.735.735,0,0,0,.048-.07c.02-.029.036-.058.056-.087s.036-.06.056-.09.034-.064.052-.1.018-.043.027-.062a2.328,2.328,0,0,0,.105-.23A2.9,2.9,0,0,0,549.277,273.66Z" transform="translate(-492.363 -261.874)" fill="#41363a"/>
      <ellipse id="Ellipse_239" data-name="Ellipse 239" cx="2.479" cy="2.265" rx="2.479" ry="2.265" transform="translate(51.321 11.317)" fill="#f8c2a0"/>
      <path id="Tracé_12212" data-name="Tracé 12212" d="M525.838,435.074H536.31c-.175-.7-.3-1.195-.319-1.261v0a.029.029,0,0,1,.011-.029h-9.7a.229.229,0,0,0,0,.034A3.023,3.023,0,0,1,525.838,435.074Z" transform="translate(-492.282 -264.32)" fill="#00b48b"/>
      <path id="Tracé_12213" data-name="Tracé 12213" d="M547.111,441.577c4.064,0,22.51.532,23.024,0,.378-.384-.516-4.327-1.024-6.459-.181-.745-.313-1.27-.328-1.34h-9.688a3.088,3.088,0,0,1-.465,1.34,4.15,4.15,0,0,1-2.978,1.832C552.317,437.565,547.256,438.676,547.111,441.577Z" transform="translate(-492.584 -264.32)" fill="#41363a"/>
      <path id="Tracé_12214" data-name="Tracé 12214" d="M558.8,435.074h10.472c-.175-.7-.3-1.195-.319-1.261v0a.028.028,0,0,1,.01-.029h-9.7v.034A3.063,3.063,0,0,1,558.8,435.074Z" transform="translate(-492.751 -264.32)" fill="#00b48b"/>
    </g>
  </g>
</svg>
