<svg id="petits_points" data-name="petits points" xmlns="http://www.w3.org/2000/svg" width="403" height="403" viewBox="0 0 403 403">
  <g id="Groupe_1721" data-name="Groupe 1721" transform="translate(0 -0.154)">
    <g id="Groupe_1094" data-name="Groupe 1094" transform="translate(0)">
      <ellipse id="Ellipse_67" data-name="Ellipse 67" cx="4.5" cy="4" rx="4.5" ry="4" transform="translate(0 0.154)" fill="#2d43b2"/>
      <ellipse id="Ellipse_68" data-name="Ellipse 68" cx="4.5" cy="4" rx="4.5" ry="4" transform="translate(33 0.154)" fill="#2d43b2"/>
      <circle id="Ellipse_69" data-name="Ellipse 69" cx="4" cy="4" r="4" transform="translate(66 0.154)" fill="#2d43b2"/>
      <circle id="Ellipse_70" data-name="Ellipse 70" cx="4" cy="4" r="4" transform="translate(99 0.154)" fill="#2d43b2"/>
      <ellipse id="Ellipse_71" data-name="Ellipse 71" cx="4.5" cy="4" rx="4.5" ry="4" transform="translate(131 0.154)" fill="#2d43b2"/>
      <ellipse id="Ellipse_72" data-name="Ellipse 72" cx="4.5" cy="4" rx="4.5" ry="4" transform="translate(164 0.154)" fill="#2d43b2"/>
      <circle id="Ellipse_73" data-name="Ellipse 73" cx="4" cy="4" r="4" transform="translate(198 0.154)" fill="#2d43b2"/>
      <ellipse id="Ellipse_74" data-name="Ellipse 74" cx="4.5" cy="4" rx="4.5" ry="4" transform="translate(230 0.154)" fill="#2d43b2"/>
      <ellipse id="Ellipse_75" data-name="Ellipse 75" cx="4.5" cy="4" rx="4.5" ry="4" transform="translate(263 0.154)" fill="#2d43b2"/>
      <circle id="Ellipse_76" data-name="Ellipse 76" cx="4" cy="4" r="4" transform="translate(296 0.154)" fill="#2d43b2"/>
      <circle id="Ellipse_77" data-name="Ellipse 77" cx="4" cy="4" r="4" transform="translate(329 0.154)" fill="#2d43b2"/>
      <ellipse id="Ellipse_78" data-name="Ellipse 78" cx="4.5" cy="4" rx="4.5" ry="4" transform="translate(361 0.154)" fill="#2d43b2"/>
      <circle id="Ellipse_79" data-name="Ellipse 79" cx="4" cy="4" r="4" transform="translate(395 0.154)" fill="#2d43b2"/>
    </g>
    <g id="Groupe_1095" data-name="Groupe 1095" transform="translate(0 39.929)">
      <ellipse id="Ellipse_67-2" data-name="Ellipse 67" cx="4.5" cy="4" rx="4.5" ry="4" transform="translate(0 0.225)" fill="#2d43b2"/>
      <ellipse id="Ellipse_68-2" data-name="Ellipse 68" cx="4.5" cy="4" rx="4.5" ry="4" transform="translate(33 0.225)" fill="#2d43b2"/>
      <circle id="Ellipse_69-2" data-name="Ellipse 69" cx="4" cy="4" r="4" transform="translate(66 0.225)" fill="#2d43b2"/>
      <circle id="Ellipse_70-2" data-name="Ellipse 70" cx="4" cy="4" r="4" transform="translate(99 0.225)" fill="#2d43b2"/>
      <ellipse id="Ellipse_71-2" data-name="Ellipse 71" cx="4.5" cy="4" rx="4.5" ry="4" transform="translate(131 0.225)" fill="#2d43b2"/>
      <ellipse id="Ellipse_72-2" data-name="Ellipse 72" cx="4.5" cy="4" rx="4.5" ry="4" transform="translate(164 0.225)" fill="#2d43b2"/>
      <circle id="Ellipse_73-2" data-name="Ellipse 73" cx="4" cy="4" r="4" transform="translate(198 0.225)" fill="#2d43b2"/>
      <ellipse id="Ellipse_74-2" data-name="Ellipse 74" cx="4.5" cy="4" rx="4.5" ry="4" transform="translate(230 0.225)" fill="#2d43b2"/>
      <ellipse id="Ellipse_75-2" data-name="Ellipse 75" cx="4.5" cy="4" rx="4.5" ry="4" transform="translate(263 0.225)" fill="#2d43b2"/>
      <circle id="Ellipse_76-2" data-name="Ellipse 76" cx="4" cy="4" r="4" transform="translate(296 0.225)" fill="#2d43b2"/>
      <circle id="Ellipse_77-2" data-name="Ellipse 77" cx="4" cy="4" r="4" transform="translate(329 0.225)" fill="#2d43b2"/>
      <ellipse id="Ellipse_78-2" data-name="Ellipse 78" cx="4.5" cy="4" rx="4.5" ry="4" transform="translate(361 0.225)" fill="#2d43b2"/>
      <circle id="Ellipse_79-2" data-name="Ellipse 79" cx="4" cy="4" r="4" transform="translate(395 0.225)" fill="#2d43b2"/>
    </g>
    <g id="Groupe_1096" data-name="Groupe 1096" transform="translate(0 78.908)">
      <ellipse id="Ellipse_67-3" data-name="Ellipse 67" cx="4.5" cy="4" rx="4.5" ry="4" transform="translate(0 0.247)" fill="#2d43b2"/>
      <ellipse id="Ellipse_68-3" data-name="Ellipse 68" cx="4.5" cy="4" rx="4.5" ry="4" transform="translate(33 0.247)" fill="#2d43b2"/>
      <circle id="Ellipse_69-3" data-name="Ellipse 69" cx="4" cy="4" r="4" transform="translate(66 0.247)" fill="#2d43b2"/>
      <circle id="Ellipse_70-3" data-name="Ellipse 70" cx="4" cy="4" r="4" transform="translate(99 0.247)" fill="#2d43b2"/>
      <ellipse id="Ellipse_71-3" data-name="Ellipse 71" cx="4.5" cy="4" rx="4.5" ry="4" transform="translate(131 0.247)" fill="#2d43b2"/>
      <ellipse id="Ellipse_72-3" data-name="Ellipse 72" cx="4.5" cy="4" rx="4.5" ry="4" transform="translate(164 0.247)" fill="#2d43b2"/>
      <circle id="Ellipse_73-3" data-name="Ellipse 73" cx="4" cy="4" r="4" transform="translate(198 0.247)" fill="#2d43b2"/>
      <ellipse id="Ellipse_74-3" data-name="Ellipse 74" cx="4.5" cy="4" rx="4.5" ry="4" transform="translate(230 0.247)" fill="#2d43b2"/>
      <ellipse id="Ellipse_75-3" data-name="Ellipse 75" cx="4.5" cy="4" rx="4.5" ry="4" transform="translate(263 0.247)" fill="#2d43b2"/>
      <circle id="Ellipse_76-3" data-name="Ellipse 76" cx="4" cy="4" r="4" transform="translate(296 0.247)" fill="#2d43b2"/>
      <circle id="Ellipse_77-3" data-name="Ellipse 77" cx="4" cy="4" r="4" transform="translate(329 0.247)" fill="#2d43b2"/>
      <ellipse id="Ellipse_78-3" data-name="Ellipse 78" cx="4.5" cy="4" rx="4.5" ry="4" transform="translate(361 0.247)" fill="#2d43b2"/>
      <circle id="Ellipse_79-3" data-name="Ellipse 79" cx="4" cy="4" r="4" transform="translate(395 0.247)" fill="#2d43b2"/>
    </g>
    <g id="Groupe_1097" data-name="Groupe 1097" transform="translate(0 118.837)">
      <ellipse id="Ellipse_67-4" data-name="Ellipse 67" cx="4.5" cy="4" rx="4.5" ry="4" transform="translate(0 0.317)" fill="#2d43b2"/>
      <ellipse id="Ellipse_68-4" data-name="Ellipse 68" cx="4.5" cy="4" rx="4.5" ry="4" transform="translate(33 0.317)" fill="#2d43b2"/>
      <circle id="Ellipse_69-4" data-name="Ellipse 69" cx="4" cy="4" r="4" transform="translate(66 0.317)" fill="#2d43b2"/>
      <circle id="Ellipse_70-4" data-name="Ellipse 70" cx="4" cy="4" r="4" transform="translate(99 0.317)" fill="#2d43b2"/>
      <ellipse id="Ellipse_71-4" data-name="Ellipse 71" cx="4.5" cy="4" rx="4.5" ry="4" transform="translate(131 0.317)" fill="#2d43b2"/>
      <ellipse id="Ellipse_72-4" data-name="Ellipse 72" cx="4.5" cy="4" rx="4.5" ry="4" transform="translate(164 0.317)" fill="#2d43b2"/>
      <circle id="Ellipse_73-4" data-name="Ellipse 73" cx="4" cy="4" r="4" transform="translate(198 0.317)" fill="#2d43b2"/>
      <ellipse id="Ellipse_74-4" data-name="Ellipse 74" cx="4.5" cy="4" rx="4.5" ry="4" transform="translate(230 0.317)" fill="#2d43b2"/>
      <ellipse id="Ellipse_75-4" data-name="Ellipse 75" cx="4.5" cy="4" rx="4.5" ry="4" transform="translate(263 0.317)" fill="#2d43b2"/>
      <circle id="Ellipse_76-4" data-name="Ellipse 76" cx="4" cy="4" r="4" transform="translate(296 0.317)" fill="#2d43b2"/>
      <circle id="Ellipse_77-4" data-name="Ellipse 77" cx="4" cy="4" r="4" transform="translate(329 0.317)" fill="#2d43b2"/>
      <ellipse id="Ellipse_78-4" data-name="Ellipse 78" cx="4.5" cy="4" rx="4.5" ry="4" transform="translate(361 0.317)" fill="#2d43b2"/>
      <circle id="Ellipse_79-4" data-name="Ellipse 79" cx="4" cy="4" r="4" transform="translate(395 0.317)" fill="#2d43b2"/>
    </g>
    <g id="Groupe_1098" data-name="Groupe 1098" transform="translate(0 157.816)">
      <ellipse id="Ellipse_67-5" data-name="Ellipse 67" cx="4.5" cy="4" rx="4.5" ry="4" transform="translate(0 0.339)" fill="#2d43b2"/>
      <ellipse id="Ellipse_68-5" data-name="Ellipse 68" cx="4.5" cy="4" rx="4.5" ry="4" transform="translate(33 0.339)" fill="#2d43b2"/>
      <circle id="Ellipse_69-5" data-name="Ellipse 69" cx="4" cy="4" r="4" transform="translate(66 0.339)" fill="#2d43b2"/>
      <circle id="Ellipse_70-5" data-name="Ellipse 70" cx="4" cy="4" r="4" transform="translate(99 0.339)" fill="#2d43b2"/>
      <ellipse id="Ellipse_71-5" data-name="Ellipse 71" cx="4.5" cy="4" rx="4.5" ry="4" transform="translate(131 0.339)" fill="#2d43b2"/>
      <ellipse id="Ellipse_72-5" data-name="Ellipse 72" cx="4.5" cy="4" rx="4.5" ry="4" transform="translate(164 0.339)" fill="#2d43b2"/>
      <circle id="Ellipse_73-5" data-name="Ellipse 73" cx="4" cy="4" r="4" transform="translate(198 0.339)" fill="#2d43b2"/>
      <ellipse id="Ellipse_74-5" data-name="Ellipse 74" cx="4.5" cy="4" rx="4.5" ry="4" transform="translate(230 0.339)" fill="#2d43b2"/>
      <ellipse id="Ellipse_75-5" data-name="Ellipse 75" cx="4.5" cy="4" rx="4.5" ry="4" transform="translate(263 0.339)" fill="#2d43b2"/>
      <circle id="Ellipse_76-5" data-name="Ellipse 76" cx="4" cy="4" r="4" transform="translate(296 0.339)" fill="#2d43b2"/>
      <circle id="Ellipse_77-5" data-name="Ellipse 77" cx="4" cy="4" r="4" transform="translate(329 0.339)" fill="#2d43b2"/>
      <ellipse id="Ellipse_78-5" data-name="Ellipse 78" cx="4.5" cy="4" rx="4.5" ry="4" transform="translate(361 0.339)" fill="#2d43b2"/>
      <circle id="Ellipse_79-5" data-name="Ellipse 79" cx="4" cy="4" r="4" transform="translate(395 0.339)" fill="#2d43b2"/>
    </g>
    <g id="Groupe_1099" data-name="Groupe 1099" transform="translate(0 197.745)">
      <ellipse id="Ellipse_67-6" data-name="Ellipse 67" cx="4.5" cy="4" rx="4.5" ry="4" transform="translate(0 0.409)" fill="#2d43b2"/>
      <ellipse id="Ellipse_68-6" data-name="Ellipse 68" cx="4.5" cy="4" rx="4.5" ry="4" transform="translate(33 0.409)" fill="#2d43b2"/>
      <circle id="Ellipse_69-6" data-name="Ellipse 69" cx="4" cy="4" r="4" transform="translate(66 0.409)" fill="#2d43b2"/>
      <circle id="Ellipse_70-6" data-name="Ellipse 70" cx="4" cy="4" r="4" transform="translate(99 0.409)" fill="#2d43b2"/>
      <ellipse id="Ellipse_71-6" data-name="Ellipse 71" cx="4.5" cy="4" rx="4.5" ry="4" transform="translate(131 0.409)" fill="#2d43b2"/>
      <ellipse id="Ellipse_72-6" data-name="Ellipse 72" cx="4.5" cy="4" rx="4.5" ry="4" transform="translate(164 0.409)" fill="#2d43b2"/>
      <circle id="Ellipse_73-6" data-name="Ellipse 73" cx="4" cy="4" r="4" transform="translate(198 0.409)" fill="#2d43b2"/>
      <ellipse id="Ellipse_74-6" data-name="Ellipse 74" cx="4.5" cy="4" rx="4.5" ry="4" transform="translate(230 0.409)" fill="#2d43b2"/>
      <ellipse id="Ellipse_75-6" data-name="Ellipse 75" cx="4.5" cy="4" rx="4.5" ry="4" transform="translate(263 0.409)" fill="#2d43b2"/>
      <circle id="Ellipse_76-6" data-name="Ellipse 76" cx="4" cy="4" r="4" transform="translate(296 0.409)" fill="#2d43b2"/>
      <circle id="Ellipse_77-6" data-name="Ellipse 77" cx="4" cy="4" r="4" transform="translate(329 0.409)" fill="#2d43b2"/>
      <ellipse id="Ellipse_78-6" data-name="Ellipse 78" cx="4.5" cy="4" rx="4.5" ry="4" transform="translate(361 0.409)" fill="#2d43b2"/>
      <circle id="Ellipse_79-6" data-name="Ellipse 79" cx="4" cy="4" r="4" transform="translate(395 0.409)" fill="#2d43b2"/>
    </g>
    <g id="Groupe_1100" data-name="Groupe 1100" transform="translate(0 236.723)">
      <ellipse id="Ellipse_67-7" data-name="Ellipse 67" cx="4.5" cy="4" rx="4.5" ry="4" transform="translate(0 0.431)" fill="#2d43b2"/>
      <ellipse id="Ellipse_68-7" data-name="Ellipse 68" cx="4.5" cy="4" rx="4.5" ry="4" transform="translate(33 0.431)" fill="#2d43b2"/>
      <circle id="Ellipse_69-7" data-name="Ellipse 69" cx="4" cy="4" r="4" transform="translate(66 0.431)" fill="#2d43b2"/>
      <circle id="Ellipse_70-7" data-name="Ellipse 70" cx="4" cy="4" r="4" transform="translate(99 0.431)" fill="#2d43b2"/>
      <ellipse id="Ellipse_71-7" data-name="Ellipse 71" cx="4.5" cy="4" rx="4.5" ry="4" transform="translate(131 0.431)" fill="#2d43b2"/>
      <ellipse id="Ellipse_72-7" data-name="Ellipse 72" cx="4.5" cy="4" rx="4.5" ry="4" transform="translate(164 0.431)" fill="#2d43b2"/>
      <circle id="Ellipse_73-7" data-name="Ellipse 73" cx="4" cy="4" r="4" transform="translate(198 0.431)" fill="#2d43b2"/>
      <ellipse id="Ellipse_74-7" data-name="Ellipse 74" cx="4.5" cy="4" rx="4.5" ry="4" transform="translate(230 0.431)" fill="#2d43b2"/>
      <ellipse id="Ellipse_75-7" data-name="Ellipse 75" cx="4.5" cy="4" rx="4.5" ry="4" transform="translate(263 0.431)" fill="#2d43b2"/>
      <circle id="Ellipse_76-7" data-name="Ellipse 76" cx="4" cy="4" r="4" transform="translate(296 0.431)" fill="#2d43b2"/>
      <circle id="Ellipse_77-7" data-name="Ellipse 77" cx="4" cy="4" r="4" transform="translate(329 0.431)" fill="#2d43b2"/>
      <ellipse id="Ellipse_78-7" data-name="Ellipse 78" cx="4.5" cy="4" rx="4.5" ry="4" transform="translate(361 0.431)" fill="#2d43b2"/>
      <circle id="Ellipse_79-7" data-name="Ellipse 79" cx="4" cy="4" r="4" transform="translate(395 0.431)" fill="#2d43b2"/>
    </g>
    <g id="Groupe_1101" data-name="Groupe 1101" transform="translate(0 276.653)">
      <circle id="Ellipse_67-8" data-name="Ellipse 67" cx="4.5" cy="4.5" r="4.5" transform="translate(0 -0.498)" fill="#2d43b2"/>
      <circle id="Ellipse_68-8" data-name="Ellipse 68" cx="4.5" cy="4.5" r="4.5" transform="translate(33 -0.498)" fill="#2d43b2"/>
      <ellipse id="Ellipse_69-8" data-name="Ellipse 69" cx="4" cy="4.5" rx="4" ry="4.5" transform="translate(66 -0.498)" fill="#2d43b2"/>
      <ellipse id="Ellipse_70-8" data-name="Ellipse 70" cx="4" cy="4.5" rx="4" ry="4.5" transform="translate(99 -0.498)" fill="#2d43b2"/>
      <circle id="Ellipse_71-8" data-name="Ellipse 71" cx="4.5" cy="4.5" r="4.5" transform="translate(131 -0.498)" fill="#2d43b2"/>
      <circle id="Ellipse_72-8" data-name="Ellipse 72" cx="4.5" cy="4.5" r="4.5" transform="translate(164 -0.498)" fill="#2d43b2"/>
      <ellipse id="Ellipse_73-8" data-name="Ellipse 73" cx="4" cy="4.5" rx="4" ry="4.5" transform="translate(198 -0.498)" fill="#2d43b2"/>
      <circle id="Ellipse_74-8" data-name="Ellipse 74" cx="4.5" cy="4.5" r="4.5" transform="translate(230 -0.498)" fill="#2d43b2"/>
      <circle id="Ellipse_75-8" data-name="Ellipse 75" cx="4.5" cy="4.5" r="4.5" transform="translate(263 -0.498)" fill="#2d43b2"/>
      <ellipse id="Ellipse_76-8" data-name="Ellipse 76" cx="4" cy="4.5" rx="4" ry="4.5" transform="translate(296 -0.498)" fill="#2d43b2"/>
      <ellipse id="Ellipse_77-8" data-name="Ellipse 77" cx="4" cy="4.5" rx="4" ry="4.5" transform="translate(329 -0.498)" fill="#2d43b2"/>
      <circle id="Ellipse_78-8" data-name="Ellipse 78" cx="4.5" cy="4.5" r="4.5" transform="translate(361 -0.498)" fill="#2d43b2"/>
      <ellipse id="Ellipse_79-8" data-name="Ellipse 79" cx="4" cy="4.5" rx="4" ry="4.5" transform="translate(395 -0.498)" fill="#2d43b2"/>
    </g>
    <g id="Groupe_1102" data-name="Groupe 1102" transform="translate(0 315.631)">
      <circle id="Ellipse_67-9" data-name="Ellipse 67" cx="4.5" cy="4.5" r="4.5" transform="translate(0 -0.477)" fill="#2d43b2"/>
      <circle id="Ellipse_68-9" data-name="Ellipse 68" cx="4.5" cy="4.5" r="4.5" transform="translate(33 -0.477)" fill="#2d43b2"/>
      <ellipse id="Ellipse_69-9" data-name="Ellipse 69" cx="4" cy="4.5" rx="4" ry="4.5" transform="translate(66 -0.477)" fill="#2d43b2"/>
      <ellipse id="Ellipse_70-9" data-name="Ellipse 70" cx="4" cy="4.5" rx="4" ry="4.5" transform="translate(99 -0.477)" fill="#2d43b2"/>
      <circle id="Ellipse_71-9" data-name="Ellipse 71" cx="4.5" cy="4.5" r="4.5" transform="translate(131 -0.477)" fill="#2d43b2"/>
      <circle id="Ellipse_72-9" data-name="Ellipse 72" cx="4.5" cy="4.5" r="4.5" transform="translate(164 -0.477)" fill="#2d43b2"/>
      <ellipse id="Ellipse_73-9" data-name="Ellipse 73" cx="4" cy="4.5" rx="4" ry="4.5" transform="translate(198 -0.477)" fill="#2d43b2"/>
      <circle id="Ellipse_74-9" data-name="Ellipse 74" cx="4.5" cy="4.5" r="4.5" transform="translate(230 -0.477)" fill="#2d43b2"/>
      <circle id="Ellipse_75-9" data-name="Ellipse 75" cx="4.5" cy="4.5" r="4.5" transform="translate(263 -0.477)" fill="#2d43b2"/>
      <ellipse id="Ellipse_76-9" data-name="Ellipse 76" cx="4" cy="4.5" rx="4" ry="4.5" transform="translate(296 -0.477)" fill="#2d43b2"/>
      <ellipse id="Ellipse_77-9" data-name="Ellipse 77" cx="4" cy="4.5" rx="4" ry="4.5" transform="translate(329 -0.477)" fill="#2d43b2"/>
      <circle id="Ellipse_78-9" data-name="Ellipse 78" cx="4.5" cy="4.5" r="4.5" transform="translate(361 -0.477)" fill="#2d43b2"/>
      <ellipse id="Ellipse_79-9" data-name="Ellipse 79" cx="4" cy="4.5" rx="4" ry="4.5" transform="translate(395 -0.477)" fill="#2d43b2"/>
    </g>
    <g id="Groupe_1103" data-name="Groupe 1103" transform="translate(0 355.561)">
      <circle id="Ellipse_67-10" data-name="Ellipse 67" cx="4.5" cy="4.5" r="4.5" transform="translate(0 -0.406)" fill="#2d43b2"/>
      <circle id="Ellipse_68-10" data-name="Ellipse 68" cx="4.5" cy="4.5" r="4.5" transform="translate(33 -0.406)" fill="#2d43b2"/>
      <ellipse id="Ellipse_69-10" data-name="Ellipse 69" cx="4" cy="4.5" rx="4" ry="4.5" transform="translate(66 -0.406)" fill="#2d43b2"/>
      <ellipse id="Ellipse_70-10" data-name="Ellipse 70" cx="4" cy="4.5" rx="4" ry="4.5" transform="translate(99 -0.406)" fill="#2d43b2"/>
      <circle id="Ellipse_71-10" data-name="Ellipse 71" cx="4.5" cy="4.5" r="4.5" transform="translate(131 -0.406)" fill="#2d43b2"/>
      <circle id="Ellipse_72-10" data-name="Ellipse 72" cx="4.5" cy="4.5" r="4.5" transform="translate(164 -0.406)" fill="#2d43b2"/>
      <ellipse id="Ellipse_73-10" data-name="Ellipse 73" cx="4" cy="4.5" rx="4" ry="4.5" transform="translate(198 -0.406)" fill="#2d43b2"/>
      <circle id="Ellipse_74-10" data-name="Ellipse 74" cx="4.5" cy="4.5" r="4.5" transform="translate(230 -0.406)" fill="#2d43b2"/>
      <circle id="Ellipse_75-10" data-name="Ellipse 75" cx="4.5" cy="4.5" r="4.5" transform="translate(263 -0.406)" fill="#2d43b2"/>
      <ellipse id="Ellipse_76-10" data-name="Ellipse 76" cx="4" cy="4.5" rx="4" ry="4.5" transform="translate(296 -0.406)" fill="#2d43b2"/>
      <ellipse id="Ellipse_77-10" data-name="Ellipse 77" cx="4" cy="4.5" rx="4" ry="4.5" transform="translate(329 -0.406)" fill="#2d43b2"/>
      <circle id="Ellipse_78-10" data-name="Ellipse 78" cx="4.5" cy="4.5" r="4.5" transform="translate(361 -0.406)" fill="#2d43b2"/>
      <ellipse id="Ellipse_79-10" data-name="Ellipse 79" cx="4" cy="4.5" rx="4" ry="4.5" transform="translate(395 -0.406)" fill="#2d43b2"/>
    </g>
    <g id="Groupe_1104" data-name="Groupe 1104" transform="translate(0 394.539)">
      <circle id="Ellipse_67-11" data-name="Ellipse 67" cx="4.5" cy="4.5" r="4.5" transform="translate(0 -0.385)" fill="#2d43b2"/>
      <circle id="Ellipse_68-11" data-name="Ellipse 68" cx="4.5" cy="4.5" r="4.5" transform="translate(33 -0.385)" fill="#2d43b2"/>
      <ellipse id="Ellipse_69-11" data-name="Ellipse 69" cx="4" cy="4.5" rx="4" ry="4.5" transform="translate(66 -0.385)" fill="#2d43b2"/>
      <ellipse id="Ellipse_70-11" data-name="Ellipse 70" cx="4" cy="4.5" rx="4" ry="4.5" transform="translate(99 -0.385)" fill="#2d43b2"/>
      <circle id="Ellipse_71-11" data-name="Ellipse 71" cx="4.5" cy="4.5" r="4.5" transform="translate(131 -0.385)" fill="#2d43b2"/>
      <circle id="Ellipse_72-11" data-name="Ellipse 72" cx="4.5" cy="4.5" r="4.5" transform="translate(164 -0.385)" fill="#2d43b2"/>
      <ellipse id="Ellipse_73-11" data-name="Ellipse 73" cx="4" cy="4.5" rx="4" ry="4.5" transform="translate(198 -0.385)" fill="#2d43b2"/>
      <circle id="Ellipse_74-11" data-name="Ellipse 74" cx="4.5" cy="4.5" r="4.5" transform="translate(230 -0.385)" fill="#2d43b2"/>
      <circle id="Ellipse_75-11" data-name="Ellipse 75" cx="4.5" cy="4.5" r="4.5" transform="translate(263 -0.385)" fill="#2d43b2"/>
      <ellipse id="Ellipse_76-11" data-name="Ellipse 76" cx="4" cy="4.5" rx="4" ry="4.5" transform="translate(296 -0.385)" fill="#2d43b2"/>
      <ellipse id="Ellipse_77-11" data-name="Ellipse 77" cx="4" cy="4.5" rx="4" ry="4.5" transform="translate(329 -0.385)" fill="#2d43b2"/>
      <circle id="Ellipse_78-11" data-name="Ellipse 78" cx="4.5" cy="4.5" r="4.5" transform="translate(361 -0.385)" fill="#2d43b2"/>
      <ellipse id="Ellipse_79-11" data-name="Ellipse 79" cx="4" cy="4.5" rx="4" ry="4.5" transform="translate(395 -0.385)" fill="#2d43b2"/>
    </g>
  </g>
</svg>
