<svg xmlns="http://www.w3.org/2000/svg" xmlns:xlink="http://www.w3.org/1999/xlink" width="522.185" height="461.279" viewBox="0 0 522.185 461.279">
  <defs>
    <linearGradient id="linear-gradient" x1="0.5" y1="1" x2="0.5" gradientUnits="objectBoundingBox">
      <stop offset="0" stop-color="#c5cadd"/>
      <stop offset="1" stop-color="#e4eff1"/>
    </linearGradient>
  </defs>
  <g id="Groupe_3928" data-name="Groupe 3928" transform="translate(-1190.128 -4450.721)">
    <g id="Groupe_3707" data-name="Groupe 3707" transform="translate(1269 4609.568)">
      <path id="Tracé_12151" data-name="Tracé 12151" d="M57.755,500.6c.025.027,481.8-.091,481.8-.091,15.863-52.626,46.931-197.48-22.995-356.023C481.547,65.105,406.7,38.442,339.348,42.022c-73.053,3.883-140.87,49.744-200.587,57.711-71.828,18-85.843,94.268-59.349,152.254,27.139,59.4,4.659,66.284-18.739,99.8C29.446,396.517,32.709,469.665,57.755,500.6Z" transform="translate(-116.983 -200.557)" opacity="0.5" fill="url(#linear-gradient)"/>
      <g id="Groupe_3704" data-name="Groupe 3704" transform="translate(6.727 35.353)">
        <path id="Tracé_11935" data-name="Tracé 11935" d="M201,406.326s-36,.719-37.059-.747c-.7-.973.6-6.425,1.552-9.986h17.594a11.558,11.558,0,0,0,5.391,3.565c3.555.869,11.524.181,12.143,2.9A12.53,12.53,0,0,1,201,406.326Z" transform="translate(-92.303 -140.301)" fill="#2d43b2"/>
        <path id="Tracé_11936" data-name="Tracé 11936" d="M182.65,396.373H165.056c.481-1.809.879-3.131.879-3.131l15.409.8a.673.673,0,0,0,0,.415A6.168,6.168,0,0,0,182.65,396.373Z" transform="translate(-91.542 -141.08)" fill="#f8c2a0"/>
        <path id="Tracé_11937" data-name="Tracé 11937" d="M182.65,396.373H165.056c.481-1.809.879-3.131.879-3.131l15.409.8a.673.673,0,0,0,0,.415A6.168,6.168,0,0,0,182.65,396.373Z" transform="translate(-91.542 -141.08)" fill="#fff"/>
        <path id="Tracé_11938" data-name="Tracé 11938" d="M161.47,405.649s-36,.719-37.056-.747c-.7-.973.6-6.425,1.55-9.986h17.6a11.544,11.544,0,0,0,5.391,3.565c3.555.869,11.521.181,12.143,2.9A12.429,12.429,0,0,1,161.47,405.649Z" transform="translate(-101.621 -140.525)" fill="#2d43b2"/>
        <path id="Tracé_11939" data-name="Tracé 11939" d="M143.124,395.7h-17.6c.483-1.809.881-3.131.881-3.131l15.409.8a.674.674,0,0,0,0,.415A6.2,6.2,0,0,0,143.124,395.7Z" transform="translate(-101.001 -141.305)" fill="#fff"/>
        <path id="Tracé_11985" data-name="Tracé 11985" d="M147.575,226.166l1.661-3.745h14.382l1.282,3.485Z" transform="translate(-95.719 -181.638)" fill="#fff"/>
        <path id="Tracé_11989" data-name="Tracé 11989" d="M126.233,235.581l0,.008c-.027.079-.055.1-.063.1v.005l-8.435,3.806s-5.975-4.728-7.551-7.123-3.744-6.863-2.99-7.977,4.761,4.1,5.978,4.266a26.419,26.419,0,0,0,4.168-.162s-1.61-3.58-.821-4.071,8.6,5.742,9.322,8.4A6.017,6.017,0,0,1,126.233,235.581Z" transform="translate(-107.037 -183.99)" fill="#ffbb8b"/>
        <path id="Tracé_11986" data-name="Tracé 11986" d="M197.916,296.351c-.148.237-.177,45.773,0,50.85s-1.05,32.216-1.492,36.415-3.3,44.671-4.286,45.523c-.728.631-1.154.543-1.271.766l-14.7-.766a4.4,4.4,0,0,1-1.576-1.973,260.122,260.122,0,0,1-1.025-27.047c.325-8.273,2.556-22.848,1.9-29.807s-3.284-43.067-4.6-46.659c-4.288,11.73-13.134,35.017-15.409,45s-2.45,24.426-4.463,31.429-7.791,28.668-9.014,28.93a1.688,1.688,0,0,0-.971.479H125.474c-.177-.787-2.319-1.223-2.016-2.494s3.724-17.375,4.857-22.891,7.882-43.334,8.757-49.985,10.547-64.166,10.547-66.006c0-.061,0-.128.005-.2Z" transform="translate(-102.446 -176.941)" fill="#41363a"/>
        <path id="Tracé_11987" data-name="Tracé 11987" d="M121.407,232.867l.063-.1C121.444,232.843,121.415,232.865,121.407,232.867Z" transform="translate(-101.741 -179.01)" fill="#f8c2a0"/>
        <path id="Tracé_12003" data-name="Tracé 12003" d="M212.644,234.01l-7.655-3.071c.057-.083.1-.133.1-.133a6.4,6.4,0,0,1,.611-2.878c.193-.254.925-1.022,1.839-1.977,2-2.1,4.907-5.116,5.186-5.546.335-.567,2.028-.482,1.976.659a.857.857,0,0,1-.068.205c-.421,1.029-1.118,2.122-1.3,2.829v.013a.881.881,0,0,0-.033.349c.019.229.177.385.526.409,1.271.095,4.787.045,5.892-.686.027-.012.049-.037.085-.06.682-.539,1.3-3.023,2.194-4.307a.961.961,0,0,1,1-.326c1.692.482-.756,8.738-2.938,9.555s-7.107,3.792-7.385,4.574a.506.506,0,0,0-.033.2v.064C212.634,233.925,212.644,233.963,212.644,234.01Z" transform="translate(-81.218 -174.763)" fill="#ffbb8b"/>
        <path id="Tracé_11988" data-name="Tracé 11988" d="M237.079,244.651l-.112.273c-.031.079-.071.173-.117.284-.021.053-.047.11-.073.166-.164.4-.4.955-.692,1.636-.047.1-.093.209-.14.322-.013.031-.033.068-.047.1-2.6,5.963-9.085,19.891-15.346,25.893-1.839,1.768-3.658,2.848-5.359,2.837-9.15-.044-18.033-8.578-18.033-8.578s1.053,19.749,1.479,24.084,3.547,12.986,1.828,15.49h0s-31.494,1.918-52.484,0c.027-2.093,1.6-11.138,3.481-19.2-.33-3.612-3.481-28.628-3.481-28.628s-13.128,22.915-21.8,22.915-10.9-20.419-11.093-25.54c-.156-4.039-.071-12.492-.024-15.884.013-.9.024-1.45.024-1.45l8.435-3.806a1.408,1.408,0,0,1,.917.361,1.429,1.429,0,0,1,.469.868c.12.8.292,1.961.507,3.306.892,5.585,2.5,14.39,3.721,14.48,1.789.136,9.628-27.748,21.007-29.106a165.713,165.713,0,0,1,24.117-.7s13.177.133,17.114,2.977,20.553,29.348,22.453,29.348c1.62,0,11.384-12.93,14.285-16.827.469-.624.754-1.016.808-1.086a.013.013,0,0,0,0-.007c.005,0,.005-.005.005-.005l7.192,3.026a2.565,2.565,0,0,1,.486.371,1.762,1.762,0,0,1,.466,2.073Z" transform="translate(-105.259 -184.416)" fill="#fff"/>
        <g id="Groupe_3629" data-name="Groupe 3629" transform="translate(46.533)">
          <g id="Groupe_3627" data-name="Groupe 3627" transform="translate(0.16 7.697)">
            <path id="Tracé_11995" data-name="Tracé 11995" d="M163.536,219.081v8.256c-.374.88-1.677,1.273-3.372,1.334-.188.005-.379.008-.58.008h0c-4.738-.027-11.832-2.293-11.007-3.77a3.648,3.648,0,0,0,.21-.445c1.04-2.619,1.74-10.039,1.776-10.1Z" transform="translate(-141.967 -190.562)" fill="#f8c2a0"/>
            <path id="Tracé_11996" data-name="Tracé 11996" d="M147.595,214.219a17.626,17.626,0,0,0,.931,3.951c.406.836.811,1.671,1.274,2.476a12.7,12.7,0,0,0,10.162,6.882,8.29,8.29,0,0,0,5.58-.98c1.981-1.249,3.039-3.436,3.776-5.58a35.02,35.02,0,0,0,1.536-8.112,136.172,136.172,0,0,0,.827-13.678l-20.838-1.009Z" transform="translate(-142.272 -195.928)" fill="#ffbb8b"/>
            <path id="Tracé_11997" data-name="Tracé 11997" d="M173.589,200.993a12.672,12.672,0,0,0-.692-3.058,13.291,13.291,0,0,0-.624-1.448,12.4,12.4,0,0,1,.554,2.647c.148,1.516-1.566,2.135-2.744,2.447a11.454,11.454,0,0,1-5.44.246,23.893,23.893,0,0,1-4.455-1.78,18.712,18.712,0,0,0-4.127-1.381c-1.217-.234-2.968-.518-4.077.164a3.511,3.511,0,0,0-1.315,2.487,42.344,42.344,0,0,0-.619,5.217c-.005.068-.008.134-.013.2a4.426,4.426,0,0,0-1.792-.366,4.164,4.164,0,0,0-3.947,2.576,6.205,6.205,0,0,1-.7-.935,6.477,6.477,0,0,0,.611,1.6c.028.052.063.107.091.16s.063.1.093.149.06.1.093.145.063.1.1.142.079.112.122.166.1.124.145.188.093.112.14.164.071.079.107.12l.136.142c.039.033.073.071.109.107.063.063.13.125.194.182.033.028.071.059.1.087.073.063.145.121.218.178.033.027.071.052.1.079.063.048.13.093.193.138.033.024.071.048.1.069.091.064.19.121.284.178l.031.016c.1.06.2.11.3.164l.1.049.24.109c.036.016.071.028.1.044.112.044.229.088.346.126,1.685.576,3.23.956,3.123.361a19.009,19.009,0,0,1,.028-4.477q.036-.581.083-1.162a38.3,38.3,0,0,1,.533-4.057,3.523,3.523,0,0,1,1.321-2.486c1.108-.683,2.857-.4,4.075-.162a18.666,18.666,0,0,1,4.124,1.378,23.753,23.753,0,0,0,4.457,1.78,11.422,11.422,0,0,0,5.44-.245C172.023,203.129,173.734,202.514,173.589,200.993Z" transform="translate(-143.595 -196.486)" fill="#020711" opacity="0.25"/>
            <ellipse id="Ellipse_231" data-name="Ellipse 231" cx="4.176" cy="3.82" rx="4.176" ry="3.82" transform="translate(1.266 11.371)" fill="#f8c2a0"/>
          </g>
          <g id="Groupe_3628" data-name="Groupe 3628">
            <path id="Tracé_11998" data-name="Tracé 11998" d="M173.628,202.908a12.673,12.673,0,0,0-.692-3.058c-2.218-6.159-8.373-9.488-14.738-9.117-5,.3-11.395,2.639-13.285,7.723a29.991,29.991,0,0,0-1.438,9.993,6.239,6.239,0,0,0,4.228,5.979c.188.069.374.129.557.185a19.955,19.955,0,0,0,1.261,8.549c.6,1.192,5.006,6.119,9.772,7.786s10.648-1.042,11.283-1.733a2,2,0,0,0,.125-1.773h0s.052-5.9-.635-7.627a.013.013,0,0,0,0-.007,4.143,4.143,0,0,0-1.464-1.851,3.954,3.954,0,0,0-2.062-.538c-.237-.005-.471-.005-.7,0a5.848,5.848,0,0,0-2.174.414,4.022,4.022,0,0,0-1.62,1.35h-.005s-2.592,2.972-2.3,6.067a9.7,9.7,0,0,1-4.1-2.515c-1.47-1.586-2.054-3.605-2.78-5.582-.557-1.526-1.032-3.089-1.456-4.661a15.833,15.833,0,0,1-.429-2.191c-.028-.2-.047-.4-.068-.6a39.742,39.742,0,0,1,.572-4.605,3.523,3.523,0,0,1,1.321-2.486c1.108-.683,2.857-.4,4.075-.162a18.664,18.664,0,0,1,4.124,1.378,23.757,23.757,0,0,0,4.457,1.78,11.423,11.423,0,0,0,5.44-.245C172.063,205.045,173.774,204.43,173.628,202.908Zm-11.906,19.429c.1-.815.278-2.512,1.323-2.556a52.056,52.056,0,0,1,5.783-.036c.289.021.57.036.684.308a2.633,2.633,0,0,1,.1.582,19.843,19.843,0,0,1,.3,2.6,2.654,2.654,0,0,1-.445,2.125,2.887,2.887,0,0,1-1.2.652,8.536,8.536,0,0,1-3.238.3c-.117-.012-.229-.019-.341-.031-.5-.052-1-.136-1.5-.229-.3-.057-1.425-.117-1.454-.463C161.652,224.485,161.722,223.426,161.722,222.337Z" transform="translate(-143.475 -190.705)" fill="#c93500"/>
          </g>
        </g>
      </g>
      <path id="Tracé_12152" data-name="Tracé 12152" d="M260.943,164.6C262,138.46,240.1,126.849,217.7,126.849s-46.772,5.806-48.881,40.555c-1.36,22.357,10.56,36.115,44.874,36.115,11.577,0,20.57-1.828,27.459-5.082L258.3,213.681l-8.432-21.069C257.34,185.668,260.488,175.872,260.943,164.6Z" transform="translate(-188.31 -191.526)" fill="#fff"/>
      <g id="Groupe_3705" data-name="Groupe 3705" transform="translate(114.244 -42.106)">
        <g id="Groupe_3624" data-name="Groupe 3624" transform="translate(128.388 319.538)">
          <path id="Tracé_11940" data-name="Tracé 11940" d="M277.312,406.471c.22,2.964,4.4,3,9.15,2.448s3.487.649,10.135.744,8.939-2.106,9.262-3.057c.29-.843-2.914-1.553-6.339-2.386-.432-.1-.866-.211-1.3-.318-3.865-.984-6.42-3.874-9.725-6.4-3.129-2.391-7.166-11.046-7.166-11.046l-9.084-.409s3.827,7.756,5.261,11.1c.844,1.964.483,4.383.12,6.237A11.635,11.635,0,0,0,277.312,406.471Z" transform="translate(-272.249 -386.048)" fill="#f8c2a0"/>
          <path id="Tracé_11941" data-name="Tracé 11941" d="M281.415,404.331c4.748-.551,3.487.649,10.135.744s8.939-2.106,9.262-3.057c.29-.843-2.914-1.553-6.339-2.386l-.042.064a18.642,18.642,0,0,1-9.753,1.746c-4.464-.445-9.02-2.308-12.1-2.642a11.64,11.64,0,0,0-.315,3.085C272.485,404.847,276.665,404.883,281.415,404.331Z" transform="translate(-267.201 -381.46)" fill="#41363a"/>
        </g>
        <path id="Tracé_11947" data-name="Tracé 11947" d="M356.616,425.683a2.977,2.977,0,0,1-2.7,3.88l-4.743.222-5.016.155a4.03,4.03,0,0,1-3.246-1.485,140.938,140.938,0,0,1-23.8-45.071q-.314-1-.669-2.023c-4.935-14.4-15.17-32.47-20.564-48.827-.861-2.605-1.63-5.057-2.321-7.381q-.334-1.112-.646-2.191a173.452,173.452,0,0,1-6.186-32.567l38.952.311A857.571,857.571,0,0,0,356.616,425.683Z" transform="translate(-211.234 -100.927)" fill="#273b8b"/>
        <g id="Groupe_3625" data-name="Groupe 3625" transform="translate(74.918 314.078)">
          <path id="Tracé_11942" data-name="Tracé 11942" d="M318.393,408.53c.215,2.968,4.4,3.005,9.147,2.457s3.487.655,10.135.755,8.942-2.1,9.263-3.043c.29-.843-2.914-1.557-6.337-2.395-.432-.1-.863-.211-1.3-.322-3.862-.985-6.417-3.881-9.716-6.4-3.132-2.4-.005-16.571-.005-16.571l-9.986-.974s.476,11.935.471,17.359c0,2.144-.989,4.2-1.354,6.057A11.479,11.479,0,0,0,318.393,408.53Z" transform="translate(-318.376 -382.033)" fill="#f8c2a0"/>
          <path id="Tracé_11943" data-name="Tracé 11943" d="M327.541,404.791c4.751-.545,3.487.655,10.135.755s8.942-2.1,9.263-3.043c.29-.843-2.914-1.557-6.337-2.395l-.039.061a18.621,18.621,0,0,1-9.758,1.739c-4.461-.454-9.014-2.318-12.09-2.656a11.445,11.445,0,0,0-.321,3.083C318.609,405.3,322.793,405.34,327.541,404.791Z" transform="translate(-318.377 -375.837)" fill="#41363a"/>
        </g>
        <path id="Tracé_11944" data-name="Tracé 11944" d="M366.28,226.488c1.719-7.074-.775-10.366-3.023-12.121-1.068-2.6-2.284-4.479-3.53-5.185a12.723,12.723,0,0,0-6.894-1.316,3.233,3.233,0,0,1,1.455-.691c-1.179-.177-3.814.991-3.814.991-16.416-6.324-19,17.845-18.65,23.461s.3,12.225-8.242,16.65c-16.293,8.439,5.415,40.25,5.415,40.25-.415-4.538,20.52-28.48,31.44-35.654,2.661-3.914,3.606-10.827,3.676-11.373-.457,5.484-1.394,8.559-2.234,10.29C366.858,247.21,367.6,236.207,366.28,226.488Z" transform="translate(-261.182 -115.967)" fill="#41363a"/>
        <path id="Tracé_11945" data-name="Tracé 11945" d="M338.365,245.309c.056.023-5.337,2.792-9.394,1.693-3.817-1.025-6.31-5.915-6.259-5.925,1.616-.317,2.081-2.512,2.048-11.939l.731.141,12.287,2.4s-.282,3.82-.29,7.418C337.481,242.12,337.666,244.987,338.365,245.309Z" transform="translate(-240.813 -107.718)" fill="#f8c2a0"/>
        <path id="Tracé_11946" data-name="Tracé 11946" d="M335.276,231.646s-.279,3.82-.287,7.418c-6.791-.193-10.379-6.388-11.851-9.822Z" transform="translate(-238.615 -107.386)" fill="#e6b899"/>
        <path id="Tracé_11948" data-name="Tracé 11948" d="M352.492,287.52c-.1,18.536,2.72,26.488,2.72,26.488a52.34,52.34,0,0,1-36.5,2.234c-.234-.072-5.445-30.622-4.948-33.385a58.847,58.847,0,0,0,.481-15.528,124.384,124.384,0,0,0-4.8-24.385c5.4-1.231,10.458-3.389,16.078-5.5,1.293,1.61,5.245,3.293,8.674,3.219,3.949-.088,5.227-1.779,5.025-3.623,4.207,2.34,7.563,4.551,7.563,4.551,3.575,6.21,10.828,12.245,11.352,21.772C358.269,265.71,352.5,287,352.492,287.52Z" transform="translate(-241.94 -106.84)" fill="#fff"/>
        <path id="Tracé_11949" data-name="Tracé 11949" d="M347.013,284.207c-1.7,2.408-4.966,17.056-13.088,18.9,4.183-10.439,7.362-15.016,7.858-18.224a79.306,79.306,0,0,0,.481-18.039c2.72-4.765,4.748-8.031,4.748-8.031.215-.771,4.322-13.468,5.636-2.12S348.918,281.511,347.013,284.207Z" transform="translate(-269.522 -103.138)" fill="#6c88bf"/>
        <path id="Tracé_11950" data-name="Tracé 11950" d="M333.8,240.691s-16.068.262-16.084-9.744-2.09-16.713,8.17-17.309,12.255,3.225,13.072,6.565S337.977,240.363,333.8,240.691Z" transform="translate(-234.933 -112.161)" fill="#f8c2a0"/>
        <path id="Tracé_11951" data-name="Tracé 11951" d="M343.716,214.066s-4.6,12.243-11.672,14.052-10.135-.077-10.135-.077a19.91,19.91,0,0,0,6.546-11.776S340.242,208.24,343.716,214.066Z" transform="translate(-245.073 -113.724)" fill="#41363a"/>
        <path id="Tracé_11952" data-name="Tracé 11952" d="M316.728,214.649s3.288,2.623,4.088,5.171,1.161,7.793,2.691,7.616c0,0,3.315-7.978-.412-12.494C319.144,210.152,316.728,214.649,316.728,214.649Z" transform="translate(-220.272 -111.955)" fill="#41363a"/>
        <path id="Tracé_11953" data-name="Tracé 11953" d="M306.588,283.625l7.588,23.136-4.328,1.734L297.3,288.054Z" transform="translate(-184.571 -93.591)" fill="#f8c2a0"/>
        <path id="Tracé_11954" data-name="Tracé 11954" d="M301.493,239.389s8.948,3.55,11.539,9.088,6.509,42.671,8.074,46.485,2.733,6.83,2.733,6.83-4.509,3.8-9.048,4.082S301.493,239.389,301.493,239.389Z" transform="translate(-199.294 -107.119)" fill="#00b48b"/>
        <path id="Tracé_11955" data-name="Tracé 11955" d="M302.375,237.043s9.3,22.966,9.569,27.612,1.095,76.005,1.095,76.005-.547,3.28,5.74,1.911a79.247,79.247,0,0,0,10.438-2.955s-8.524-43.8-6.882-59.1-12.578-40.279-12.578-40.279Z" transform="translate(-207.086 -108.182)" fill="#00b48b"/>
        <path id="Tracé_11956" data-name="Tracé 11956" d="M356.034,368.4c.09,11.831-.481,38.2-1.95,51.1a2.36,2.36,0,0,1-2.363,2.072h-4.063c-1.713,0-3-.013-3.846-.027a1.554,1.554,0,0,1-1.508-1.238c-4.04-20.156-6.935-36.9-9.054-51.372-1.769-12.109-3.344-22.493-4.555-31.434-1.218-8.993-2.068-16.525-2.369-22.889q-.071-1.5-.1-2.923t-.014-2.773l33.653-3.216C359.437,327.618,355.979,361.133,356.034,368.4Z" transform="translate(-265.99 -93.066)" fill="#2d43b2"/>
        <path id="Tracé_11957" data-name="Tracé 11957" d="M355.987,339.166s-2.372,8.567-10.573,7.472-19.863-6.013-19.863-6.013,3.5-11.076,7.861-25.627c5.277-17.614,11.806-40.321,14.886-54.644a88.676,88.676,0,0,0,1.671-9.769l6.8-13.2s10.148,22.77,10.695,28.511S355.987,339.166,355.987,339.166Z" transform="translate(-272.346 -109.932)" fill="#00b48b"/>
        <path id="Tracé_11958" data-name="Tracé 11958" d="M331.055,265.043l8.98-27.656c-.024.011-11.344,3.37-17.037,6.244,0,0-3.556,4.589-5.757,15.174,0,0-2.327,25.412,2.868,34.706,0,0,16.4,3.279,42.645-5.744v-6.013s-28.7,1.5-34.58,2.185Z" transform="translate(-256.254 -107.166)" fill="#f8c2a0"/>
        <path id="Tracé_11959" data-name="Tracé 11959" d="M356.481,271.85c-.364,9.3-2.552,27.339-22.055,37-.05.026-.1.052-.154.073,5.277-17.614,11.806-40.321,14.886-54.644C352.739,259.629,356.68,266.732,356.481,271.85Z" transform="translate(-273.417 -102.723)" fill="#00a781"/>
        <path id="Tracé_11960" data-name="Tracé 11960" d="M356.909,237.387s-16.647,1.174-20.657,10.1-5.288,38.642-.184,47.391c0,0,7.025,2,19.455-.321l.457-.088s3.965-9.708.415-11.621c0,0-10.48.549-9.391-2.917S356.909,237.387,356.909,237.387Z" transform="translate(-272.684 -107.24)" fill="#00b48b"/>
        <path id="Tracé_11963" data-name="Tracé 11963" d="M295.811,300.174s6.932,3.829,7.843,6.747.284,9.028-.816,8.935-2.741-6.565-3.652-7.021S297,307.014,297,308.015s.911,2.826.454,3.1-1.915-2.551-2.917-3.1-1.424-5.056-2.4-6.266S295.811,300.174,295.811,300.174Z" transform="translate(-167.992 -88.745)" fill="#f8c2a0"/>
        <path id="Tracé_11964" data-name="Tracé 11964" d="M307.722,270.887s6.2-3.817,8.8-3.23,9.226,5.385,6.039,6.424-5.768-.049-7,.706-2.129,2.133-7.843,2.114S307.722,270.887,307.722,270.887Z" transform="translate(-203.728 -96.312)" fill="#f8c2a0"/>
        <path id="Tracé_12005" data-name="Tracé 12005" d="M88.355,31.806C89.367,9.782,68.382,0,46.926,0S2.118,4.89.1,34.171C-1.2,53.01,10.215,64.6,43.087,64.6c11.088,0,19.7-1.537,26.3-4.281L85.826,73.163,77.75,55.408C84.905,49.56,87.917,41.308,88.355,31.806Z" transform="matrix(0.999, 0.052, -0.052, 0.999, 3.829, 0)" fill="#fff"/>
      </g>
      <g id="Groupe_3706" data-name="Groupe 3706" transform="translate(239.936 -57.088)">
        <path id="Tracé_11965" data-name="Tracé 11965" d="M381.3,407.937c2.361-1.438,1.018-12.19,1.018-12.19s-11-8.8-12.515-2.061-10.452,9.762-15.542,10.587c-3.51.567-4.6,2.512-4.933,3.663H381.3Z" transform="translate(-301.678 -51.223)" fill="#00b48b"/>
        <path id="Tracé_11966" data-name="Tracé 11966" d="M417.124,407.937c2.361-1.438,1.018-12.19,1.018-12.19s-11-8.8-12.512-2.061-10.452,9.762-15.544,10.587c-3.51.567-4.6,2.512-4.933,3.663h31.972Z" transform="translate(-288.126 -51.223)" fill="#00b48b"/>
        <path id="Tracé_11967" data-name="Tracé 11967" d="M399.122,371.022a51.52,51.52,0,0,0-.809,5.94c-1.025,19.95-16.8,65.565-19.612,66.628-4.368,1.647-11.24-1.855-14.834-3a3.088,3.088,0,0,1-2.166-3.5c7.809-35.906,10.68-87.6,11.726-118.212a138.674,138.674,0,0,1,3.176-26.066s38.461-10.263,38.691,2.72C415.494,307.017,402.551,352.069,399.122,371.022Z" transform="translate(-296.784 -92.499)" fill="#362d30"/>
        <path id="Tracé_11969" data-name="Tracé 11969" d="M382.241,295.019l20.332,147.372s8.93,2.152,15.872.432c0,0,5.955-78.379,5.46-97.328s4.272-50.7-1.088-54.2S382.241,295.019,382.241,295.019Z" transform="translate(-288.461 -91.944)" fill="#41363a"/>
        <path id="Tracé_11970" data-name="Tracé 11970" d="M429.192,317.876a2.816,2.816,0,0,1-1.987,2.913c-2.771.824-5.964,1.394-12.123,2.7a114.881,114.881,0,0,1-23.132,2.38c-15.211.1-24.166-6.738-24.166-6.738-.657.011,2.908-16.8,2.908-16.8s2.134-12.377,2.348-20.789c.191-7.567.321-16.56.335-27.225.014-12.833,19.409-26.638,19.769-26.638l.005.008c0,1.848,2.844,5.258,7.223,5.551,5.2.347,11.576-2.3,11.576-5.367,0-.029,9.4,15.394,12.733,31.829C426.369,267.97,425.686,267.749,429.192,317.876Z" transform="translate(-292.274 -104.881)" fill="#2d43b2"/>
        <path id="Tracé_11971" data-name="Tracé 11971" d="M398.884,227.681s-21.514-.159-26.689,6.075-16.531,39.765-10.61,50.925,17.012-4.619,23.162-11.452S398.884,227.681,398.884,227.681Z" transform="translate(-296.271 -103.074)" fill="#2d43b2"/>
        <path id="Tracé_11972" data-name="Tracé 11972" d="M387.553,228.841l.011,1.908s-.521,5.971,6.833,6.844S407.2,236.477,407,231.869a66.536,66.536,0,0,1-1.327-10.181,21.316,21.316,0,0,1,.264-3.576l-14.244-.284-4.2.685Z" transform="translate(-286.336 -104.428)" fill="#945a30"/>
        <path id="Tracé_11973" data-name="Tracé 11973" d="M387.5,218.513l.052,10.326a12.057,12.057,0,0,0,5.136,1.134c6.548,0,10.779-4.8,12.989-8.286a21.31,21.31,0,0,1,.264-3.576l-14.244-.284Z" transform="translate(-286.337 -104.157)" fill="#804f2b"/>
        <path id="Tracé_11974" data-name="Tracé 11974" d="M408.179,222.843c-1.651,8.9-13.133,8.6-18.093,8.046-1.4-.156-2.273-.334-2.273-.334-1.574-.421-2.451-2.9-2.857-6.148-.814-6.427.211-15.863,1.3-18.274,1.631-3.631,4.71-7.56,16.269-4.724S410.3,211.446,408.179,222.843Z" transform="translate(-287.483 -110.101)" fill="#945a30"/>
        <path id="Tracé_11975" data-name="Tracé 11975" d="M374.539,248.375s-3.924,11.712-3.812,16.437a7.846,7.846,0,0,1,3.812.893C377.611,267.366,374.539,248.375,374.539,248.375Z" transform="translate(-293.113 -94.972)" fill="#273b8b"/>
        <path id="Tracé_11976" data-name="Tracé 11976" d="M383.3,199.575a38.165,38.165,0,0,0,11.088-3c4.87-2.117,11.015.215,13.012,1.266a2.914,2.914,0,0,0-.489-1.2,2.688,2.688,0,0,1,1.028,1.525c.093.069.135.114.11.131a3.4,3.4,0,0,1,1.668.108s-.455-.066-.616.226a.252.252,0,0,1-.077.081c7.6,3.671,8.3,15.679,5.854,18.458-2.94,3.341-7.382,10.907-7.382,10.907a13.8,13.8,0,0,1,.161-4.755c.538-2.944-2-2.944-5.216-4.279s-.532-5.081-3.343-7.355-13.1-.935-12.967-2.673C382.311,207.621,383.3,199.965,383.3,199.575Z" transform="translate(-288.079 -111.591)" fill="#2f1909"/>
        <path id="Tracé_11977" data-name="Tracé 11977" d="M415.367,266.53c-3.016,8.66-35.315,13.134-42.73,14.045.313-3.757.3-8.515.524-14.532Z" transform="translate(-292.341 -89.426)" fill="#273b8b"/>
        <path id="Tracé_11978" data-name="Tracé 11978" d="M398.555,273c.31,0,7.247-1.032,8.492-1.657s6.927-8.7,3.2-10.771-13.714,6.215-13.714,6.215Z" transform="translate(-282.688 -91.133)" fill="#945a30"/>
        <path id="Tracé_11979" data-name="Tracé 11979" d="M365.021,275.446s29.145,1.476,46.13-2.442a7.968,7.968,0,0,0-4.906-7.632s-26.475-6.045-32.835-4.364S365.021,275.446,365.021,275.446Z" transform="translate(-295.16 -90.234)" fill="#2d43b2"/>
        <path id="Tracé_11980" data-name="Tracé 11980" d="M418.4,267.44c-5.569,6.715-12.849,12.2-20.875,13.482h0a14.97,14.97,0,0,1-1.985-8.963,17.917,17.917,0,0,1,2.923-8.226,18.021,18.021,0,0,0,1.577-3.183c4.382-11.182,3.732-32.734,3.732-32.734s18.611,1.95,24.41,10.233C431.733,243.122,427.205,256.826,418.4,267.44Z" transform="translate(-283.112 -102.695)" fill="#2d43b2"/>
        <path id="Tracé_11981" data-name="Tracé 11981" d="M390,223.994c-1.4-.156-2.273-.334-2.273-.334-1.574-.421-2.451-2.9-2.857-6.148a7.785,7.785,0,0,1,4.865,3.979A5.71,5.71,0,0,1,390,223.994Z" transform="translate(-287.398 -104.064)" fill="#804f2b"/>
        <path id="Tracé_11982" data-name="Tracé 11982" d="M384.146,228.908s-6.427-10.605-1.429-11.067A7.562,7.562,0,0,1,390.444,222c.722,1.244-.19,6.85-.19,6.85Z" transform="translate(-289.038 -104.131)" fill="#945a30"/>
        <path id="Tracé_11983" data-name="Tracé 11983" d="M408.1,272.993a13.811,13.811,0,0,1-1.1,3.684,17.59,17.59,0,0,1-4.091,5.638h0c-16.691-7.534-20.069-33.41-20.637-47.627-.227-5.714,0-9.547,0-9.547,7.532-2.492,9.649,1.841,9.649,1.841s8.89,21.145,13.5,34.962C407.185,267.228,408.323,271.447,408.1,272.993Z" transform="translate(-288.491 -103.933)" fill="#2d43b2"/>
        <path id="Tracé_11984" data-name="Tracé 11984" d="M423.754,265.864c-5.569,6.715-12.849,12.2-20.875,13.482h0c-16.691-7.534-20.069-33.41-20.637-47.627,0,0,7.9,28.65,18.651,38.665a11.74,11.74,0,0,0,6.079,3.326s13.559-3.83,16.4-7.441A1.574,1.574,0,0,1,423.754,265.864Z" transform="translate(-288.462 -101.292)" fill="#273b8b"/>
        <path id="Tracé_12006" data-name="Tracé 12006" d="M400.691,164.713c1.042-22.738-20.621-32.838-42.774-32.838s-46.261,5.049-48.346,35.28c-1.349,19.45,10.444,31.419,44.383,31.419,11.448,0,20.343-1.586,27.158-4.42l16.968,13.259-8.338-18.331C397.129,183.042,400.238,174.523,400.691,164.713Z" transform="translate(-309.468 -131.875)" fill="#fff"/>
      </g>
    </g>
    <line id="Ligne_771" data-name="Ligne 771" x2="481" transform="translate(1210.5 4910.5)" fill="none" stroke="#41363a" stroke-miterlimit="10" stroke-width="3"/>
  </g>
</svg>
