<svg xmlns="http://www.w3.org/2000/svg" xmlns:xlink="http://www.w3.org/1999/xlink" width="373.119" height="328.371" viewBox="0 0 373.119 328.371">
  <defs>
    <linearGradient id="linear-gradient" x1="0.5" y1="1" x2="0.5" gradientUnits="objectBoundingBox">
      <stop offset="0" stop-color="#c5cadd"/>
      <stop offset="1" stop-color="#e4eff1"/>
    </linearGradient>
  </defs>
  <g id="Groupe_3927" data-name="Groupe 3927" transform="translate(-152 -1761)">
    <path id="Tracé_11689" data-name="Tracé 11689" d="M193.568,472.531c.018.019,344.262-.065,344.262-.065,11.334-37.606,33.534-141.12-16.431-254.415-25.017-56.729-78.5-75.782-126.623-73.224-52.2,2.775-49.924,41.24-125.9,41.24-35.829,0-61.338,67.364-42.407,108.8,19.392,42.448-14.1,47.367-30.821,71.318C173.342,398.15,175.674,450.422,193.568,472.531Z" transform="translate(-27.533 1616.396)" opacity="0.5" fill="url(#linear-gradient)"/>
    <g id="Groupe_3541" data-name="Groupe 3541" transform="translate(470.921 1958.123)">
      <path id="Tracé_11690" data-name="Tracé 11690" d="M555.177,367.37a2.207,2.207,0,0,1-1.566-.649l-8.261-8.259a2.217,2.217,0,0,1,3.135-3.136l6.523,6.523,8.953-11.008a2.217,2.217,0,1,1,3.44,2.8l-10.5,12.913a2.218,2.218,0,0,1-1.607.816Z" transform="translate(-544.7 -350.022)" fill="#c9dae5"/>
    </g>
    <path id="Tracé_11725" data-name="Tracé 11725" d="M223.092,434.959a4.922,4.922,0,1,1,4.921-4.923,4.929,4.929,0,0,1-4.921,4.923Zm0-14.7a9.794,9.794,0,0,0-9.784,9.781c0,6.694,8.755,16.523,9.128,16.938a.879.879,0,0,0,1.31,0c.373-.415,9.128-10.244,9.128-16.938a9.793,9.793,0,0,0-9.782-9.781Z" transform="translate(-19.688 1596.637)" fill="#c9dae5"/>
    <g id="Groupe_3544" data-name="Groupe 3544" transform="translate(333.383 1839.696)">
      <path id="Tracé_11726" data-name="Tracé 11726" d="M387.148,226.662l-.745-6.031.186-.185q6.886-.262,6.888-4.246a3.181,3.181,0,0,0-1.154-2.567,4.719,4.719,0,0,0-3.128-.969,8.2,8.2,0,0,0-6.069,2.942l-2.792-2.98a11.516,11.516,0,0,1,8.974-4.133,9.317,9.317,0,0,1,6.329,2.068,6.994,6.994,0,0,1,2.383,5.566,6.464,6.464,0,0,1-2.048,5.119,10.848,10.848,0,0,1-5.435,2.4l-.372,3.016h-3.017Zm-1.079,8.229v-5.1h4.987v5.1Z" transform="translate(-380.333 -208.494)" fill="#c9dae5"/>
    </g>
    <g id="Groupe_3818" data-name="Groupe 3818" transform="translate(413.171 1847.791)">
      <g id="Rectangle_854" data-name="Rectangle 854" transform="translate(-0.171 0.21)" fill="none" stroke="#41363a" stroke-width="2">
        <rect width="25" height="24" rx="7" stroke="none"/>
        <rect x="1" y="1" width="23" height="22" rx="6" fill="none"/>
      </g>
      <g id="Groupe_3708" data-name="Groupe 3708" transform="translate(3.778 7.189)">
        <path id="Tracé_11931" data-name="Tracé 11931" d="M93.148,119.426a1.411,1.411,0,0,1-2,0l-5.061-5.06a1.412,1.412,0,0,1,0-2h0a1.412,1.412,0,0,1,2,0l5.061,5.061a1.411,1.411,0,0,1,0,2Z" transform="translate(-85.679 -108.064)" fill="#00b48b"/>
        <path id="Tracé_11932" data-name="Tracé 11932" d="M118.448,98.431a1.411,1.411,0,0,1,0-2l8.954-8.954a1.411,1.411,0,0,1,1.995,0h0a1.41,1.41,0,0,1,0,1.995l-8.954,8.954a1.411,1.411,0,0,1-2,0Z" transform="translate(-112.974 -87.069)" fill="#00b48b"/>
      </g>
    </g>
    <g id="Groupe_3816" data-name="Groupe 3816" transform="translate(249.262 1892.155)">
      <path id="Tracé_11965" data-name="Tracé 11965" d="M350.338,403.239c-1.7-1.036-.733-8.781-.733-8.781s7.924-6.34,9.014-1.484,7.529,7.031,11.194,7.626c2.528.409,3.314,1.809,3.553,2.638H350.338Z" transform="translate(-302.324 -206.898)" fill="#00b48b"/>
      <path id="Tracé_11966" data-name="Tracé 11966" d="M386.159,403.239c-1.7-1.036-.733-8.781-.733-8.781s7.922-6.34,9.012-1.484,7.529,7.031,11.2,7.626c2.528.409,3.312,1.809,3.553,2.638H386.159Z" transform="translate(-373.708 -206.898)" fill="#00b48b"/>
      <path id="Tracé_11967" data-name="Tracé 11967" d="M373.288,348.067a37.124,37.124,0,0,1,.583,4.279c.738,14.37,12.1,47.225,14.126,47.991,3.146,1.186,8.1-1.336,10.685-2.161a2.224,2.224,0,0,0,1.56-2.522c-5.625-25.862-7.692-63.1-8.446-85.146a99.879,99.879,0,0,0-2.287-18.775s-27.7-7.392-27.869,1.959C361.5,301.966,370.818,334.416,373.288,348.067Z" transform="translate(-341.634 -208.045)" fill="#362d30"/>
      <path id="Tracé_11969" data-name="Tracé 11969" d="M413.318,293.708,398.673,399.857s-6.432,1.55-11.432.311c0,0-4.29-56.455-3.933-70.1s-3.077-36.521.784-39.042S413.318,293.708,413.318,293.708Z" transform="translate(-375.499 -208.03)" fill="#41363a"/>
      <path id="Tracé_11970" data-name="Tracé 11970" d="M367.709,292.646a2.028,2.028,0,0,0,1.431,2.1c2,.594,4.3,1,8.732,1.947a82.741,82.741,0,0,0,16.662,1.714c10.956.073,17.406-4.853,17.406-4.853.473.008-2.095-12.1-2.095-12.1a130.774,130.774,0,0,1-1.691-14.974c-.137-5.45-.231-11.927-.241-19.61-.01-9.244-13.98-19.187-14.239-19.187l0,.006c0,1.331-2.048,3.787-5.2,4-3.746.25-8.338-1.658-8.338-3.866,0-.021-6.769,11.088-9.172,22.926C369.742,256.7,370.234,256.54,367.709,292.646Z" transform="translate(-360.962 -199.822)" fill="#2d43b2"/>
      <path id="Tracé_11971" data-name="Tracé 11971" d="M359.918,227.681s15.5-.114,19.224,4.376,11.907,28.642,7.642,36.68-12.253-3.327-16.683-8.249S359.918,227.681,359.918,227.681Z" transform="translate(-328.462 -198.522)" fill="#2d43b2"/>
      <path id="Tracé_11972" data-name="Tracé 11972" d="M401.516,225.76l-.008,1.374s.375,4.3-4.922,4.93-9.226-.8-9.081-4.123a47.934,47.934,0,0,0,.956-7.333,15.349,15.349,0,0,0-.19-2.576l10.26-.2,3.022.493Z" transform="translate(-369.054 -196.741)" fill="#945a30"/>
      <path id="Tracé_11973" data-name="Tracé 11973" d="M400.784,218.322l-.037,7.438a8.685,8.685,0,0,1-3.7.817c-4.716,0-7.764-3.459-9.356-5.968a15.341,15.341,0,0,0-.19-2.576l10.26-.2Z" transform="translate(-368.284 -196.545)" fill="#804f2b"/>
      <path id="Tracé_11974" data-name="Tracé 11974" d="M386.339,216.576c1.189,6.408,9.459,6.2,13.032,5.8,1.005-.112,1.637-.241,1.637-.241,1.134-.3,1.766-2.089,2.058-4.428.586-4.629-.152-11.426-.934-13.162-1.175-2.615-3.393-5.445-11.718-3.4S384.81,208.367,386.339,216.576Z" transform="translate(-367.908 -195.962)" fill="#945a30"/>
      <path id="Tracé_11975" data-name="Tracé 11975" d="M371.709,248.375s2.826,8.436,2.746,11.839a5.652,5.652,0,0,0-2.746.643C369.5,262.054,371.709,248.375,371.709,248.375Z" transform="translate(-324.992 -198.474)" fill="#273b8b"/>
      <path id="Tracé_11976" data-name="Tracé 11976" d="M406.839,198.495a27.489,27.489,0,0,1-7.987-2.162c-3.508-1.525-7.934.155-9.372.912a2.1,2.1,0,0,1,.352-.865,1.936,1.936,0,0,0-.74,1.1c-.067.05-.1.082-.079.094a2.448,2.448,0,0,0-1.2.078s.328-.048.444.163a.181.181,0,0,0,.056.059c-5.475,2.644-5.98,11.293-4.217,13.295a69.528,69.528,0,0,1,5.317,7.856,9.935,9.935,0,0,0-.116-3.425c-.387-2.121,1.444-2.121,3.757-3.082s.383-3.66,2.408-5.3,9.437-.673,9.34-1.925C407.553,204.29,406.839,198.776,406.839,198.495Z" transform="translate(-370.06 -195.714)" fill="#2f1909"/>
      <path id="Tracé_11977" data-name="Tracé 11977" d="M372.637,266.394c2.172,6.237,25.437,9.46,30.778,10.116-.225-2.706-.219-6.133-.377-10.467Z" transform="translate(-355.884 -199.422)" fill="#273b8b"/>
      <path id="Tracé_11978" data-name="Tracé 11978" d="M405.858,269.431a41.129,41.129,0,0,1-6.117-1.193c-.895-.447-4.989-6.266-2.307-7.758s9.878,4.477,9.878,4.477Z" transform="translate(-383.949 -199.028)" fill="#945a30"/>
      <path id="Tracé_11979" data-name="Tracé 11979" d="M398.253,271.325s-20.992,1.063-33.226-1.759a5.739,5.739,0,0,1,3.534-5.5s19.069-4.354,23.651-3.143S398.253,271.325,398.253,271.325Z" transform="translate(-343.206 -198.513)" fill="#2d43b2"/>
      <path id="Tracé_11980" data-name="Tracé 11980" d="M403.4,256.356c4.012,4.837,9.255,8.786,15.036,9.711h0a10.783,10.783,0,0,0,1.43-6.456,12.9,12.9,0,0,0-2.105-5.925,12.985,12.985,0,0,1-1.136-2.292c-3.156-8.054-2.688-23.578-2.688-23.578s-13.4,1.4-17.582,7.371C393.8,238.84,397.064,248.711,403.4,256.356Z" transform="translate(-395.485 -198.286)" fill="#2d43b2"/>
      <path id="Tracé_11981" data-name="Tracé 11981" d="M384.881,222.181c1.005-.112,1.637-.241,1.637-.241,1.134-.3,1.766-2.089,2.058-4.428a5.608,5.608,0,0,0-3.5,2.866A4.113,4.113,0,0,0,384.881,222.181Z" transform="translate(-353.418 -196.39)" fill="#804f2b"/>
      <path id="Tracé_11982" data-name="Tracé 11982" d="M385.55,225.8s4.63-7.639,1.029-7.972a5.446,5.446,0,0,0-5.566,3c-.52.9.137,4.934.137,4.934Z" transform="translate(-348.688 -196.518)" fill="#945a30"/>
      <path id="Tracé_11983" data-name="Tracé 11983" d="M382.189,259.391a9.943,9.943,0,0,0,.79,2.654,12.669,12.669,0,0,0,2.947,4.061h0c12.023-5.426,14.456-24.064,14.864-34.305.164-4.116,0-6.876,0-6.876-5.425-1.795-6.95,1.326-6.95,1.326s-6.4,15.23-9.725,25.183C382.845,255.239,382.025,258.278,382.189,259.391Z" transform="translate(-362.971 -198.213)" fill="#2d43b2"/>
      <path id="Tracé_11984" data-name="Tracé 11984" d="M382.24,256.312c4.011,4.837,9.255,8.786,15.036,9.711h0c12.023-5.426,14.456-24.064,14.864-34.3,0,0-5.688,20.636-13.434,27.849a8.456,8.456,0,0,1-4.379,2.4s-9.767-2.759-11.815-5.36A1.135,1.135,0,0,0,382.24,256.312Z" transform="translate(-374.322 -198.367)" fill="#273b8b"/>
    </g>
    <g id="Groupe_3819" data-name="Groupe 3819" transform="translate(261.078 1847.699)">
      <g id="Rectangle_856" data-name="Rectangle 856" transform="translate(-0.078 0.301)" fill="none" stroke="#41363a" stroke-width="2">
        <rect width="26" height="26" rx="7" stroke="none"/>
        <rect x="1" y="1" width="24" height="24" rx="6" fill="none"/>
      </g>
      <g id="Groupe_3724" data-name="Groupe 3724" transform="translate(4.776 7.666)">
        <path id="Tracé_11931-2" data-name="Tracé 11931" d="M93.332,119.61a1.446,1.446,0,0,1-2.044,0L86.1,114.425a1.447,1.447,0,0,1,0-2.045h0a1.447,1.447,0,0,1,2.045,0l5.185,5.186a1.446,1.446,0,0,1,0,2.044Z" transform="translate(-85.679 -107.968)" fill="#00b48b"/>
        <path id="Tracé_11932-2" data-name="Tracé 11932" d="M118.458,98.711a1.446,1.446,0,0,1,0-2.044l9.175-9.174a1.446,1.446,0,0,1,2.044,0h0a1.445,1.445,0,0,1,0,2.044L120.5,98.711a1.446,1.446,0,0,1-2.044,0Z" transform="translate(-112.85 -87.069)" fill="#00b48b"/>
      </g>
    </g>
    <path id="Tracé_12332" data-name="Tracé 12332" d="M145.073,360.851h-4.71a1.368,1.368,0,0,1-1.3-.945l-1.457-4.481a1.367,1.367,0,0,0-2.6,0l-1.456,4.481a1.371,1.371,0,0,1-1.3.945h-4.71a1.368,1.368,0,0,0-.8,2.474l3.811,2.769a1.363,1.363,0,0,1,.5,1.527l-1.457,4.481a1.368,1.368,0,0,0,2.106,1.529l3.81-2.769a1.371,1.371,0,0,1,1.608,0l3.812,2.769a1.367,1.367,0,0,0,2.1-1.529l-1.457-4.481a1.365,1.365,0,0,1,.5-1.527l3.81-2.769A1.367,1.367,0,0,0,145.073,360.851Z" transform="translate(78.707 1513.212)" fill="#c9dae5"/>
    <g id="Groupe_3822" data-name="Groupe 3822" transform="translate(351.08 2008.858)">
      <path id="Tracé_12320" data-name="Tracé 12320" d="M471.346,331.085l-.715-5.793.178-.178q6.615-.252,6.616-4.079a3.056,3.056,0,0,0-1.108-2.466,4.533,4.533,0,0,0-3-.931,7.883,7.883,0,0,0-5.83,2.826L464.8,317.6a11.063,11.063,0,0,1,8.62-3.97,8.951,8.951,0,0,1,6.08,1.986,6.719,6.719,0,0,1,2.289,5.347,6.209,6.209,0,0,1-1.968,4.917,10.421,10.421,0,0,1-5.221,2.306l-.357,2.9h-2.9Zm-1.036,7.9v-4.9H475.1v4.9Z" transform="translate(-464.8 -313.632)" fill="#c9dae5"/>
    </g>
    <g id="Groupe_3903" data-name="Groupe 3903" transform="translate(-1087.809 1431.109)">
      <g id="Groupe_3779" data-name="Groupe 3779" transform="translate(1481.034 527.494) rotate(156)">
        <g id="Groupe_3778" data-name="Groupe 3778" transform="translate(0 0)">
          <path id="Tracé_12252" data-name="Tracé 12252" d="M0,3.108,1.7,4.746A10.125,10.125,0,0,0,4.973,11.44s1,.1.61-1.551L5.2,8.244a14.752,14.752,0,0,1,5.16,4.885C12.627,16.588,16.132,9.891,1.745,0Z" transform="translate(0 0)" fill="#f8c2a0"/>
        </g>
      </g>
      <g id="Groupe_3674" data-name="Groupe 3674" transform="translate(1478.132 468.745)">
        <path id="Tracé_12059" data-name="Tracé 12059" d="M2220.433,858.89a8.185,8.185,0,0,0-5.972-.585c-10.145-1.091-13.105,9.744-12.967,13.472s.6,7.732-3.929,12.576c-13.087,13.99,14.322,14.607,14.322,14.607.231-11.178,14.862-7.1,14.221-5.967C2244.863,897.115,2227.973,862.472,2220.433,858.89Z" transform="translate(-2177.505 -857.873)" fill="#c93500"/>
        <path id="Tracé_12061" data-name="Tracé 12061" d="M2156.387,1031.171a28.869,28.869,0,0,1-2.942,4.449c-2.286,2.862-5.809,6.169-10.233,6.821a10.982,10.982,0,0,1-6.08-.987h-.007c-5.373-2.385-9.413-7.871-9.413-7.871a4.416,4.416,0,0,1,.6-4.334s10.85,2.44,11.883,1.923,7.061-17.882,8.5-20.063,6.327-3.315,6.327-3.315Z" transform="translate(-2127.406 -974.197)" fill="#41363a"/>
        <path id="Tracé_12062" data-name="Tracé 12062" d="M2187.25,1112.347c-2.285,2.863-5.809,6.169-10.234,6.822a10.982,10.982,0,0,1-6.079-.987c.21.028,5.577.691,7.716-3.136,2.182-3.9,4.542-10.1,7.783-8.037C2187.834,1107.9,2187.772,1110.117,2187.25,1112.347Z" transform="translate(-2161.21 -1050.925)" fill="#362d30"/>
        <path id="Tracé_12063" data-name="Tracé 12063" d="M2396.585,1631.6s3.311,3.021,2.664,5.168-3.634,3.578-4.037,6.2-2.019,4.055-3.473,4.055h-6.929s-1.07-1.846,1.514-2.4,3.559-3.64,3.4-6.5a50.4,50.4,0,0,1,.241-6.679l5.491-1.273Z" transform="translate(-2327.125 -1457.507)" fill="#41363a"/>
        <path id="Tracé_12064" data-name="Tracé 12064" d="M2247.3,1642.314s1.192,12.8-.262,13.515l-18.6-.038s0-2.146,2.988-2.623,8.236-2.226,9.124-6.122S2247.3,1642.314,2247.3,1642.314Z" transform="translate(-2205.862 -1466.94)" fill="#41363a"/>
        <path id="Tracé_12065" data-name="Tracé 12065" d="M2263.407,1016.14c-3.827-8.585-6.169-11.048-5.722-13.713.333-1.983-1.013-36.973-1.013-36.973-.454-.141-1.364-.267-1.863-.377a4.67,4.67,0,0,1-3.41-2.966,23.8,23.8,0,0,1-1.158-7.895l-.49.1-8.244,1.633s.188,2.594.193,5.039c0,.02,0,.041,0,.061a4.742,4.742,0,0,1-3.422,4.585c-1.042.3-1.948.558-1.948.558a75.593,75.593,0,0,0-3.605,17.522c-.579,8.879,5.5,12.736-.046,30.479C2227.01,1032.312,2265.522,1020.884,2263.407,1016.14Z" transform="translate(-2208.713 -932.592)" fill="#f8c2a0"/>
        <path id="Tracé_12066" data-name="Tracé 12066" d="M2274.166,956.283s.188,2.594.193,5.039c4.614-.13,7.052-4.339,8.051-6.671Z" transform="translate(-2241.373 -932.929)" fill="#e6b899"/>
        <path id="Tracé_12067" data-name="Tracé 12067" d="M2254.636,908.3s10.916.18,10.924-6.619,1.421-11.355-5.548-11.758-8.325,2.191-8.879,4.46S2251.8,908.079,2254.636,908.3Z" transform="translate(-2223.385 -882.633)" fill="#f8c2a0"/>
        <path id="Tracé_12068" data-name="Tracé 12068" d="M0,1.382s2.988,7.977,7.575,9.157,6.576-.049,6.576-.049A12.989,12.989,0,0,1,9.9,2.816S2.254-2.415,0,1.382Z" transform="matrix(0.883, -0.469, 0.469, 0.883, 28.356, 6.644)" fill="#c93500"/>
        <path id="Tracé_12069" data-name="Tracé 12069" d="M2253.186,887.7a6.771,6.771,0,0,0-3.128,2.444,11,11,0,0,0-1.476,6.242s-2.251-5.422.279-8.489C2251.544,884.647,2253.186,887.7,2253.186,887.7Z" transform="translate(-2220.789 -879.929)" fill="#c93500"/>
        <path id="Tracé_12071" data-name="Tracé 12071" d="M2260.1,1019.987a74.173,74.173,0,0,1,0,8.6c-.185,3.109-3.329,7.273-3.775,8.3-1.119,2.583-2.382,3-2.382,3l-9.767,2.394-3.433.84-10.829-3.234s-4.933-13.767-2.952-21.517a59.578,59.578,0,0,1,5.007-13.132s8.837,8.653,20.343-.734Z" transform="translate(-2204.351 -971.646)" fill="#41363a"/>
        <path id="Tracé_12073" data-name="Tracé 12073" d="M2225.021,1172.213s-5.363,16.692-5.707,22.376,10.251,80.735,10.677,83.354c.4,2.468,3.468,4.042,3.468,4.042a4.635,4.635,0,0,0,3.421.263,8.458,8.458,0,0,0,3.674-1.732s4.174-53.527,1.591-72.648a302.89,302.89,0,0,1-2.613-35.655Z" transform="translate(-2198.771 -1101.879)" fill="#00a781"/>
        <path id="Tracé_12074" data-name="Tracé 12074" d="M2273.74,1169.985s8.18,10.976,8.943,18.4,1.2,33.482,2.821,40.716,7.595,21.153,7.595,43.713a4.5,4.5,0,0,1-2.537,1.982,20.943,20.943,0,0,1-2.23.617,3.507,3.507,0,0,1-3.923-1.862c-4.036-8.126-16.891-34.334-17.55-39.774-.467-3.85-4.526-29.33-13.38-44.281-2.126-3.589,1.3-17.864,1.3-17.864Z" transform="translate(-2224.769 -1100.149)" fill="#00b48b"/>
        <path id="Tracé_12076" data-name="Tracé 12076" d="M2239.992,1160.68a11.244,11.244,0,0,0,6.43,1.789c5.109.1,17.768-1.3,17.768-1.3a10.477,10.477,0,0,1,.54,3.231s-15.46,3.9-24.418.569A5.667,5.667,0,0,1,2239.992,1160.68Z" transform="translate(-2214.6 -1092.923)" fill="#362d30"/>
        <g id="Groupe_3673" data-name="Groupe 3673" transform="translate(28.266 68.672)">
          <path id="Tracé_12077" data-name="Tracé 12077" d="M2256.239,1170.051a2.659,2.659,0,1,1,2.331-2.638A2.5,2.5,0,0,1,2256.239,1170.051Zm0-4.5a1.9,1.9,0,1,0,1.558,1.866A1.735,1.735,0,0,0,2256.239,1165.547Z" transform="translate(-2253.907 -1164.774)" fill="#fff"/>
        </g>
        <path id="Tracé_12133" data-name="Tracé 12133" d="M0,0H21V28.75H0Z" transform="translate(31.536 62.887) rotate(-41.047)" fill="#2d43b2"/>
        <path id="Tracé_12078" data-name="Tracé 12078" d="M2315.308,1174.42s-7.872.92-7.848,2.789,1.962,5.707,2.934,5.878,6.406-5.191,6.406-5.191Z" transform="translate(-2268.456 -1104.732)" fill="#f8c2a0"/>
        <path id="Tracé_12079" data-name="Tracé 12079" d="M2329.818,1004.509s7.749.544,10.719,7.764,8.606,19.343,8.606,21.382-3.148,8.326-20.054,11.941c0,0-2.219-2.543-2.113-4,0,0,11.023-8.361,11-9.42-.053-2-1.729-4.649-11-13.918C2324.457,1015.74,2329.818,1004.509,2329.818,1004.509Z" transform="translate(-2281.86 -971.647)" fill="#41363a"/>
      </g>
    </g>
  </g>
</svg>
