<svg xmlns="http://www.w3.org/2000/svg" xmlns:xlink="http://www.w3.org/1999/xlink" width="613.009" height="401.37" viewBox="0 0 613.009 401.37">
  <defs>
    <linearGradient id="linear-gradient" x1="0.5" y1="1" x2="0.5" gradientUnits="objectBoundingBox">
      <stop offset="0" stop-color="#c5cadd"/>
      <stop offset="1" stop-color="#e4eff1"/>
    </linearGradient>
  </defs>
  <g id="Groupe_3739" data-name="Groupe 3739" transform="translate(-1047.083 -326)">
    <g id="connexion-28" transform="translate(1047.083 326)">
      <path id="Tracé_12189" data-name="Tracé 12189" d="M723.055,489.295s32.022-67.128,9.409-196.779c-14.224-81.55-70.153-146.169-149.621-132.479-72.651,6.259-53.784-6.443-118.121-52.591-73.715-46.9-327.552-6.414-298.467,154.054C186.834,375.039,93.7,376.325,141.224,489.294H723.055Z" transform="translate(-127.536 -89.156)" opacity="0.5" fill="url(#linear-gradient)"/>
      <g id="Groupe_3730" data-name="Groupe 3730" transform="translate(116.799 110.099)">
        <g id="Groupe_3729" data-name="Groupe 3729">
          <path id="Tracé_12190" data-name="Tracé 12190" d="M421.55,380.065H356.1l-10.973,39.672h87.4Z" transform="translate(-225.074 -158.967)" fill="#fff"/>
          <g id="Groupe_3728" data-name="Groupe 3728" transform="translate(120.054 221.098)">
            <path id="Tracé_12191" data-name="Tracé 12191" d="M420.843,380.065H355.395l-2.9,10.466h71.241Z" transform="translate(-344.421 -380.065)" fill="#e0e0e0"/>
            <path id="Tracé_12192" data-name="Tracé 12192" d="M345.128,416.942h87.4l-2.14-7.738H347.265Z" transform="translate(-345.128 -377.27)" fill="#e0e0e0"/>
          </g>
          <path id="Tracé_12193" data-name="Tracé 12193" d="M441.677,413.875H337.756a4.022,4.022,0,0,0-4.022,4.022v2.02H445.7V417.9A4.02,4.02,0,0,0,441.677,413.875Z" transform="translate(-226.167 -155.724)" fill="#fff"/>
          <path id="Tracé_12194" data-name="Tracé 12194" d="M235.582,356.233v20.181a8.715,8.715,0,0,0,8.715,8.715H554.336a8.716,8.716,0,0,0,8.718-8.715V356.233Z" transform="translate(-235.582 -161.253)" fill="#fff"/>
          <path id="Tracé_12195" data-name="Tracé 12195" d="M563.055,187.033a8.715,8.715,0,0,0-8.718-8.715H244.3a8.714,8.714,0,0,0-8.715,8.715V373.3H563.055Z" transform="translate(-235.582 -178.318)" fill="#41363a"/>
          <rect id="Rectangle_880" data-name="Rectangle 880" width="304.078" height="171.479" transform="translate(11.502 11.622)" fill="#fff"/>
          <path id="Tracé_12196" data-name="Tracé 12196" d="M391.209,369.2A5.206,5.206,0,1,1,386,363.99,5.206,5.206,0,0,1,391.209,369.2Z" transform="translate(-221.653 -160.509)" fill="#c8c8c8"/>
        </g>
      </g>
      <rect id="Rectangle_881" data-name="Rectangle 881" width="77.076" height="125.215" transform="translate(248.099 138.241)" fill="#c9dae5"/>
      <rect id="Rectangle_882" data-name="Rectangle 882" width="47.693" height="9.414" transform="translate(262.781 207.077)" fill="#fff"/>
      <rect id="Rectangle_883" data-name="Rectangle 883" width="47.693" height="9.412" transform="translate(262.781 224.566)" fill="#fff"/>
      <g id="Groupe_3731" data-name="Groupe 3731" transform="translate(396.141 201.669)">
        <path id="Tracé_12197" data-name="Tracé 12197" d="M550.4,272.02a10.486,10.486,0,0,1-4.955,9.753c-5.744,3.584-.595-12.086-.595-12.086Z" transform="translate(-486.911 -261.125)" fill="#f7f7f7"/>
        <path id="Tracé_12198" data-name="Tracé 12198" d="M499,300.032l.048.089c.048.086.092.174.133.262.014.03.023.063.036.092a8.925,8.925,0,0,0,1.292.019l.29-.061c.249-.062.488-.147.73-.229.065-.036.182-.1.407-.206a31.048,31.048,0,0,0,2.727-1.822c-.017-.05-.049-.112-.06-.155a4.236,4.236,0,0,0-.148-.49l0,0c-.073-.206-.16-.422-.263-.649-1.038-2.3-3.478-5.55-4.822-6.131-1.584-.686-.818,1.664-.233,2.564s.391.927-1.3.45-2.771-.16-3.674-1.111-1.661-2.432-2.169-2.139,0,3.492,1.083,5.13S498.527,299.205,499,300.032Z" transform="translate(-491.797 -259.131)" fill="#f8c2a0"/>
        <path id="Tracé_12199" data-name="Tracé 12199" d="M498.546,300.651c.38.812.527,1.707.827,2.548.085.236.174.472.265.708.357.948.738,1.889,1.092,2.834.884,2.3,1.772,4.6,2.833,6.824a31.765,31.765,0,0,0,4.515,7.342,11.839,11.839,0,0,0,3.405,2.75,7.83,7.83,0,0,0,2.757.812,9.177,9.177,0,0,0,2.03-.01,13.7,13.7,0,0,0,10.017-6.87c.062-.116.121-.235.177-.351.011-.03.025-.056.035-.082a6.394,6.394,0,0,0-.02,1.942c-.016,1.689-.05,3.369-.093,5.06-.1,3.781-.034,7.658-.862,11.37a29.516,29.516,0,0,1-1.956,5.274,7.587,7.587,0,0,0-.755,4.622,15.781,15.781,0,0,0,1.164,2.5l.053.132c.015.044.031.089.045.135a2.977,2.977,0,0,1,.1.355c.005.025.009.054.015.079s.013.075.017.113l0,.018c0,.034.008.07.009.111.005.059.009.118.013.18l2.2.02,31.95.306h2.055c0-.012-.007-.023-.009-.037-.04-.228-.083-.444-.122-.649-.177-.934-.306-1.612-.367-1.931a.881.881,0,0,1-.061-.168,1.1,1.1,0,0,1-.041-.342l.054-.388a1.684,1.684,0,0,1,.083-.232,1.367,1.367,0,0,1,1-1.013c.225-.049.458-.083.685-.139.027-.008.054-.018.078-.025.074-.054.206-.1.264-.147a1.466,1.466,0,0,1,1.128-.147,1.485,1.485,0,0,1,.407.186,1.442,1.442,0,0,1,.259.208.218.218,0,0,1,.038.041c.332-.293.71-.628,1.12-1l0,0c.485-.434,1.016-.925,1.588-1.455.02-.015.035-.034.055-.052,6.945-6.444,19.469-19.053,18.677-22.827a14.746,14.746,0,0,0-1.709-3.872c-1.085-1.967-2.284-3.87-3.523-5.741a141.5,141.5,0,0,0-9.215-12.5,50.084,50.084,0,0,0-4.073-4.48c-.105-.1-.211-.2-.321-.3-.077-.068-.154-.135-.231-.2a.067.067,0,0,0-.015-.011c-.045-.039-.092-.078-.139-.116-.074-.064-.152-.123-.229-.185-.045-.035-.092-.071-.139-.11-.087-.068-.179-.137-.272-.206s-.207-.152-.313-.222c-.023-.018-.044-.032-.064-.045-.092-.065-.186-.126-.278-.187-.02-.014-.038-.025-.06-.039-.09-.06-.182-.117-.274-.174s-.2-.122-.3-.184c-.08-.048-.163-.1-.245-.139-.049-.027-.1-.055-.147-.084s-.1-.054-.149-.081c-.533-.283-1.083-.538-1.644-.769a20.574,20.574,0,0,0-2.464-.827q-.7-.189-1.419-.341c-.236-.049-.469-.094-.7-.138-.1-.02-.2-.036-.3-.053-.252-.044-.507-.088-.762-.12-.088-.014-.175-.026-.265-.038-.152-.023-.3-.044-.451-.064-.24-.029-.483-.056-.723-.082-.077-.007-.157-.016-.234-.023-.218-.023-.433-.043-.651-.06h-.013c-.164-.017-.334-.027-.5-.041-.123-.008-.245-.017-.37-.024l-.074,0c-.071,0-.147-.008-.221-.013-.045,0-.092-.007-.137-.009l-.081,0c-.056,0-.11-.007-.167-.007-.206-.013-.413-.021-.62-.03-.059,0-.114,0-.167,0-.088-.005-.177-.008-.267-.01h-.019a.012.012,0,0,0-.008,0c-.1,0-.2-.007-.294-.007-.037,0-.077,0-.114,0H550.9c-.106,0-.206,0-.308-.009h-.127c-.022,0-.041,0-.06,0-.357,0-.712-.01-1.065-.01-.99,0-1.962.02-2.9.045h-.007c-.405.011-.816.017-1.226.025h-.006c-.616.011-1.237.023-1.851.048h-.006c-.31.01-.616.025-.923.042s-.618.045-.926.073c-.037,0-.073.005-.111.01-.074.007-.154.013-.229.022v1.3a.048.048,0,0,0-.009-.01,11.282,11.282,0,0,1-.717-1.214s-.007,0-.007,0c-.077.007-.157.016-.234.025l-.22.023c-.047.008-.1.014-.146.02l-.068.008-.232.03c-.3.037-.607.076-.906.12-.654.093-1.31.2-1.963.311a.164.164,0,0,1-.03.007l-.008,0c-.673.121-1.346.249-2.013.389a34.6,34.6,0,0,0-5.028,1.427c-2.67,1-4.168,3.766-5.731,6.018-3.2,4.614-5.944,9.55-8.838,14.361l0,0c-.2-.2-6.777-6.665-9.686-10.36a7.69,7.69,0,0,1-1.344-2.12,4.557,4.557,0,0,0-.149-.494l-.007,0Zm73.618,19.814.031.023s-8.182,14.077-11.1,16.915h0c-.079.078-.153.146-.225.206a1.1,1.1,0,0,1-.5.285h-.035a9.3,9.3,0,0,1-.987-.042,2.034,2.034,0,0,1-.227-.036.64.64,0,0,1-.3-.108c-.057-.046-.029-.084-.029-.084l3.037-24.352Z" transform="translate(-491.15 -259.398)" fill="#2d43b2"/>
        <path id="Tracé_12200" data-name="Tracé 12200" d="M536.752,288.005a10.915,10.915,0,0,0,.725,1.221v-1.3C537.235,287.953,536.992,287.98,536.752,288.005Z" transform="translate(-487.485 -259.375)" fill="#273b8b"/>
        <path id="Tracé_12201" data-name="Tracé 12201" d="M537.414,284.17v6.479c.237.692,1.062,1,2.134,1.049.117,0,.242.007.366,0h0c3-.022,7.49-1.8,6.966-2.958a2.813,2.813,0,0,1-.131-.351,58.734,58.734,0,0,1-1.125-7.925Z" transform="translate(-487.422 -260.09)" fill="#f8c2a0"/>
        <path id="Tracé_12202" data-name="Tracé 12202" d="M545.827,282.565c-.122.242-.249.481-.386.718a8.272,8.272,0,0,1-2.01,2.438,8.365,8.365,0,0,1-3.844,1.526,5.322,5.322,0,0,1-2.174-.111V284.17l8.211-3.7C545.628,280.437,545.7,281.338,545.827,282.565Z" transform="translate(-487.422 -260.09)" fill="#e6b899"/>
        <path id="Tracé_12203" data-name="Tracé 12203" d="M561.975,337.864l-5.632-4.891s-.927,2.327-2.648,2.618-5.418.74-6.212,1.878-.212.951.793.394a4.155,4.155,0,0,1,2.141-.447s-2.141,1.215-2.275,2.457c-.07.687.571,1.429,1.163,1.955a1.936,1.936,0,0,0,1.85.4,5.439,5.439,0,0,1,3.127-.239l.035.018a3.092,3.092,0,0,0,3.2-.454Z" transform="translate(-486.491 -255.054)" fill="#f8c2a0"/>
        <path id="Tracé_12204" data-name="Tracé 12204" d="M539.695,291.009a11.752,11.752,0,0,0,1.705,3.111s7.04-1.549,8.379-5.357a4.352,4.352,0,0,0,.227-.9c-1.168-.1-2.34-.148-3.492-.165C546.288,287.89,542.587,290.925,539.695,291.009Z" transform="translate(-487.203 -259.397)" fill="#273b8b"/>
        <path id="Tracé_12205" data-name="Tracé 12205" d="M533.278,288.545c.832,1.705,2.869,5.553,4.333,5.546,1.321-1.665,2.7-3.111,2.7-3.111h0a.912.912,0,0,1-.366,0c-.435-.079-1.215-.422-2.134-1.756a10.921,10.921,0,0,1-.725-1.221q-.909.1-1.813.226C534.607,288.321,533.941,288.429,533.278,288.545Z" transform="translate(-487.818 -259.368)" fill="#273b8b"/>
        <path id="Tracé_12206" data-name="Tracé 12206" d="M561.68,337.967l-6.522-5.539-3.119,2.092,7.2,6.248Z" transform="translate(-486.019 -255.106)" fill="#fff"/>
        <path id="Tracé_12207" data-name="Tracé 12207" d="M504.787,295.656l-7.234,4.568,1.065,3.6,8.113-5Z" transform="translate(-491.245 -258.634)" fill="#fff"/>
        <path id="Tracé_12208" data-name="Tracé 12208" d="M521.978,343.685c0,.61,0,1.219,0,1.821,0,2.1,0,4.2.014,6.3q0,9.655.035,19.3c.034,11.672.178,23.6.649,35.37q.363,9.025,1,18.03.324,4.512.745,9.011c.164,1.824-.243,6.97,1.156,8.258a3.393,3.393,0,0,0,.776.561h0l.378.131H537.5v-.007c-.032-.16,1.586-.738,1.347-1.689s-1.586-39.349-.845-51.515a211.15,211.15,0,0,1,2.744-22.974c-.212,1.345,1.85,4.859,2.36,6.242q1.34,3.658,2.609,7.338c1.668,4.887,3.211,9.816,4.535,14.806a151.77,151.77,0,0,1,3.265,15.161c.694,4.3.73,9.014,2.228,13.136,1.267,3.492,5.158,18.407,6.028,19.085.1.078.117.218.065.414H573.68a2.154,2.154,0,0,0,.988-1.246c.28-.95-4.4-21.292-5.565-27.847s-6.982-41.57-6.982-45.27c0-2.9-2.744-17.79-3.932-24.094-.055-.3-.107-.571-.154-.831H521.92A2.828,2.828,0,0,1,521.978,343.685Z" transform="translate(-488.908 -254.075)" fill="#41363a"/>
        <path id="Tracé_12209" data-name="Tracé 12209" d="M514.153,442.449c4.52,0,25.025.592,25.6,0,.42-.427-.573-4.81-1.139-7.18-.2-.829-.349-1.412-.366-1.489H527.476a3.43,3.43,0,0,1-.518,1.489,4.616,4.616,0,0,1-3.311,2.036C519.941,437.988,514.314,439.224,514.153,442.449Z" transform="translate(-489.653 -245.385)" fill="#41363a"/>
        <path id="Tracé_12210" data-name="Tracé 12210" d="M547.838,278.442a11.8,11.8,0,0,1-.613,2.608c-.267.552-.537,1.1-.844,1.634a8.375,8.375,0,0,1-6.7,4.541,5.475,5.475,0,0,1-3.681-.644,6.7,6.7,0,0,1-2.49-3.683,23.113,23.113,0,0,1-1.016-5.351,89.606,89.606,0,0,1-.546-9.026l13.746-.665Z" transform="translate(-487.947 -261.3)" fill="#f8c2a0"/>
        <path id="Tracé_12211" data-name="Tracé 12211" d="M551.253,274.977c.028-.088.055-.173.078-.262.015-.057.036-.11.05-.163-.005.01-.014.015-.019.023a3.971,3.971,0,0,0,.124-1,19.675,19.675,0,0,0-.948-6.59c-1.246-3.355-5.469-4.9-8.765-5.095a9.6,9.6,0,0,0-9.32,5.082l.006-.023-.029.069a8.633,8.633,0,0,0-.382.887,8.5,8.5,0,0,0-.458,2.019c-.1,1,1.033,1.408,1.809,1.617a7.545,7.545,0,0,0,3.59.161,15.759,15.759,0,0,0,2.939-1.174,12.256,12.256,0,0,1,2.722-.911,4.066,4.066,0,0,1,2.688.111,2.313,2.313,0,0,1,.871,1.641c.077.4.136.8.191,1.2.013.087.023.169.032.258.051.4.094.8.126,1.2.022.259.042.521.058.782a12.415,12.415,0,0,1,.018,2.957c-.068.389.95.142,2.064-.238.077-.026.152-.056.225-.088a.271.271,0,0,0,.068-.03c.054-.022.107-.044.16-.069l.067-.032c.02-.01.038-.022.058-.031s.036-.02.054-.03.06-.03.087-.045l.023-.013c.065-.037.126-.077.186-.115l.068-.047a1.3,1.3,0,0,0,.127-.092.007.007,0,0,0,0,0l.036-.027.03-.021c.047-.037.094-.077.141-.115.023-.02.045-.041.068-.059l.129-.119c.025-.025.047-.048.071-.071l.012-.012.03-.032c.014-.017.032-.034.049-.051s.045-.05.07-.076.06-.072.09-.111.067-.079.1-.124.047-.064.07-.1a.145.145,0,0,1,.02-.026.82.82,0,0,0,.054-.078c.022-.032.041-.065.063-.1s.041-.067.062-.1.038-.071.058-.106.02-.048.03-.069a2.589,2.589,0,0,0,.117-.255A3.215,3.215,0,0,0,551.253,274.977Z" transform="translate(-487.981 -261.874)" fill="#41363a"/>
        <ellipse id="Ellipse_239" data-name="Ellipse 239" cx="2.756" cy="2.518" rx="2.756" ry="2.518" transform="translate(57.056 12.581)" fill="#f8c2a0"/>
        <path id="Tracé_12212" data-name="Tracé 12212" d="M525.838,435.219H537.48c-.2-.782-.339-1.328-.355-1.4v-.005a.032.032,0,0,1,.012-.032H526.356a.251.251,0,0,0,0,.037A3.36,3.36,0,0,1,525.838,435.219Z" transform="translate(-488.532 -245.385)" fill="#00b48b"/>
        <path id="Tracé_12213" data-name="Tracé 12213" d="M547.111,442.449c4.518,0,25.025.592,25.6,0,.421-.427-.573-4.81-1.139-7.18-.2-.829-.349-1.412-.365-1.489H560.433a3.434,3.434,0,0,1-.517,1.489A4.614,4.614,0,0,1,556.6,437.3C552.9,437.988,547.272,439.224,547.111,442.449Z" transform="translate(-486.492 -245.385)" fill="#41363a"/>
        <path id="Tracé_12214" data-name="Tracé 12214" d="M558.8,435.219h11.642c-.2-.782-.339-1.328-.354-1.4v-.005c0-.01,0-.02.011-.032H559.313v.037A3.4,3.4,0,0,1,558.8,435.219Z" transform="translate(-485.371 -245.385)" fill="#00b48b"/>
      </g>
      <g id="Groupe_3732" data-name="Groupe 3732" transform="translate(269.829 155.781)">
        <path id="Tracé_12215" data-name="Tracé 12215" d="M409.949,245.009a16.746,16.746,0,0,1-1.8,8.213,16.529,16.529,0,0,1-14.851,9.028,17.933,17.933,0,0,1-15.465-9.028,17.574,17.574,0,0,1-2.361-8.213,16.548,16.548,0,0,1,16.655-17.238A17.966,17.966,0,0,1,409.949,245.009Z" transform="translate(-375.459 -227.771)" fill="#fff"/>
        <path id="Tracé_12216" data-name="Tracé 12216" d="M407.936,251.4a16.529,16.529,0,0,1-14.851,9.028,17.933,17.933,0,0,1-15.465-9.028,26.442,26.442,0,0,1,15-4.592A27.955,27.955,0,0,1,407.936,251.4Z" transform="translate(-375.251 -225.945)" fill="#bad3e5"/>
        <path id="Tracé_12217" data-name="Tracé 12217" d="M399.366,238.791a7.371,7.371,0,0,1-7.419,7.68,8,8,0,0,1-7.939-7.68,7.371,7.371,0,0,1,7.417-7.679A8,8,0,0,1,399.366,238.791Z" transform="translate(-374.639 -227.45)" fill="#bad3e5"/>
      </g>
      <g id="Groupe_3733" data-name="Groupe 3733" transform="translate(270.077 210.055)">
        <path id="Tracé_12218" data-name="Tracé 12218" d="M392.655,277.616a1.657,1.657,0,0,1-1.666,1.723,1.793,1.793,0,0,1-1.778-1.723,1.65,1.65,0,0,1,1.662-1.722A1.8,1.8,0,0,1,392.655,277.616Z" transform="translate(-374.384 -275.894)" fill="#bad3e5"/>
        <path id="Tracé_12219" data-name="Tracé 12219" d="M385.891,277.616a1.655,1.655,0,0,1-1.664,1.723,1.8,1.8,0,0,1-1.781-1.723,1.655,1.655,0,0,1,1.665-1.722A1.792,1.792,0,0,1,385.891,277.616Z" transform="translate(-375.033 -275.894)" fill="#bad3e5"/>
        <path id="Tracé_12220" data-name="Tracé 12220" d="M379.129,277.616a1.656,1.656,0,0,1-1.665,1.723,1.8,1.8,0,0,1-1.781-1.723,1.652,1.652,0,0,1,1.664-1.722A1.8,1.8,0,0,1,379.129,277.616Z" transform="translate(-375.682 -275.894)" fill="#bad3e5"/>
        <path id="Tracé_12221" data-name="Tracé 12221" d="M399.419,277.616a1.657,1.657,0,0,1-1.664,1.723,1.8,1.8,0,0,1-1.781-1.723,1.65,1.65,0,0,1,1.663-1.722A1.8,1.8,0,0,1,399.419,277.616Z" transform="translate(-373.736 -275.894)" fill="#bad3e5"/>
        <path id="Tracé_12222" data-name="Tracé 12222" d="M406.18,277.616a1.653,1.653,0,0,1-1.66,1.723,1.8,1.8,0,0,1-1.782-1.723,1.65,1.65,0,0,1,1.661-1.722A1.793,1.793,0,0,1,406.18,277.616Z" transform="translate(-373.087 -275.894)" fill="#bad3e5"/>
      </g>
      <g id="Groupe_3734" data-name="Groupe 3734" transform="translate(133.941 282.19)">
        <path id="Tracé_12223" data-name="Tracé 12223" d="M298.4,362.555l-44.578-.78a3.094,3.094,0,0,0-3.192,3.209l1.234,30.149a3.547,3.547,0,0,0,3.461,3.324l44.584.775a3.078,3.078,0,0,0,3.189-3.211l-1.236-30.139A3.553,3.553,0,0,0,298.4,362.555Zm-17.1,27.714-8.071-.14.656-9.563a5.632,5.632,0,0,1-2.627-4.5,5.019,5.019,0,0,1,5.214-5.246,5.781,5.781,0,0,1,5.638,5.435,4.924,4.924,0,0,1-2.262,4.408Z" transform="translate(-250.63 -332.812)" fill="#00b48b"/>
        <path id="Tracé_12224" data-name="Tracé 12224" d="M294,362.855h0a3.133,3.133,0,0,1-3.067-2.953l-.122-2.943a16.656,16.656,0,0,0-15.226-15.775,14.242,14.242,0,0,0-15.513,14.8l.129,3.393a2.726,2.726,0,0,1-2.83,2.845h0a3.134,3.134,0,0,1-3.065-2.95l-.119-2.877a19.931,19.931,0,0,1,19.56-21.042c12.083-.243,22.46,9.473,22.944,21.269l.141,3.389A2.732,2.732,0,0,1,294,362.855Z" transform="translate(-250.29 -335.347)" fill="#00b48b"/>
      </g>
      <rect id="Rectangle_884" data-name="Rectangle 884" width="31.046" height="6.127" transform="translate(271.101 241.605)" fill="#bad3e5"/>
    </g>
    <line id="Ligne_773" data-name="Ligne 773" x2="582.128" transform="translate(1060.012 725.87)" fill="none" stroke="#41363a" stroke-miterlimit="10" stroke-width="3"/>
  </g>
</svg>
