<svg xmlns="http://www.w3.org/2000/svg" xmlns:xlink="http://www.w3.org/1999/xlink" width="853.125" height="488.126" viewBox="0 0 853.125 488.126">
  <defs>
    <linearGradient id="linear-gradient" x1="0.5" y1="1" x2="0.5" gradientUnits="objectBoundingBox">
      <stop offset="0" stop-color="#c5cadd"/>
      <stop offset="1" stop-color="#e4eff1"/>
    </linearGradient>
    <clipPath id="clip-path">
      <rect id="Rectangle_906" data-name="Rectangle 906" width="61.643" height="61.643"/>
    </clipPath>
  </defs>
  <g id="Groupe_3924" data-name="Groupe 3924" transform="translate(-919 -330.307)">
    <g id="accueil-31" transform="translate(839.124 249.593)">
      <g id="Groupe_3742" data-name="Groupe 3742" transform="translate(79.876 80.714)">
        <path id="Tracé_12228" data-name="Tracé 12228" d="M111.968,562.685c.04.028,787.144-.1,787.144-.1,25.914-55.272,76.676-207.411-37.566-373.925-57.2-83.377-179.486-111.38-289.523-107.62-119.351,4.079-114.149,60.612-287.858,60.612-81.919,0-140.246,99.008-96.963,159.91,44.339,62.387-32.244,69.617-70.469,104.819C65.718,453.363,71.052,530.189,111.968,562.685Z" transform="translate(-79.876 -80.714)" opacity="0.5" fill="url(#linear-gradient)"/>
        <line id="Ligne_775" data-name="Ligne 775" x2="786.54" transform="translate(32.092 482.708)" fill="#fff" stroke="#41363a" stroke-miterlimit="10" stroke-width="3"/>
      </g>
      <g id="Groupe_3756" data-name="Groupe 3756" transform="translate(652.612 156.154)">
        <path id="Tracé_12242" data-name="Tracé 12242" d="M568.01,163.741c.048-.573.08-1.15.08-1.734,0-13.63-13.073-24.678-29.2-24.678S509.7,148.378,509.7,162.008c0,.584.033,1.161.081,1.734Z" transform="translate(-509.699 -137.33)" fill="#2d43b2"/>
      </g>
      <g id="Groupe_3757" data-name="Groupe 3757" transform="translate(374.004 156.156)">
        <path id="Tracé_12243" data-name="Tracé 12243" d="M372.1,137.331c-26.414,0-42.363,0-44.849,156.661-.139,8.781.087,53.388-.243,64.542-2.621,88.553-10.5,111.049-25.836,116.761-3.127,1.165,7.79,1.948,7.79,1.948H529.356c26.147,0,42.039,0,44.773-151.9.184-10.174-.031-56.984.277-67.7,3.1-108.116,13.873-119.08,36.214-120.191v-.123H372.1Z" transform="translate(-300.611 -137.331)" fill="#fff"/>
      </g>
      <g id="Groupe_3758" data-name="Groupe 3758" transform="translate(342.069 454.453)">
        <path id="Tracé_12244" data-name="Tracé 12244" d="M323.482,403.566H549.59v-.044c-24.867-.951-44.682-18.291-44.682-39.54,0-.939.053-1.86.129-2.786H276.77c-.076.925-.125,1.847-.125,2.786C276.646,385.841,297.612,403.566,323.482,403.566Z" transform="translate(-276.645 -361.195)" fill="#2d43b2"/>
      </g>
      <g id="Groupe_3777" data-name="Groupe 3777" transform="translate(326.003 544.273)">
        <path id="Tracé_12250" data-name="Tracé 12250" d="M312.35,438.364v-.011a.147.147,0,0,1-.047-.013c-.023,0-14.431-6.913-15.722-7.707-1.187-.725-1.911-1.194-1.911-1.194s-6.93-1.556-10.477-.421h-.005c-.167.057-.324.115-.473.177-.015,0-.021.013-.031.021a2.783,2.783,0,0,0-.364.177,1,1,0,0,0-.091.063,1.957,1.957,0,0,0-.268.193.733.733,0,0,0-.083.055,2.6,2.6,0,0,0-.28.292c-2.24,2.75-5.006,11.248-3.135,14.875.076.139.149.267.225.4a.808.808,0,0,1,.069.107c.063.1.125.2.2.292a.305.305,0,0,0,.057.068c.079.108.165.211.25.306.025.028.052.049.08.08a2.614,2.614,0,0,0,.208.2,1.186,1.186,0,0,1,.085.083c.088.073.185.144.279.213a.42.42,0,0,0,.068.039,1.877,1.877,0,0,0,.245.151c.036.024.076.039.109.057a2.493,2.493,0,0,0,.255.124l.076.035c.1.036.215.076.325.112a.633.633,0,0,1,.116.033c.084.028.173.043.258.068.039.011.073.013.115.024.117.024.235.04.353.057.04.011.083.011.116.019.1.005.195.011.289.024a.559.559,0,0,0,.133.011c.131.007.267.011.4.011h.557c.139,0,.276-.011.414-.021h.039c.165-.013.333-.024.505-.041h.023c1.343-.116,2.87-.352,4.6-.51,5.19-.478,21.365-.175,23.85-1.563C316.161,443.9,318.032,440.286,312.35,438.364Z" transform="translate(-278.846 -428.603)" fill="#41363a"/>
      </g>
      <path id="Tracé_12251" data-name="Tracé 12251" d="M241.3,428.416h0c-.081-1.387-.108-2.253-.108-2.253s-2.682-6.577-5.634-8.848h-.008c-.04-.027-.076-.061-.113-.087-.065-.039-.128-.085-.2-.132a.433.433,0,0,0-.092-.052,1.565,1.565,0,0,0-.274-.159.359.359,0,0,0-.076-.045c-.083-.04-.176-.08-.263-.115-.013,0-.019-.009-.033-.017a1.864,1.864,0,0,0-.293-.083c-.025-.007-.045-.023-.065-.023-.1-.017-.2-.036-.3-.047-3.535-.252-12.092,2.319-14,5.918-.075.148-.139.282-.2.42-.013.04-.035.083-.048.127a2.148,2.148,0,0,0-.12.322.378.378,0,0,0-.032.085c-.04.125-.076.257-.1.382a.94.94,0,0,0-.021.109c-.008.051-.021.109-.031.156a1.6,1.6,0,0,0-1.507.9c-.664,1.311.971,4.885,6.01,10.559s12.789,16.487,14.431,17.031c2.684.874,4.933-1.68,4.933-1.68h0c.838-1.4.9-3.235.71-5.506C243.312,438.846,241.365,429.584,241.3,428.416Z" transform="translate(-65.18 199.186) rotate(-17)" fill="#41363a"/>
      <g id="Groupe_3900" data-name="Groupe 3900" transform="translate(348.98 431.637) rotate(-121)">
        <g id="Groupe_3778" data-name="Groupe 3778">
          <path id="Tracé_12252" data-name="Tracé 12252" d="M208.2,255.832l-3.959-3.824s-.4-9.519-7.654-15.634c0,0-2.328-.223-1.424,3.623l.9,3.84a34.451,34.451,0,0,1-12.05-11.407c-5.3-8.078-13.489,7.563,20.11,30.661Z" transform="translate(-179.115 -230.278)" fill="#945a30"/>
        </g>
      </g>
      <g id="Groupe_3901" data-name="Groupe 3901" transform="translate(311.11 285.996)">
        <g id="Groupe_3779" data-name="Groupe 3779" transform="translate(71.029 1.273)">
          <g id="Groupe_3778-2" data-name="Groupe 3778">
            <path id="Tracé_12252-2" data-name="Tracé 12252" d="M179.115,250.414l3.119-3.013s.315-7.5,6.031-12.319c0,0,1.834-.175,1.122,2.855l-.711,3.026a27.146,27.146,0,0,0,9.495-8.989c4.178-6.365,10.629,5.96-15.846,24.16Z" transform="translate(-179.115 -230.278)" fill="#945a30"/>
          </g>
        </g>
        <g id="Groupe_3781" data-name="Groupe 3781" transform="matrix(1, -0.017, 0.017, 1, -0.308, 20.685)">
          <path id="Tracé_12254" data-name="Tracé 12254" d="M194.324,255.333s29.645,8.206,43.395,12.181c0,0,21.911-15.654,28.793-20.881l4.937,6.845s-21.06,25.663-32.659,29.139c0,0-29-.429-36.087-5.409S194.324,255.333,194.324,255.333Z" transform="translate(-194.324 -246.633)" fill="#273b8b"/>
        </g>
      </g>
      <g id="Groupe_3899" data-name="Groupe 3899" transform="translate(357.221 403.041) rotate(-121)">
        <path id="Tracé_12254-2" data-name="Tracé 12254" d="M278.32,256.108s-14.188,10.375-29.162,14.7c0,0-41.962-18.487-49.457-24.179l-5.377,7.455s23.828,20.454,36.46,24.24c0,0,32.85,18.614,40.573,13.19S278.32,256.108,278.32,256.108Z" transform="translate(-194.324 -246.633)" fill="#2d43b2"/>
      </g>
      <g id="Groupe_3784" data-name="Groupe 3784" transform="translate(304.821 305.013)">
        <path id="Tracé_12256" data-name="Tracé 12256" d="M304.1,288.64c-2.153,15.689-10.187,19.325-9.012,48.514-22.279,9.15-38.546-2.588-38.546-2.588s-6.969-34.463-7.773-53.39c-.41-9.639.786-19.488,5.906-25.156,4.934-5.463,13.631-6.929,20.979-6.974,11.435-.08,19.9,2.665,23.914,7.493C307.07,265.517,305.49,278.425,304.1,288.64Z" transform="translate(-248.691 -249.045)" fill="#2d43b2"/>
      </g>
      <g id="Groupe_3792" data-name="Groupe 3792" transform="translate(313.974 261.382)">
        <path id="Tracé_12258" data-name="Tracé 12258" d="M283.709,229.126c-1.94.482-7.875,2.045-9.483,7.431a20.111,20.111,0,0,0-.65,5.948,45.044,45.044,0,0,1-4.38-1.482l-2.648,2.3s-6.088,8.236-1.567,13.27c4.52,5.051,17.373.369,17.373.369a9.154,9.154,0,0,1-1.3-3.815c4.626-2.2,7.521-12.354,7.521-12.354.548-2.108.749-11.173.749-11.173S285.637,228.625,283.709,229.126Z" transform="translate(-252.983 -212.083)" fill="#945a30"/>
        <g id="Groupe_3786" data-name="Groupe 3786" transform="translate(9.544)">
          <path id="Tracé_12259" data-name="Tracé 12259" d="M262.748,227.314s2-10.262,11.935-10.986,21.036,13.332,12.374,26.225-16.283,9.418-20.582,8.2S262.748,227.314,262.748,227.314Z" transform="translate(-262.723 -216.3)" fill="#41363a"/>
        </g>
        <g id="Groupe_3787" data-name="Groupe 3787" transform="translate(0 4.69)">
          <path id="Tracé_12260" data-name="Tracé 12260" d="M266.34,220.285s4.893,5.9,3.411,8.256-3.915,2.261-3.169,6.717,6.351,19.865.873,27.036-7.159,8.857-7.373,5.039,3.644-5.808.436-12.356-6.833-17.525-3.847-27.688S266.34,220.285,266.34,220.285Z" transform="translate(-255.56 -219.82)" fill="#41363a"/>
        </g>
        <g id="Groupe_3789" data-name="Groupe 3789" transform="translate(10.401 27.753)">
          <g id="Groupe_3788" data-name="Groupe 3788">
            <path id="Tracé_12261" data-name="Tracé 12261" d="M263.888,239.74c-.144-.7-.314-1.544-.522-2.612C263.519,238.058,263.692,238.943,263.888,239.74Z" transform="translate(-263.366 -237.128)" fill="#27202d"/>
          </g>
        </g>
        <g id="Groupe_3790" data-name="Groupe 3790" transform="translate(10.78 4.726)">
          <path id="Tracé_12262" data-name="Tracé 12262" d="M263.65,220.276a2.647,2.647,0,0,1,1.788-.4c1.015.139,3.069,4.73,3.091,6.654s-1.283,1.574-1.283,1.574S266.66,223.065,263.65,220.276Z" transform="translate(-263.65 -219.847)" fill="#00b48b"/>
        </g>
        <g id="Groupe_3791" data-name="Groupe 3791" transform="translate(10.78 4.726)">
          <path id="Tracé_12263" data-name="Tracé 12263" d="M265.438,219.874a2.647,2.647,0,0,0-1.788.4,12.152,12.152,0,0,1,3.094,5.481,3.707,3.707,0,0,0,1-1.484c.056-.123.109-.247.172-.369C267.226,221.992,266.108,219.964,265.438,219.874Z" transform="translate(-263.65 -219.847)" fill="#00b48b"/>
        </g>
      </g>
    </g>
    <path id="Tracé_12460" data-name="Tracé 12460" d="M2245,1172.213s7.67,23.468,8.162,31.458-15.3,116.254-15.914,119.936c-.575,3.471-4.315,2.934-14.9,2.934,0,0-5.536-77.318-1.841-104.2a418.774,418.774,0,0,0,3.737-50.128H2245Z" transform="translate(-1054.588 -529.701)" fill="#00a781"/>
    <g id="Groupe_3891" data-name="Groupe 3891" transform="translate(1268.578 441.255)">
      <path id="Tracé_12461" data-name="Tracé 12461" d="M0,0H61.643V61.643H0Z" transform="translate(0 0)" fill="#ecf0f4"/>
      <g id="Groupe_3824" data-name="Groupe 3824" transform="translate(0 0)" clip-path="url(#clip-path)">
        <path id="Tracé_12340" data-name="Tracé 12340" d="M1498.054,949.444h-48.74l34.94-78.347,12.09,27.085,4.416,26.338Z" transform="translate(-1446.763 -828.186)" fill="#88a0e2"/>
        <path id="Tracé_12341" data-name="Tracé 12341" d="M1452.178,867.159l7.807-2.026,7.583-2.687a38.828,38.828,0,0,0,7.537,2.688c3.415.636,14.814,19.677,14.814,20.473s-8.914,57.487-8.914,57.487h-43.031Z" transform="translate(-1438.946 -822.222)" fill="#fff"/>
        <path id="Tracé_12342" data-name="Tracé 12342" d="M1522.369,845.578a19.818,19.818,0,0,1-13.563-3.093,39.225,39.225,0,0,0,3.144-10.19c.019-.121.033-.238.048-.351a10.5,10.5,0,0,0,.1-2.349l9.94.232s2.689,1.306,2.668,2.165q-.015.689-.018,1.318c-.007,1.144.016,2.143.056,3,.123,2.794.519,6.177.519,6.177S1526.27,844.908,1522.369,845.578Z" transform="translate(-1487.773 -799.577)" fill="#ffc891"/>
        <path id="Tracé_12343" data-name="Tracé 12343" d="M1531.266,840.289a13.74,13.74,0,0,1-12.8-4.016c-.136-.154-.205-.245-.205-.245.08-.038.165-.072.253-.106,2.83-1.069,9.281-.5,12.8.886C1531.314,837.952,1531.226,839.431,1531.266,840.289Z" transform="translate(-1494.293 -803.555)" fill="#fb7"/>
        <path id="Tracé_12344" data-name="Tracé 12344" d="M1501.473,783.115c2.561,6.909,11.732,5.082,15.635,3.945,1.1-.318,1.779-.583,1.779-.583,1.205-.556,1.566-2.667,1.442-5.33-.242-5.27-2.372-12.7-3.578-14.485-1.815-2.687-4.83-5.411-13.713-1.533S1498.189,774.263,1501.473,783.115Z" transform="translate(-1480.08 -753.807)" fill="#ffc891"/>
        <path id="Tracé_12345" data-name="Tracé 12345" d="M1501.466,748.3a13.453,13.453,0,0,0-8-2.855,21.156,21.156,0,0,0-10.773,3c-7,4.641-7.977,10.781-2.4,19.116,5.9,8.814,9.5,6.875,9.5,6.875s-.689-.221-1.126-3.21c-.025-.17-.042-.313-.056-.436a2.032,2.032,0,0,0-.913-1.519c-1.087-.677-1.985-3.138-1.318-3.981.8-1.018,2.318-.212,2.883.511a1.182,1.182,0,0,0,1.727.08c2.1-1.9.053-4.615,1.99-6.829s13.559-1.218,14.32-7.753A20.66,20.66,0,0,1,1501.466,748.3Z" transform="translate(-1465.634 -741.568)" fill="#41363a"/>
        <path id="Tracé_12346" data-name="Tracé 12346" d="M1561.785,871.1s12.208,25.188,13.8,44.638a193.819,193.819,0,0,1,0,33.709,131.645,131.645,0,0,0,8.692-41.471c.335-10-1.268-28.094-4.664-31.3C1577.956,875.114,1572.984,873.622,1561.785,871.1Z" transform="translate(-1524.293 -828.186)" fill="#2d43b2"/>
        <path id="Tracé_12347" data-name="Tracé 12347" d="M1414.221,904.406c-.039,2.877-.151,5.883-.356,8.995a154.311,154.311,0,0,1-6.472,35.655h-39.952s4.951-12.035,10.931-25.115c1.048-2.291,2.127-4.614,3.215-6.909,4.42-9.313,9.013-18.181,12.372-22.659,8.914-11.885,17.4-23.277,17.4-23.277S1414.488,884.73,1414.221,904.406Z" transform="translate(-1390.325 -828.186)" fill="#2d43b2"/>
        <path id="Tracé_12348" data-name="Tracé 12348" d="M1427.51,1024.378s-8.205,3.254-24.883,1.492c1.048-2.291,2.127-4.614,3.215-6.91Z" transform="translate(-1414.579 -930.114)" fill="#9db0f4"/>
        <path id="Tracé_12349" data-name="Tracé 12349" d="M1462.842,977.72c-.039,2.877-.151,5.883-.356,9-5.376-.291-24.6-1.35-24.512-1.624.106-.318,1.779-7.641,1.779-7.641s16.163,3.926,23.058,0Z" transform="translate(-1438.945 -901.499)" fill="#9db0f4"/>
        <path id="Tracé_12350" data-name="Tracé 12350" d="M1493.792,998.943s5.73-3.4,8.384-3.24,6.9,1.011,7.534,3.24-.955,1.141-4.51,1.834c-2.1.409-3.38,3.419-6.1,3.685a37.59,37.59,0,0,1-5.306-.743v-4.775Z" transform="translate(-1477.423 -914.078)" fill="#ffb27d"/>
        <path id="Tracé_12351" data-name="Tracé 12351" d="M1419.23,871.1s-14.667,1.734-18.488,5.342c-6.461,6.1-23.453,29.176-21.773,39.3,1.114,6.715,32.153,6.715,32.153,6.715s3.832-2.484,5.242-4.73c2.866-4.563,1.875-7.909,1.875-7.909l-19.2-6.524s9.364-9.078,16.58-9.551C1420.9,893.391,1419.23,871.1,1419.23,871.1Z" transform="translate(-1398.191 -828.186)" fill="#2d43b2"/>
      </g>
    </g>
    <g id="Groupe_3892" data-name="Groupe 3892" transform="translate(1346.532 459.265)">
      <g id="Groupe_3826" data-name="Groupe 3826" transform="translate(0.468 24.006)">
        <rect id="Rectangle_907" data-name="Rectangle 907" width="98.835" height="1.55" fill="#41363a"/>
        <rect id="Rectangle_908" data-name="Rectangle 908" width="98.835" height="1.55" transform="translate(0 7.234)" fill="#41363a"/>
        <rect id="Rectangle_909" data-name="Rectangle 909" width="98.835" height="1.55" transform="translate(0 14.554)" fill="#41363a"/>
      </g>
      <rect id="Rectangle_911" data-name="Rectangle 911" width="29.956" height="2.727" transform="translate(0.468 0)" fill="#41363a"/>
      <rect id="Rectangle_912" data-name="Rectangle 912" width="36.48" height="2.727" transform="translate(0.468 6.385)" fill="#41363a"/>
    </g>
    <g id="Groupe_3893" data-name="Groupe 3893" transform="translate(1268.578 601.832)">
      <g id="Groupe_3832" data-name="Groupe 3832" transform="translate(0 0)">
        <g id="Groupe_3831" data-name="Groupe 3831">
          <rect id="Rectangle_913" data-name="Rectangle 913" width="61.643" height="61.643" fill="#ebf0f4"/>
          <g id="Groupe_3828" data-name="Groupe 3828" clip-path="url(#clip-path)">
            <path id="Tracé_12352" data-name="Tracé 12352" d="M1449.578,1430.866l7.807-2.026,7.583-2.688a73.528,73.528,0,0,0,7.856,2.18c3.415.636,14.5,20.185,14.5,20.98s.318,57.874.318,57.874l-52.263-.387Z" transform="translate(-1437.154 -1385.93)" fill="#2d43b2"/>
            <path id="Tracé_12353" data-name="Tracé 12353" d="M1519.768,1409.286a19.817,19.817,0,0,1-13.563-3.093,39.234,39.234,0,0,0,3.144-10.191c.019-.121.033-.238.048-.351a10.5,10.5,0,0,0,.1-2.349l9.94.231s2.689,1.306,2.668,2.165q-.015.69-.018,1.318c-.007,1.144.015,2.142.055,3,.124,2.794.519,6.177.519,6.177S1523.669,1408.616,1519.768,1409.286Z" transform="translate(-1485.98 -1363.285)" fill="#945a30"/>
            <path id="Tracé_12354" data-name="Tracé 12354" d="M1528.666,1404a13.741,13.741,0,0,1-12.8-4.016c-.136-.154-.2-.246-.2-.246.08-.038.165-.072.253-.106,2.83-1.07,9.281-.5,12.8.886C1528.714,1401.659,1528.626,1403.139,1528.666,1404Z" transform="translate(-1492.501 -1367.263)" fill="#804f2b"/>
            <path id="Tracé_12355" data-name="Tracé 12355" d="M3.826,19.917C6.387,26.826,15.558,25,19.461,23.862c1.1-.319,1.779-.584,1.779-.584,1.205-.556,1.566-2.667,1.442-5.33-.242-5.27-2.372-12.7-3.578-14.484C17.288.777,14.274-1.947,5.391,1.931S.542,11.065,3.826,19.917Z" transform="translate(20.853 7.892) rotate(11)" fill="#945a30"/>
            <path id="Tracé_12356" data-name="Tracé 12356" d="M24.775,2.857a13.455,13.455,0,0,0-8-2.855A21.166,21.166,0,0,0,6,3C-1,7.64-1.976,13.779,3.6,22.114c5.9,8.814,9.5,6.876,9.5,6.876s-.688-.221-1.126-3.21c-.024-.17-.042-.312-.056-.435A2.034,2.034,0,0,0,11,23.825c-1.087-.677-1.985-3.138-1.318-3.981.8-1.018,2.318-.213,2.883.511a1.181,1.181,0,0,0,1.726.079c2.1-1.9.053-4.615,1.991-6.829s13.559-1.218,14.321-7.753A20.684,20.684,0,0,1,24.775,2.857Z" transform="translate(15.515 1.236) rotate(11)" fill="#41363a"/>
            <path id="Tracé_12357" data-name="Tracé 12357" d="M1559.185,1434.805s12.208,25.188,13.8,44.637a193.816,193.816,0,0,1,0,33.709,131.646,131.646,0,0,0,8.692-41.471c.335-10-1.268-28.094-4.664-31.3C1575.355,1438.822,1570.384,1437.33,1559.185,1434.805Z" transform="translate(-1522.501 -1391.894)" fill="#2d43b2"/>
            <path id="Tracé_12358" data-name="Tracé 12358" d="M1416.63,1434.805h0s-14.668,1.734-18.489,5.342c-6.46,6.1-23.453,29.176-21.774,39.3.372,2.245,9.072,9.1,13.855,10.094,1.212,9.523-1.79,23.615-1.79,23.615l24.227-.387a154.341,154.341,0,0,0,6.471-35.655c.2-3.112.316-6.118.355-8.995C1419.752,1448.438,1416.63,1434.805,1416.63,1434.805Z" transform="translate(-1396.398 -1391.894)" fill="#2d43b2"/>
          </g>
        </g>
      </g>
      <g id="Groupe_3834" data-name="Groupe 3834" transform="translate(77.954 19.998)">
        <g id="Groupe_3833" data-name="Groupe 3833" transform="translate(0.468 24.007)">
          <rect id="Rectangle_917" data-name="Rectangle 917" width="96.587" height="1.55" fill="#3f363a"/>
          <rect id="Rectangle_918" data-name="Rectangle 918" width="96.587" height="1.55" transform="translate(0 7.233)" fill="#3f363a"/>
          <rect id="Rectangle_919" data-name="Rectangle 919" width="96.587" height="1.55" transform="translate(0 14.553)" fill="#3f363a"/>
        </g>
        <rect id="Rectangle_921" data-name="Rectangle 921" width="31.67" height="2.727" transform="translate(0.469)" fill="#3f363a"/>
        <rect id="Rectangle_922" data-name="Rectangle 922" width="38.568" height="2.727" transform="translate(0.468 6.385)" fill="#3f363a"/>
      </g>
    </g>
    <g id="Groupe_3894" data-name="Groupe 3894" transform="translate(1268.578 521.116)">
      <g id="Groupe_3841" data-name="Groupe 3841" transform="translate(77.954 19.377)">
        <g id="Groupe_3840" data-name="Groupe 3840" transform="translate(0.468 24.006)">
          <rect id="Rectangle_924" data-name="Rectangle 924" width="97.257" height="1.55" fill="#41363a"/>
          <rect id="Rectangle_925" data-name="Rectangle 925" width="97.257" height="1.55" transform="translate(0 7.233)" fill="#41363a"/>
          <rect id="Rectangle_926" data-name="Rectangle 926" width="97.257" height="1.55" transform="translate(0 14.554)" fill="#41363a"/>
        </g>
        <rect id="Rectangle_928" data-name="Rectangle 928" width="33.415" height="2.726" transform="translate(0.468)" fill="#41363a"/>
        <rect id="Rectangle_929" data-name="Rectangle 929" width="40.693" height="2.727" transform="translate(0.468 6.384)" fill="#41363a"/>
      </g>
    </g>
    <g id="Groupe_3839" data-name="Groupe 3839" transform="translate(1268.578 522.007)">
      <rect id="Rectangle_923" data-name="Rectangle 923" width="59.115" height="59.115" fill="#ecf0f4"/>
      <g id="Groupe_3838" data-name="Groupe 3838" transform="translate(1.618 4.56)">
        <g id="Groupe_3837" data-name="Groupe 3837">
          <g id="Groupe_3836" data-name="Groupe 3836">
            <path id="Tracé_12365" data-name="Tracé 12365" d="M1480.612,1025.9c-3.624-1.006-8.625-.166-9.452-.1-9.9.787-12.67,16.027-12.1,20.338,1.063,7.944-2.813,10.03-7.569,16.18-5.187,6.705-5.815,12.916-4.131,17.645h25.144c5.393-4.742,12.759-11.245,17.382-15.27a7.825,7.825,0,0,0,1.747-.9C1501.747,1056.824,1489.393,1028.336,1480.612,1025.9Z" transform="translate(-1446.532 -1025.411)" fill="#3f363a"/>
            <path id="Tracé_12366" data-name="Tracé 12366" d="M1531.5,1119.415c.045.017-4.112,2.521-7.4,1.841-3.094-.637-6.239-4.821-6.2-4.833,1.272-.337,2.439-1.765,1.931-9.37l.59.078,9.914,1.32s-.028,3.1.149,6C1530.636,1116.887,1530.93,1119.19,1531.5,1119.415Z" transform="translate(-1496.641 -1082.73)" fill="#ffb27d"/>
            <path id="Tracé_12367" data-name="Tracé 12367" d="M1536.283,1108.635s-.028,3.1.148,6c-5.489.192-8.7-4.624-10.062-7.319Z" transform="translate(-1502.584 -1082.914)" fill="#ed975d"/>
            <path id="Tracé_12368" data-name="Tracé 12368" d="M1533.221,1069.633s-12.95,1.033-13.469-7.042-2.54-13.379,5.706-14.38,10.052,1.977,10.881,4.63S1536.577,1069.156,1533.221,1069.633Z" transform="translate(-1497.519 -1041.279)" fill="#ffb27d"/>
            <path id="Tracé_12369" data-name="Tracé 12369" d="M1525.7,1045.946s-6.554,8.685-11.913,10.43-7.814.435-7.814.435a21.89,21.89,0,0,0,3.657-8.129,3.943,3.943,0,0,1,2.685-2.958C1516.152,1044.539,1523.536,1042.781,1525.7,1045.946Z" transform="translate(-1488.262 -1038.571)" fill="#3f363a"/>
            <path id="Tracé_12370" data-name="Tracé 12370" d="M1554.83,1046.549a20.281,20.281,0,0,1,4.525,3.772c1.222,1.688,2.433,6.1,2.164,8.009,0,0,2.433-9.073-.8-12.526C1557.286,1042.142,1554.83,1046.549,1554.83,1046.549Z" transform="translate(-1522.566 -1038.707)" fill="#3f363a"/>
            <path id="Tracé_12371" data-name="Tracé 12371" d="M1495.538,1143.536a4.891,4.891,0,0,0-1.474-2.255c-3.4-3.172-11.043-4.466-11.043-4.466v0a.763.763,0,0,1-.016.083v.007c-.11.408-.691,2.045-3.268,2.045-1.74,0-4.39-.75-8.419-3.128-.02-.014-.04-.023-.06-.036,0,0-.007,0-.007,0v0s-10.588.651-14.251,5.762c-1.989,2.773-4.729,9.03-7.014,15.911h49.348C1497.643,1151.257,1496.069,1145.482,1495.538,1143.536Z" transform="translate(-1448.957 -1102.9)" fill="#00b48b"/>
          </g>
        </g>
      </g>
    </g>
    <path id="Tracé_12459" data-name="Tracé 12459" d="M2279.739,1169.985s-11.391,15.282-12.453,25.613-1.665,46.619-3.928,56.69-11.011,28.333-11.011,59.746a7.934,7.934,0,0,0,3.969,3.879c.854.306,4.119,1.217,5.228,1.472,2.2.5,2.335-1.184,3.339-3.205,5.619-11.314,23.519-47.8,24.438-55.379.649-5.361,6.3-40.838,18.629-61.656,2.958-5-1.816-24.873-1.816-24.873Z" transform="translate(-1063.539 -648.585) rotate(3)" fill="#00a781"/>
    <g id="Groupe_3902" data-name="Groupe 3902" transform="translate(41 46.22)">
      <g id="Groupe_3779-2" data-name="Groupe 3779" transform="translate(1490.883 561.349) rotate(156)">
        <g id="Groupe_3778-3" data-name="Groupe 3778" transform="translate(0 0)">
          <path id="Tracé_12252-3" data-name="Tracé 12252" d="M0,4.9,2.672,7.48s.27,6.425,5.166,10.553c0,0,1.571.15.961-2.445L8.191,13a23.254,23.254,0,0,1,8.133,7.7C19.9,26.147,25.428,15.59,2.75,0Z" fill="#f8c2a0"/>
        </g>
      </g>
      <g id="Groupe_3674" data-name="Groupe 3674" transform="translate(1486.308 468.745)">
        <path id="Tracé_12059" data-name="Tracé 12059" d="M2235.651,859.4a12.9,12.9,0,0,0-9.414-.922c-15.99-1.72-20.656,15.359-20.439,21.235s.949,12.188-6.192,19.822c-20.627,22.052,22.574,23.025,22.574,23.025.365-17.619,23.427-11.19,22.417-9.405C2274.158,919.656,2247.535,865.051,2235.651,859.4Z" transform="translate(-2167.985 -857.801)" fill="#c93500"/>
        <path id="Tracé_12061" data-name="Tracé 12061" d="M2173.087,1044.643a45.443,45.443,0,0,1-4.636,7.012c-3.6,4.512-9.156,9.724-16.13,10.752a17.31,17.31,0,0,1-9.583-1.556l-.011,0c-8.47-3.76-14.838-12.406-14.838-12.406a6.962,6.962,0,0,1,.95-6.833s17.1,3.846,18.731,3.032,11.13-28.186,13.391-31.625,9.973-5.226,9.973-5.226Z" transform="translate(-2127.406 -954.838)" fill="#41363a"/>
        <path id="Tracé_12062" data-name="Tracé 12062" d="M2196.651,1115.661c-3.6,4.512-9.156,9.724-16.13,10.752a17.314,17.314,0,0,1-9.583-1.556c.331.044,8.79,1.089,12.162-4.943,3.439-6.154,7.158-15.926,12.267-12.669C2197.571,1108.652,2197.473,1112.146,2196.651,1115.661Z" transform="translate(-2155.605 -1018.843)" fill="#362d30"/>
        <path id="Tracé_12063" data-name="Tracé 12063" d="M2403.5,1632.424s5.218,4.762,4.2,8.146-5.728,5.64-6.364,9.776-3.182,6.391-5.473,6.391h-10.923s-1.687-2.911,2.386-3.788,5.609-5.737,5.355-10.249a79.471,79.471,0,0,1,.381-10.528l8.655-2.006Z" transform="translate(-2294.01 -1358.011)" fill="#41363a"/>
        <path id="Tracé_12064" data-name="Tracé 12064" d="M2258.17,1642.314s1.878,20.175-.414,21.3l-29.32-.06s0-3.384,4.709-4.135,12.983-3.509,14.382-9.65S2258.17,1642.314,2258.17,1642.314Z" transform="translate(-2192.853 -1365.879)" fill="#41363a"/>
        <path id="Tracé_12065" data-name="Tracé 12065" d="M2281.443,1051.825c-6.034-13.531-9.725-17.415-9.021-21.615.525-3.126-1.6-58.28-1.6-58.28-.716-.222-2.151-.42-2.935-.594a7.363,7.363,0,0,1-5.376-4.676,37.534,37.534,0,0,1-1.824-12.444l-.773.152-13,2.573s.3,4.09.3,7.943c0,.032,0,.064,0,.1a7.474,7.474,0,0,1-5.394,7.227c-1.641.474-3.07.879-3.07.879a119.137,119.137,0,0,0-5.683,27.62c-.912,14,8.677,20.076-.073,48.044C2224.073,1077.314,2284.776,1059.3,2281.443,1051.825Z" transform="translate(-2195.231 -920.131)" fill="#f8c2a0"/>
        <path id="Tracé_12066" data-name="Tracé 12066" d="M2274.166,957.223s.3,4.09.3,7.943c7.272-.205,11.116-6.839,12.691-10.516Z" transform="translate(-2222.477 -920.412)" fill="#e6b899"/>
        <path id="Tracé_12067" data-name="Tracé 12067" d="M2256.731,918.914s17.206.284,17.218-10.434,2.24-17.9-8.745-18.533-13.123,3.453-14,7.029S2252.256,918.564,2256.731,918.914Z" transform="translate(-2207.471 -878.455)" fill="#f8c2a0"/>
        <path id="Tracé_12068" data-name="Tracé 12068" d="M0,2.178S4.711,14.752,11.94,16.611s10.365-.078,10.365-.078a20.475,20.475,0,0,1-6.7-12.1S3.554-3.806,0,2.178Z" transform="matrix(0.883, -0.469, 0.469, 0.883, 44.697, 10.472)" fill="#c93500"/>
        <path id="Tracé_12069" data-name="Tracé 12069" d="M2256.37,888.451s-3.493,1.306-4.931,3.854a17.331,17.331,0,0,0-2.326,9.839s-3.549-8.546.439-13.381C2253.783,883.636,2256.37,888.451,2256.37,888.451Z" transform="translate(-2205.305 -876.2)" fill="#c93500"/>
        <path id="Tracé_12071" data-name="Tracé 12071" d="M2279.465,1028.908a116.75,116.75,0,0,1,0,13.552c-.291,4.9-5.247,11.463-5.951,13.086-1.764,4.072-3.754,4.734-3.754,4.734l-15.395,3.774-5.413,1.325-17.069-5.1s-7.775-21.7-4.653-33.916a93.928,93.928,0,0,1,7.891-20.7s13.929,13.638,32.065-1.157Z" transform="translate(-2191.593 -952.71)" fill="#41363a"/>
        <path id="Tracé_12073" data-name="Tracé 12073" d="M2228.314,1172.213s-8.454,26.311-9,35.27,16.158,127.259,16.831,131.387c.634,3.891,5.465,6.371,5.465,6.371a7.311,7.311,0,0,0,5.394.415c4.4-1.242,5.791-2.73,5.791-2.73s6.579-84.371,2.508-114.511a477.471,477.471,0,0,1-4.119-56.2h-22.872Z" transform="translate(-2186.938 -1061.349)" fill="#00a781"/>
        <path id="Tracé_12074" data-name="Tracé 12074" d="M2285.816,1169.985s12.894,17.3,14.1,29,1.885,52.776,4.447,64.178,11.971,33.342,11.971,68.9a7.093,7.093,0,0,1-4,3.124,33.088,33.088,0,0,1-3.516.972,5.526,5.526,0,0,1-6.182-2.934c-6.362-12.808-26.625-54.119-27.665-62.693-.735-6.069-7.133-46.232-21.089-69.8-3.35-5.658,2.056-28.158,2.056-28.158Z" transform="translate(-2208.626 -1059.906)" fill="#00b48b"/>
        <path id="Tracé_12076" data-name="Tracé 12076" d="M2240.168,1160.68s3.394,2.684,10.135,2.821c8.052.162,28.006-2.053,28.006-2.053a16.5,16.5,0,0,1,.851,5.092s-24.369,6.147-38.49.9A8.926,8.926,0,0,1,2240.168,1160.68Z" transform="translate(-2200.142 -1053.878)" fill="#362d30"/>
        <g id="Groupe_3673" data-name="Groupe 3673" transform="translate(44.554 108.244)">
          <path id="Tracé_12077" data-name="Tracé 12077" d="M2257.582,1173.092a4.19,4.19,0,1,1,3.675-4.159A3.944,3.944,0,0,1,2257.582,1173.092Zm0-7.1a2.988,2.988,0,1,0,2.457,2.941A2.735,2.735,0,0,0,2257.582,1165.992Z" transform="translate(-2253.908 -1164.774)" fill="#fff"/>
        </g>
        <path id="Tracé_12133" data-name="Tracé 12133" d="M0,0H33.106V45.317H0Z" transform="translate(49.708 99.126) rotate(-41.047)" fill="#2d43b2"/>
        <path id="Tracé_12078" data-name="Tracé 12078" d="M2319.83,1174.42s-12.408,1.451-12.37,4.4,3.093,9,4.625,9.265,10.1-8.182,10.1-8.182Z" transform="translate(-2245.978 -1064.574)" fill="#f8c2a0"/>
        <path id="Tracé_12079" data-name="Tracé 12079" d="M2331.844,1004.509s12.213.857,16.895,12.237,13.565,30.489,13.565,33.7-4.962,13.125-31.61,18.822c0,0-3.5-4.009-3.331-6.3,0,0,17.376-13.179,17.332-14.849-.085-3.158-2.727-7.328-17.332-21.937C2323.393,1022.212,2331.844,1004.509,2331.844,1004.509Z" transform="translate(-2256.25 -952.711)" fill="#41363a"/>
      </g>
    </g>
  </g>
</svg>
